<svg width="270" height="81" viewBox="0 0 270 81" fill="none" xmlns="http://www.w3.org/2000/svg">
<path d="M79.3476 69.804C79.3484 69.804 79.3493 69.8041 79.3502 69.8043C83.5618 70.6456 86.6936 73.4147 90.5213 74.7413C93.6533 75.8216 96.1329 74.6906 98.4674 73.0303C99.4317 72.3343 100.294 71.7035 101.237 72.4285C102.179 73.1753 101.715 74.4296 101.454 75.3938C101.019 76.8656 96.1329 80.2079 94.5451 80.0629C90.9055 79.7511 87.4907 79.0551 84.3587 76.7641C79.6606 73.342 74.4406 72.5228 68.9957 75.3938C67.8647 75.9738 66.4654 77.0106 65.5012 75.3213C64.6312 73.7771 65.9072 72.8635 67.0165 72.0733V72.0733C69.4376 70.2824 68.7688 66.7479 66.0998 65.3532C65.5064 65.0431 64.9275 64.6953 64.3629 64.2939C58.3163 60.0309 55.5975 53.9408 57.0403 46.0889C58.2656 39.397 63.6162 34.4597 70.0687 33.0605C79.0009 31.1102 86.4902 34.0972 90.5358 42.3551C93.7113 48.8294 94.2696 58.1241 87.0412 62.9889C84.3695 64.7918 82.1822 67.2672 79.3456 69.8157C79.3413 69.8195 79.3344 69.8165 79.3344 69.8107V69.8107C79.3344 69.807 79.3374 69.804 79.3411 69.804H79.3476ZM86.1754 50.2215C86.1812 50.2215 86.1859 50.2168 86.1862 50.211C86.4526 43.8363 85.1745 39.2146 78.8414 37.048C74.4841 35.5545 68.7492 36.3738 65.8419 39.9118C62.6881 43.7616 61.8689 48.3147 63.1449 52.9112C63.9134 55.7025 63.6959 58.9796 66.5887 61.1256C72.2945 65.3379 80.5524 64.4462 84.598 58.6968C86.4729 56.0255 86.3095 52.7615 86.1646 50.2328C86.1643 50.2266 86.1692 50.2215 86.1754 50.2215V50.2215Z" fill="#040000"/>
<path d="M19.1287 56.4858C19.1292 56.4856 19.1297 56.4852 19.13 56.4847C22.4793 51.7651 24.5454 46.8063 26.9306 42.036C28.2066 39.4839 30.0844 37.2437 30.8094 34.4016C31.0777 33.3649 32.0854 33.0748 33.0714 32.9298C34.71 32.6906 36.3195 32.9298 37.9363 33.2924C38.828 33.4881 39.6908 33.5099 39.8865 34.9091C40.0533 36.0909 39.5458 36.4969 38.7773 36.8812C37.523 37.4829 37.262 38.5922 37.3345 39.745C37.7695 46.6108 37.1895 53.4694 37.3127 60.3353C37.3345 61.7055 37.001 63.0105 38.6105 64.0691C39.9083 64.9391 38.9223 67.2446 37.2112 67.3678C35.7902 67.4621 34.3692 67.4911 32.9482 67.0271C30.3237 66.2078 30.0336 65.5553 31.9404 63.5108C32.5422 62.8583 32.7379 62.2565 32.7379 61.4663C32.6654 54.9919 32.6147 48.5103 32.5204 42.036V42.036C32.5204 41.5116 31.6114 41.5858 31.3148 42.0183C30.1724 43.6839 29.5506 45.5477 28.6634 47.2415C25.7488 52.8024 22.885 58.414 20.043 64.0256C19.5862 64.9173 18.9627 65.3016 17.9695 65.1566C16.766 64.9898 16.2149 64.1923 15.8524 63.083C14.1431 57.7798 11.8267 52.7582 9.2046 47.7324C7.95177 45.3311 5.65008 45.8106 5.73855 48.5176V48.5176C5.88355 52.9256 6.0068 57.3047 6.1228 61.7128C6.1228 62.387 6.02855 63.083 6.1953 63.7138C6.50705 64.8666 7.56557 66.0701 6.10105 67.0343C4.82503 67.8754 3.28076 67.6578 1.91049 67.1793C0.271967 66.5993 -0.27904 65.3523 1.18548 64.1923C2.22225 63.373 2.26575 62.5538 2.244 61.4735C2.02649 53.8174 1.83799 46.183 1.62049 38.5269C1.62049 37.6859 1.49724 36.9102 0.822976 36.1706C-0.619795 34.5539 -0.0905407 33.1619 2.02649 32.8211C3.52001 32.5818 5.03529 32.4803 6.55056 32.5093C9.84936 32.5601 9.87111 35.6631 10.8136 37.6134C13.748 43.7503 16.3276 50.0321 19.1603 56.4803C19.1629 56.4861 19.1586 56.4927 19.1523 56.4927H19.1303C19.1265 56.4927 19.1253 56.4875 19.1287 56.4858V56.4858Z" fill="#040000"/>
<path d="M243.797 40.9624C243.803 40.9595 243.81 40.9641 243.809 40.9706C243.331 48.0915 242.896 54.4672 242.483 60.8718C242.411 62.1696 242.338 63.3513 243.303 64.6274C244.144 65.7801 244.028 67.4911 241.809 67.5419C240.294 67.5636 238.779 67.4187 237.256 67.4694C236.488 67.4694 236.292 67.0851 236.074 66.5051C235.806 65.8309 236.053 65.3016 236.625 65.1059C237.568 64.7651 238.046 64.1634 238.068 63.2064C238.38 55.282 239.656 47.4374 239.148 39.4623C239.076 38.1862 238.982 37.2727 237.292 37.367C236.161 37.4395 235.509 36.4752 235.509 35.4674C235.509 34.3147 236.256 33.5172 237.532 33.4664C239.627 33.3939 241.744 33.2707 243.839 33.3722C246.515 33.5172 246.942 36.2142 248.269 37.7802C250.75 40.7108 253.173 43.6917 255.653 46.6802C258.558 50.18 264.15 48.1026 263.989 43.5573C263.976 43.1951 263.961 42.833 263.944 42.471C263.85 40.4483 265.053 37.918 262.233 36.4752C261.508 36.1127 261.849 34.7424 262.69 34.2567C264.836 32.9807 267.141 33.8507 269.36 34.0899C269.766 34.1407 270.418 35.0759 269.628 35.7284C267.243 37.6787 267.772 40.3975 267.75 42.9061C267.678 49.7212 267.823 56.5362 267.75 63.3513C267.75 64.6056 267.75 66.0991 266.452 66.8894C265.655 67.3679 264.408 67.2012 264.024 66.6502C263.132 65.3741 261.522 64.5549 261.037 63.3731C258.745 57.8848 253.859 54.441 250.589 49.7719C248.592 46.9142 246.336 44.2441 243.79 41.0053C243.781 40.9937 243.782 40.9769 243.792 40.9664L243.795 40.964C243.795 40.9634 243.796 40.9628 243.797 40.9624V40.9624Z" fill="#040000"/>
<path d="M164.422 42.4711C164.422 43.0511 164.298 43.6528 164.422 44.2039C164.762 45.5306 163.385 47.7927 165.045 48.0319C166.923 48.3219 169.475 48.9744 171.041 46.6326C171.519 45.9076 172.44 45.4509 173.332 45.8641C174.246 46.2701 174.826 47.0676 174.731 48.1769C174.637 49.4022 174.71 50.7072 174.391 51.8817C173.956 53.4985 172.636 54.2162 171.425 52.9185C169.475 50.8232 167.329 52.121 165.263 52.121C164.204 52.121 164.255 53.107 164.226 53.8537C164.081 56.6958 164.422 59.5378 163.842 62.3798C163.624 63.3876 164.393 63.8516 165.241 63.7501C168.518 63.3151 171.715 64.4461 174.992 64.2069C176.892 64.0619 178.414 63.7719 178.487 61.3648C178.487 60.5673 178.849 59.6103 180.053 59.6828C181.329 59.7553 181.88 60.5238 182.054 61.7056C182.271 63.0759 181.981 64.3809 182.605 65.8454C183.156 67.1432 181.351 67.8174 180.147 67.8899C177.182 68.0857 174.151 68.3974 171.237 68.0349C167.046 67.5057 162.885 68.0349 158.716 67.8392C157.563 67.7884 156.548 67.7884 156.07 66.6574C155.519 65.3597 156.36 64.7289 157.469 64.3011C158.411 63.9386 158.266 63.1194 158.266 62.3509C158.172 54.4555 158.049 46.5529 157.998 38.6575C157.998 37.715 157.998 37.1132 156.961 36.613C156.215 36.2505 155.446 35.337 155.925 34.2277C156.309 33.3577 157.128 33.0024 158.042 32.9517C164.733 32.7124 171.403 32.4732 178.103 32.2557C179.596 32.2049 180.147 33.3359 180.147 34.5467C180.147 36.1852 180.655 38.2298 178.632 39.0998C177.378 39.6508 176.413 38.8823 176.152 37.4612C175.913 36.1345 174.826 36.1852 173.912 36.207C171.338 36.2577 168.786 36.3737 166.205 36.4752C164.951 36.526 164.277 37.0262 164.4 38.4473C164.523 39.774 164.422 41.1443 164.422 42.4711Z" fill="#040000"/>
<path d="M205.511 42.4153C205.504 42.4184 205.5 42.4244 205.5 42.4314C205.495 42.4742 205.482 42.6295 205.501 42.7103C205.769 44.3706 204.442 46.7559 206.298 47.5969C208.488 48.6046 211.214 49.2137 213.092 46.4441C213.599 45.6974 214.44 45.7916 215.165 46.2484C216.731 47.2344 216.92 51.5917 215.477 52.8242C215.02 53.2085 214.469 53.6217 213.983 53.0635C211.765 50.5332 208.64 52.5125 206.131 51.4757C205.363 51.1639 205.334 51.7657 205.24 52.4399C204.638 56.1738 205.022 59.8568 205.435 63.5616C205.559 64.6926 206.472 64.6926 207.146 64.6201C210.924 64.3084 214.687 63.8734 218.464 63.5399C219.907 63.4166 219.979 62.3581 220.218 61.3213C220.603 59.7771 221.494 58.53 223.205 58.8636C224.844 59.2043 224.503 60.7921 224.387 61.9956C224.264 63.4166 224.003 64.8376 223.64 66.2079C223.089 68.2524 221.473 69.0282 219.646 68.4699C217.355 67.7739 215.122 68.0132 212.831 68.1074C208.662 68.2742 204.5 68.4192 200.331 68.5134C198.671 68.5642 197.272 67.2374 198.069 66.0847C200.07 63.2209 199.15 60.1831 199.295 57.2468C199.635 51.1277 199.606 45.0158 200.063 38.9258C200.23 36.7072 199.483 36.178 197.605 36.323C196.163 36.4172 194.473 36.7072 194.43 34.5177C194.379 32.2992 196.547 32.4732 197.634 32.5892C204.087 33.2417 210.561 32.4442 216.992 32.9952C218.964 33.1619 221.422 33.5244 221.088 36.6057C220.965 37.6425 220.965 38.846 219.646 39.1578C218.565 39.426 217.891 38.6793 217.239 37.9542C215.818 36.3882 207.799 35.6415 206.139 36.874C205.537 37.3307 205.776 37.9325 205.754 38.4182C205.664 39.6861 205.727 40.9738 205.732 42.2371C205.733 42.3343 205.654 42.4131 205.557 42.4131H205.52C205.517 42.4131 205.514 42.4138 205.511 42.4153V42.4153Z" fill="#040000"/>
<path d="M110.153 52.8242C110.162 52.8242 110.17 52.8173 110.172 52.808C110.862 48.5723 109.618 44.4377 109.691 40.2307C109.712 38.8097 109.596 37.5119 108.291 36.3519C107.037 35.2209 107.74 33.9231 109.161 33.4881C111.931 32.6689 114.795 32.8646 117.513 33.7274C118.739 34.1116 119.442 35.6994 118.282 36.4462C115.585 38.2007 116.259 40.9702 116.063 43.2395C115.679 48.1986 115.846 53.2302 115.918 58.2182C115.969 61.2488 119.891 64.1198 123.959 64.1416C130.266 64.1923 132.485 62.2638 132.913 54.0277C133.181 49.2136 133.71 44.298 132.862 39.4332C132.666 38.3022 132.934 37.2437 131.608 36.5694C130.665 36.0909 130.912 35.0977 131.1 34.2349C131.318 33.1764 132.304 33.3431 132.978 33.2706C134.015 33.1474 135.073 33.3214 136.132 33.3649C137.074 33.4156 138.154 33.1691 138.662 34.2784C139.17 35.3587 138.444 35.9387 137.719 36.6637C136.755 37.5772 136.733 39.0707 136.878 40.2017C137.574 45.3783 136.878 50.5331 136.828 55.688C136.828 58.936 135.718 62.0173 133.746 64.5041C130.614 68.4264 125.996 68.6004 121.631 67.6796C116.506 66.6211 112.243 63.8008 110.553 58.4575C110.007 56.7181 110.237 54.7151 110.121 52.8229C110.121 52.8133 110.134 52.8102 110.138 52.819V52.819C110.139 52.8221 110.142 52.8242 110.146 52.8242H110.153Z" fill="#040000"/>
<path d="M252.626 0.0289898C252.626 0.0249583 252.63 0.0216901 252.634 0.0216895C255.307 0.0212953 257.972 -0.194956 260.594 0.746701C265.843 2.64623 267.141 8.85957 262.907 12.5716C261.58 13.7244 261.754 14.8337 262.472 16.1097C263.654 18.205 265.263 20.0102 266.953 21.7213C268.105 22.903 268.613 24.295 267.359 25.4551C266.155 26.5353 265.046 25.8176 264.038 24.5633C261.747 21.743 259.122 19.191 256.86 16.3489C255.896 15.1454 254.859 15.3629 253.779 15.5297C252.597 15.6964 252.742 16.8782 252.815 17.6467C252.982 19.597 251.756 21.9315 254.548 23.2365C255.367 23.6208 255.026 24.9693 254.207 25.6943C253.148 26.6368 247.776 26.5136 247.153 25.4551C246.674 24.6358 246.674 23.599 247.733 23.0988C248.885 22.5188 249.03 21.5835 248.987 20.4742C248.82 15.2252 248.624 9.97609 248.552 4.70526C248.552 3.6685 247.928 3.98025 247.472 3.98025C246 3.9295 245.326 3.13924 245.449 1.79072C245.572 0.492949 246.652 0.130444 247.74 0.0579428C249.354 -0.0361704 250.983 0.0576678 252.619 0.0362882C252.623 0.0362361 252.626 0.0329836 252.626 0.0289898V0.0289898ZM252.503 7.2428C252.597 10.3386 253.105 11.8684 254.018 11.8176C258.426 11.5276 261.53 9.67158 261.508 7.3878C261.486 5.16927 258.687 3.8715 254.62 3.77725C251.075 3.68358 252.915 6.17482 252.511 7.25179C252.509 7.25617 252.503 7.25473 252.503 7.25005V7.25005V7.2428Z" fill="#040000"/>
<path d="M69.0456 21.4259C69.0461 21.4248 69.0472 21.424 69.0485 21.424C71.5275 21.352 74.2742 22.0975 75.7891 19.0895C76.0283 18.582 76.6591 18.3645 77.3043 18.582C79.7114 19.423 78.7979 21.7141 79.1314 23.3018C79.4214 24.6721 78.1454 26.2381 76.7026 25.8321C70.8518 24.1501 65.1169 26.4339 59.3386 26.1004C58.1133 26.0279 56.8808 26.2236 56.6415 24.7519C56.4458 23.4758 57.2651 22.5333 58.5918 22.3666C59.9186 22.1708 60.1071 21.4966 60.0853 20.2496C59.9911 15.769 60.0853 11.2667 60.0853 6.7861C60.0853 5.96684 60.3029 4.90832 59.1936 4.59657C58.2076 4.30656 57.6493 3.82807 57.8233 2.7913C57.9901 1.68203 58.8818 1.29778 59.7736 0.862769C61.2454 0.137759 62.5939 1.15277 63.9859 1.15277C66.8497 1.13102 69.7425 1.15278 72.6063 1.08027C73.8098 1.05852 74.6508 1.48628 75.2091 2.47954C75.7166 3.3713 75.3541 4.19057 74.7741 4.88658C73.9548 5.85084 73.1138 5.56084 72.0045 5.15483C69.815 4.38632 67.379 4.74883 65.1677 5.13308C63.3841 5.44484 64.2759 7.46762 64.1599 8.79439C64.0367 10.1429 64.6167 10.4764 65.8202 10.3822C67.3645 10.2589 68.9015 10.2154 70.4167 10.2154C71.381 10.2154 72.5628 10.2662 72.6788 11.4914C72.802 12.6224 72.0045 13.4417 70.8953 13.7317C69.786 14.0217 68.7057 14.3335 67.524 14.261C62.9274 13.971 64.7037 17.5598 64.4209 19.7058C64.0149 22.6203 66.4437 21.0326 67.5965 21.4168C68.0302 21.5614 68.5577 21.4177 69.0351 21.4168C69.0374 21.4168 69.0392 21.4187 69.0392 21.421V21.4244C69.0392 21.4279 69.044 21.429 69.0456 21.4259V21.4259Z" fill="#040000"/>
<path d="M186.623 17.8352C186.622 17.8352 186.621 17.8343 186.621 17.8332C186.382 14.0058 186.07 10.1784 185.947 6.32202C185.802 1.8197 187.056 0.616186 191.559 0.90619C195.699 1.17444 199.983 0.956945 203.239 4.4225C206.733 8.17805 207.088 12.6079 206.226 17.2552C205.283 22.2143 201.723 24.382 197.054 24.9838C194.865 25.2738 192.646 25.223 190.435 25.3463C187.76 25.4913 186.15 24.5995 186.462 21.569C186.582 20.3771 186.468 19.1372 186.462 17.916C186.462 17.8593 186.508 17.8134 186.564 17.8134H186.602C186.605 17.8134 186.608 17.8146 186.61 17.8166L186.625 17.8315C186.626 17.8329 186.625 17.8352 186.623 17.8352V17.8352ZM193.27 4.49946C193.27 4.49738 193.268 4.496 193.266 4.49688C192.184 4.99896 190.167 3.58487 190.283 6.30027C190.478 10.8533 190.957 15.3992 190.478 19.974C190.428 20.554 190.188 21.1992 191.225 21.5182C193.176 22.1418 198.903 21.0107 200.157 19.4737C202.76 16.2257 202.999 12.6369 201.267 8.95381C199.701 5.60516 196.744 4.5753 193.273 4.50231C193.271 4.50227 193.27 4.50101 193.27 4.49946V4.49946Z" fill="#040000"/>
<path d="M168.16 16.2937C168.158 16.2953 168.155 16.2941 168.155 16.2918C168.155 11.9881 168.177 8.47356 168.155 4.959C168.155 3.61048 168.322 2.13872 169.794 2.06621C171.432 1.97196 171.867 3.48723 171.962 4.90825C172.368 10.5416 171.693 16.2039 172.491 21.8082C172.687 23.0843 172.201 24.121 170.925 24.527C169.598 24.933 168.496 24.527 167.72 23.3453C165.19 19.3722 162.065 15.8777 159.151 12.2236V12.2236C157.992 10.7616 155.632 11.5407 155.588 13.4055C155.54 15.4989 155.621 17.4718 155.881 19.4447C156.004 20.409 156.12 21.3442 155.613 22.236C155.156 23.0335 155.685 24.4545 153.931 24.4545C152.053 24.4545 151.959 23.1278 151.908 21.9532C151.69 16.3199 151.567 10.6866 151.451 5.02426C151.429 3.38573 152.394 2.27647 153.858 1.81971C155.569 1.29046 156.845 2.32722 157.81 3.55249C160.746 7.25729 163.588 11.0418 166.502 14.7974C166.768 15.1561 167.168 15.4155 168.153 16.3131C168.16 16.3196 168.172 16.3121 168.168 16.3032L168.164 16.2945C168.163 16.2928 168.161 16.2924 168.16 16.2937V16.2937Z" fill="#040000"/>
<path d="M108.03 25.7739C108.03 25.778 108.027 25.7812 108.023 25.7809C106.22 25.6581 104.417 25.6578 102.636 25.3754C100.708 25.0346 100.78 23.8601 101.723 22.4391C102.201 21.7141 103.985 21.4966 102.832 20.0321C101.65 18.5385 100.831 16.6608 99.0257 15.7907C98.3297 15.45 98.0179 16.4868 97.6264 16.9725C95.6254 19.5246 93.7259 22.1708 91.3623 24.4836C90.3763 25.4696 89.0278 26.3107 88.397 25.6364C87.5995 24.7446 87.1428 22.9901 88.542 21.7576C90.8041 19.8073 92.2976 17.1828 94.3204 15.015C95.6181 13.6157 95.9589 12.3687 94.5161 10.8752C92.6891 8.97565 91.5508 6.51786 89.5063 4.73434C88.397 3.77007 88.281 2.27656 90.4488 1.98655C92.5658 1.69655 94.8569 1.11653 95.2194 4.37183C95.2194 4.53858 95.3644 4.73434 95.4369 4.9011C97.8947 9.59916 98.5689 9.69341 101.723 5.5971C102.614 4.46608 103.383 3.24082 104.224 2.08081C105.21 0.710536 106.682 0.253776 107.929 1.26154C109.227 2.29831 108.168 3.52357 107.421 4.48784C105.783 6.60487 104.123 8.70015 102.368 10.7012C101.36 11.8322 101.425 12.6007 102.564 13.5432C105.768 16.2185 106.849 20.7933 110.778 22.8596C111.286 23.1279 111.547 23.7731 111.162 24.6141C110.437 26.1801 109.212 25.7959 108.009 25.7669H108.023C108.027 25.7669 108.03 25.77 108.03 25.7739V25.7739Z" fill="#040000"/>
<path d="M227.556 25.2303C218.739 25.281 218.696 25.281 219.414 14.9714C219.609 12.2018 219.921 9.45403 219.921 6.69174C219.921 5.36497 220.044 4.52396 218.304 4.54571C217.246 4.54571 216.521 3.72645 216.644 2.59543C216.738 1.41366 217.724 0.93516 218.718 0.978661C223.416 1.17441 228.085 0.210148 232.783 0.761156C234.11 0.927908 235.262 1.50792 235.096 3.11744C234.929 4.79946 233.602 4.46596 232.471 4.46596C230.354 4.46596 228.23 4.73421 226.142 4.5167C223.082 4.20495 223.923 6.53948 223.756 7.9605C223.539 9.52653 224.191 10.6793 226.214 10.3893C227.222 10.2443 228.36 10.266 229.346 10.5343C230.332 10.8243 231.173 11.4043 230.862 12.8471C230.572 14.1448 229.854 14.2899 228.817 14.2681C228.049 14.2464 227.302 14.1739 226.526 14.2464C225.395 14.3406 224.025 14.4131 223.662 15.7181C223.155 17.5017 223.756 19.3069 224.046 21.0904C224.068 21.2572 224.917 21.308 225.373 21.3805C227.251 21.6197 229.18 21.5472 231.028 21.6487C233.341 21.7937 234.762 21.7937 234.204 18.9009C234.037 17.9874 234.784 17.4581 235.502 17.2624C236.509 16.9724 237.068 17.6684 237.474 18.5167C238.945 21.6487 236.103 25.6943 232.493 25.5928C230.876 25.542 229.245 25.3535 227.628 25.2303H227.556Z" fill="#040000"/>
<path d="M140.442 23.9017C140.44 23.9029 140.438 23.9049 140.436 23.9073C140.076 24.5599 140.168 25.5641 139.235 25.7089C137.908 25.9046 136.733 25.4406 135.987 24.3386C135.624 23.8093 135.602 23.0626 135.407 22.4391C133.725 17.2407 132.586 16.639 127.243 17.6975C126.134 17.915 125.895 18.64 125.655 19.452C125.104 21.3516 123.756 22.7726 122.719 24.3386C122.139 25.2304 120.986 25.6871 119.928 24.9404C118.891 24.2154 118.869 23.2801 119.522 22.1708C122.675 16.9 123.973 10.8027 126.989 5.48107C127.685 4.25581 128.265 2.87829 129.208 1.84153C130.245 0.688763 131.687 0.398758 132.383 2.22578C135.059 9.16413 137.611 16.117 140.185 23.0771C140.278 23.3418 140.349 23.5995 140.449 23.885C140.451 23.8915 140.448 23.8986 140.442 23.9017V23.9017ZM130.068 8.97563C130.065 8.97563 130.063 8.97728 130.062 8.97968C129.625 10.4712 127.846 11.6017 128.86 13.2604C129.099 13.6447 131.006 13.6664 131.151 13.3547C131.919 11.7896 131.007 10.3911 130.072 8.97815C130.071 8.97658 130.069 8.97563 130.068 8.97563V8.97563Z" fill="#040000"/>
<path d="M18.2885 23.715C16.36 23.7875 16.0265 22.1489 15.519 20.8947C14.7939 19.1401 14.0037 17.8134 11.7634 18.7051C11.4226 18.8284 10.9949 18.7051 10.6106 18.7051C7.44959 18.5456 5.33981 19.9739 4.28129 22.99C3.84628 24.1935 3.00527 24.9402 1.635 24.5052C0.358983 24.121 -0.242774 23.1785 0.0907308 21.8589C0.619988 19.8362 1.14925 17.7626 1.87426 15.8123C3.46203 11.6 5.0788 7.38773 6.88408 3.26967C7.43509 2.0154 8.25435 0.550877 9.96538 0.572627C11.7199 0.572627 11.8939 2.25465 12.3942 3.41467C15.0187 9.35975 17.5707 15.3338 20.1735 21.3079C21.0145 23.2582 19.9053 23.6642 18.2957 23.715H18.2885ZM11.3066 11.6218C10.6897 10.0941 8.50416 10.0948 7.85249 11.608C7.74979 11.8465 7.64958 12.0822 7.55109 12.3178C6.87683 13.9346 7.45684 14.5073 9.18961 14.5581C12.1767 14.6306 12.4159 14.3623 11.3066 11.6218V11.6218Z" fill="#040000"/>
<path d="M32.3465 11.02C32.3465 8.54049 32.3247 6.03921 32.3465 3.55243C32.3465 2.29816 32.825 1.26139 34.3185 1.29039C35.812 1.29039 36.247 2.32715 36.247 3.62492C36.247 8.10549 36.3195 12.5788 36.1963 17.0594C36.1238 20.3582 36.8488 21.2499 40.3143 21.6849C42.8446 21.9967 45.2951 21.7792 47.5644 20.6047C48.4054 20.1697 48.913 19.6187 49.6597 20.6772C50.2397 21.4964 50.8415 22.2432 50.2397 23.28C49.5147 24.5052 48.4852 25.4477 47.0352 25.4477C43.0621 25.4695 39.0891 26.1945 35.116 25.281C33.8182 24.9692 32.9265 24.3892 32.854 23.0915C32.564 19.0967 32.013 15.1236 32.3465 11.078V11.0273V11.02Z" fill="#040000"/>
<path d="M66.3259 50.4199C66.3226 50.4182 66.3206 50.4146 66.3207 50.4109C66.5629 44.2963 71.2088 41.7462 76.4851 42.3478C77.5654 42.471 78.6746 43.0003 79.4504 43.9138C80.2914 44.8998 81.0164 45.9366 79.8854 47.1909C78.8776 48.3219 77.7684 48.0319 76.8766 47.1184C75.1656 45.4073 73.1428 46.2991 71.8958 47.1184C70.598 47.9594 69.9455 50.1054 70.4748 51.7874C71.0258 53.5927 72.715 54.2452 74.5928 54.3177C75.7456 54.3685 76.2313 53.5927 76.9491 52.9692C77.7684 52.2224 78.8994 51.3524 80.0087 52.3457C81.1179 53.3534 80.7047 54.4917 79.8637 55.6445C77.8409 58.4648 75.5571 59.0375 71.1708 57.6672C68.0302 56.6854 66.2987 54.0786 66.3559 50.4198C66.356 50.41 66.3425 50.4067 66.3387 50.4157V50.4157C66.3367 50.4204 66.3311 50.4225 66.3265 50.4202L66.3259 50.4199Z" fill="#040000"/>
</svg>
