<svg width="402" height="52" viewBox="0 0 402 52" fill="none" xmlns="http://www.w3.org/2000/svg">
<path d="M173.653 18.8262C173.65 18.8233 173.645 18.8254 173.645 18.8295C173.645 28.4089 173.673 36.567 173.645 44.7618C173.645 47.7821 172.47 49.9303 169.046 50.2883C165.19 50.6739 164.63 47.6812 164.593 45.4045C164.446 35.9671 164.74 26.4839 164.878 17.0465C164.878 16.0459 165.19 15.0544 165.126 14.0538C164.74 9.16985 163.703 3.82693 170.717 2.9089C178.162 1.90825 181.614 4.44201 183.119 12.7777C183.789 16.4865 185.616 19.6537 186.47 23.2157C186.534 23.4819 186.604 23.7472 186.677 24.0116C187.805 28.0721 191.271 27.7168 191.35 23.5034C191.351 23.4534 191.352 23.4033 191.354 23.3534C191.528 18.8642 190.968 14.3751 190.895 9.88591C190.821 6.14953 191.997 2.72528 196.311 2.72528C200.268 2.72528 201.012 5.53446 201.443 9.39018C202.802 21.2236 200.773 33.0111 201.37 44.771C201.516 47.3323 200.011 48.8379 197.514 49.6549C190.812 51.7939 185.038 48.8379 182.66 41.3192C180.338 34.0877 178.173 26.8287 173.687 18.8819C173.683 18.8763 173.68 18.8711 173.675 18.8666L173.661 18.8524C173.657 18.8482 173.654 18.8426 173.654 18.8367V18.8294C173.654 18.8282 173.654 18.827 173.653 18.8262V18.8262Z" fill="#040000"/>
<path d="M0 36.6647V10.7947C0 4.63472 2.35015 2.53244 8.55603 2.91801C12.6229 3.16588 16.5796 1.74294 20.775 2.34884C29.3586 3.56063 34.5271 13.2917 29.8268 20.7278C27.9356 23.7205 27.5041 25.575 30.4969 28.1087C34.1323 31.2025 35.1238 35.7008 33.352 40.0798C31.213 45.3493 27.0451 48.7368 21.4452 49.9762C18.4248 50.6463 15.3586 51.1512 12.2924 51.5093C4.5626 52.363 0.92721 49.0857 0.890489 41.3192V37.0916C0.890489 36.8457 0.691146 36.6464 0.445244 36.6464H0.0183505C0.00821577 36.6464 0 36.6546 0 36.6647V36.6647ZM10.3983 36.9892C10.4002 36.9932 10.4009 36.998 10.4004 37.0023C9.11908 47.934 16.2038 38.3819 18.9848 40.346C20.5179 41.4201 25.255 39.7034 24.7133 36.1047C23.8963 30.6884 19.0124 30.9087 14.7711 30.7159C9.96739 30.5417 9.45713 33.3153 10.3516 36.934C10.354 36.9439 10.3592 36.9532 10.3664 36.9604L10.3803 36.9743C10.382 36.9759 10.3842 36.9769 10.3866 36.9769V36.9769C10.39 36.9769 10.393 36.9788 10.3945 36.9818L10.3983 36.9892ZM9.80455 16.6006C9.80455 16.6041 9.80408 16.6077 9.80325 16.611C8.34645 22.4537 10.9808 22.4806 14.973 20.6268C17.6537 19.3783 21.4911 19.9107 22.4183 16.0275C22.8038 14.4209 23.0609 11.575 21.7022 11.3547C18.177 10.8957 14.514 9.50946 10.9062 11.1803C8.02586 12.5379 10.1134 14.9587 9.80529 16.5927C9.80479 16.5953 9.80455 16.598 9.80455 16.6006V16.6006Z" fill="#040000"/>
<path d="M323.75 31.0763C323.751 31.0748 323.752 31.0728 323.752 31.0706C324.358 24.8657 325.111 18.1377 325.037 11.3088C325.01 6.42491 332.941 1.26559 339.459 1.87149C343.838 2.30296 348.475 2.11935 352.349 5.32327C355.341 7.82031 355.589 10.6387 354.809 13.9436C354.423 15.6878 353.487 17.1842 351.669 17.3219C350.246 17.4229 349.135 16.6059 348.144 15.1462C346.115 12.1901 343.618 9.8308 339.276 11.1252C335.64 12.1993 334.364 13.8059 334.787 17.7901C335.429 23.9225 334.64 30.2661 335.503 36.3526C336.43 42.9074 342.553 39.7769 346.051 40.0615C349.402 40.3461 347.758 35.7467 348.438 33.3599C348.823 32.0012 346.804 32.3959 345.757 32.1481C343.334 31.6156 341.415 30.4405 341.516 27.6589C341.617 25.0517 343.223 23.8491 345.831 23.3166C354.91 21.4989 358.619 24.9507 357.021 33.975C356.92 34.5441 356.92 35.1225 356.948 35.6825C357.949 48.0483 352.633 50.3985 340.846 49.2234C328.015 47.9412 324.156 43.6531 323.819 31.1087C323.818 31.0755 323.777 31.0577 323.754 31.0813L323.744 31.0914C323.743 31.092 323.742 31.0923 323.741 31.0923V31.0923C323.739 31.0923 323.737 31.0888 323.739 31.0868L323.75 31.0763Z" fill="#040000"/>
<path d="M394.973 15.0164C394.973 15.015 394.975 15.0147 394.975 15.016C397.607 23.0661 397.398 33.4638 401.316 42.9441C402.39 45.4779 402.207 47.8281 400.71 49.7926C399.636 51.1513 397.929 52.3998 395.863 51.8215C393.302 51.0779 392.797 49.1133 392.411 46.6254C391.484 40.7133 380.578 36.9035 376.098 40.8235C375.428 41.4294 375.529 42.9258 375.171 43.9632C374.143 46.8458 372.564 49.2326 369.011 48.3054C365.513 47.4149 365.017 44.7435 365.945 41.6772C369.58 29.7062 373.206 17.7351 376.989 5.79152C378.017 2.5876 380.156 0.834158 383.837 2.69776C384.838 3.20267 386.013 3.36792 387.114 3.58824C394.273 4.87304 395.202 6.01107 394.991 15.0084C394.991 15.0134 394.987 15.0177 394.982 15.0177H394.974C394.973 15.0177 394.973 15.0171 394.973 15.0164V15.0164ZM385.456 12.5059C385.458 12.5074 385.456 12.5099 385.454 12.5093C385.174 12.4298 384.894 12.3226 384.614 12.2272C384.49 12.1851 384.358 12.2565 384.322 12.3821C382.717 17.8942 380.388 23.3207 379.899 28.9258C379.614 32.0655 384.094 30.3121 386.343 30.9547C388.308 31.4871 388.666 29.9908 388.372 28.3199C387.408 23.0509 386.454 17.8094 385.453 12.5404C385.453 12.5395 385.453 12.5386 385.453 12.5376V12.5073C385.453 12.5055 385.455 12.5046 385.456 12.5059V12.5059Z" fill="#040000"/>
<path d="M278.475 43.5799C278.475 43.5784 278.475 43.5768 278.476 43.5753C281.358 33.9551 284.249 24.2983 287.095 14.6872C287.738 12.5115 288.628 10.345 288.775 8.13252C289.234 2.18369 293.907 1.50435 298.075 0.751562C302.068 0.0354993 303.849 3.2486 305.024 6.4158C309.578 18.6715 310.973 31.6432 313.718 44.3212C314.25 46.7448 312.754 48.59 310.119 49.3795C307.163 50.2333 306.805 47.8189 305.492 46.2858C304.005 44.5415 304.822 41.154 302.399 40.6583C298.589 39.8688 294.522 39.4465 290.675 39.9147C287.995 40.2268 288.647 43.9081 287.582 45.9737C286.296 48.4707 284.561 50.0681 281.954 49.4254C279.211 48.7832 278.393 46.4083 278.456 43.6291C278.456 43.6255 278.458 43.6221 278.46 43.6196L278.479 43.6006C278.481 43.5989 278.48 43.596 278.478 43.596V43.596C278.476 43.596 278.475 43.5948 278.475 43.5933V43.5799ZM296.826 12.8963C296.826 12.893 296.821 12.8926 296.821 12.8959C295.647 18.5858 294.218 23.5632 293.76 28.6137C293.374 32.855 297.285 30.9363 299.388 31.4229C300.774 31.735 302.022 31.2485 301.38 29.3573C299.672 24.2992 300.278 18.626 296.827 12.8977C296.826 12.8973 296.826 12.8968 296.826 12.8963V12.8963Z" fill="#040000"/>
<path d="M75.8923 44.3934C75.8931 44.3941 75.8935 44.3951 75.8937 44.3962C76.3245 47.8926 74.8191 49.2051 72.8272 49.8109C70.6882 50.4535 68.9073 49.563 67.8699 47.5617C67.4384 46.7079 67.1263 45.744 66.906 44.7801C66.3001 42.3198 66.8325 38.5467 63.5919 38.4365C58.6804 38.2896 52.2267 36.2975 50.8405 44.3119C50.1978 48.0207 48.0956 50.683 44.2857 49.5079C40.1913 48.2594 41.0451 44.9545 42.1467 41.5303C45.929 30.1284 49.5277 18.653 52.8785 7.11337C54.3014 2.20192 58.506 1.94487 61.9578 1.66028C65.3086 1.37569 66.0247 5.03862 66.7315 7.7927C69.7518 19.6536 72.7171 31.5146 75.7099 43.3847C75.8841 44.0541 75.9576 44.7693 75.8845 44.4141C75.8844 44.4133 75.8843 44.4125 75.8843 44.4118V44.3967C75.8843 44.3925 75.8894 44.3904 75.8923 44.3934V44.3934ZM59.6352 16.2661C59.6352 16.2637 59.6316 16.2634 59.6311 16.2658C58.6327 20.6718 57.9542 23.7338 57.2483 26.7225C57.0372 27.613 55.9998 28.8247 57.2758 29.2562C58.5244 29.6877 60.0575 29.4031 61.4161 29.1552C62.3434 28.9808 62.5637 28.0077 62.3434 27.0897C61.5554 23.9562 60.7858 20.832 59.642 16.3206C59.6375 16.3029 59.6352 16.2844 59.6352 16.2661V16.2661V16.2661Z" fill="#040000"/>
<path d="M141.376 20.636C142.937 20.636 144.085 20.6084 145.232 20.636C147.94 20.7829 151.291 19.9933 151.86 23.9868C152.53 28.5861 148.656 28.6136 145.801 29.3756C144.195 29.8071 142.35 29.9815 140.743 29.6602C134.253 28.4117 133.05 31.2208 134.298 36.9677C134.831 39.4647 135.299 40.4654 137.934 39.988C140.569 39.5198 143.277 39.0975 145.957 39.171C149.161 39.2444 152.016 40.3828 151.833 44.3395C151.658 48.0759 148.978 47.9014 146.104 47.9749C140.908 48.1217 135.804 49.6549 130.535 49.1867C127.395 48.9021 124.512 47.727 124.402 44.4864C124.016 32.5153 123.732 20.5074 124.117 8.57307C124.292 2.66096 129.148 -0.506238 135.161 0.595396C138.971 1.26556 142.68 1.26556 146.453 0.980966C149.198 0.76982 151.649 1.26556 151.869 4.68981C152.081 7.82947 149.446 8.60979 147.316 9.00454C144.176 9.61044 140.945 10.0327 137.622 9.537C134.629 9.07799 133.279 10.1796 133.454 13.7048C133.765 19.3965 135.267 22.8921 141.401 20.6653C141.407 20.6632 141.406 20.6543 141.4 20.6543V20.6543C141.397 20.6543 141.395 20.6519 141.395 20.6488V20.6451C141.395 20.6401 141.391 20.636 141.386 20.636H141.376Z" fill="#040000"/>
<path d="M223.299 27.8321C223.292 27.8285 223.283 27.8338 223.283 27.8421C223.283 29.6814 223.356 31.5389 223.283 33.3782C223.136 37.1605 224.743 40.2267 228.378 40.6857C231.371 41.0713 235.107 41.6129 236.934 37.3349C237.898 35.0582 240.211 34.4156 242.708 35.7008C245.27 37.0595 245.876 38.9415 244.847 41.6129C241.754 49.4529 235.768 50.169 227.286 50.4535C221.3 50.628 215.562 44.5782 214.396 38.1611C212.909 29.9264 213.726 21.6274 214.25 13.3927C214.681 7.15931 223.733 2.2754 228.534 1.96327C234.088 1.5777 239.725 1.86228 243.14 7.37963C244.746 9.98683 244.746 12.6491 242.828 15.2563C241.579 16.9363 240.221 17.6799 238.091 16.8904C237.017 16.5048 236.172 16.4314 235.814 14.9258C235.098 11.9055 232.252 11.1436 229.828 11.575C227.148 12.0799 224.559 13.255 224.027 16.817C223.458 20.4866 223.1 24.1196 223.31 27.8258C223.31 27.8299 223.307 27.8333 223.303 27.8333V27.8333C223.302 27.8333 223.301 27.8331 223.3 27.8326L223.299 27.8321Z" fill="#040000"/>
<path d="M89.4343 36.5178C89.7465 27.8976 87.5891 19.3415 88.6907 10.6478C89.0029 8.26092 89.3334 6.04847 90.0127 3.69832C90.8022 0.953416 92.4363 0.38424 94.6855 0.558665C97.0356 0.73309 98.3576 2.33963 98.2474 4.57962C97.7425 14.9809 98.4953 25.3546 98.8533 35.7467C98.9543 39.125 98.9268 41.4752 103.48 40.8785C106.363 40.4929 109.392 41.31 112.348 41.4109C114.956 41.5119 116.415 43.4398 116.489 45.3309C116.562 47.323 114.882 49.5263 112.422 49.3519C106.969 48.9204 101.69 50.2791 96.3196 50.2424C91.0776 50.2424 88.6265 47.2496 89.012 42.0077C89.1585 40.1683 89.2593 38.3471 89.3963 36.4988C89.397 36.4888 89.4053 36.4811 89.4153 36.4811H89.416C89.4261 36.4811 89.4343 36.4893 89.4343 36.4995V36.4995V36.5178Z" fill="#040000"/>
<path d="M256.91 32.4235C256.91 24.3999 256.837 16.3488 256.938 8.34358C256.965 5.66293 257.938 3.24852 261.005 2.75279C264.356 2.22033 265.2 4.64392 265.42 7.13177C266.522 19.9934 267.339 32.8549 266.954 45.7532C266.88 48.2136 265.319 50.4903 262.813 50.3526C260.004 50.2057 257.782 48.1034 257.645 45.0831C257.403 40.9982 257.562 36.8697 257.571 32.7402C257.571 32.5551 257.421 32.4051 257.236 32.4051H256.915C256.907 32.4051 256.901 32.4113 256.901 32.4189V32.4281C256.901 32.4306 256.903 32.4326 256.906 32.4326V32.4326C256.908 32.4326 256.91 32.4306 256.91 32.4281V32.4235Z" fill="#040000"/>
</svg>
