<svg width="470" height="49" viewBox="0 0 470 49" fill="none" xmlns="http://www.w3.org/2000/svg">
<path d="M0.335655 32.2065C0.321453 32.1923 0.312633 32.1736 0.310748 32.1536C-0.466785 23.9049 2.59735 15.5677 0.147177 7.31917C-0.474458 5.19895 0.979725 4.57732 2.51161 4.45521C6.90746 4.12219 11.3921 3.62267 15.7991 3.91129C23.1033 4.41082 27.1328 12.5476 23.6916 19.5188C22.9812 20.9285 21.7823 21.8832 24.0246 22.9266C29.253 25.2911 30.2521 29.8645 29.586 34.882C28.92 40.1992 25.3123 43.1853 20.6611 45.1834C16.3874 47.015 11.8139 47.7587 7.29598 48.6246C4.02129 49.2462 1.77897 47.9141 1.40155 44.5173C0.903316 40.454 0.692202 36.3133 0.360675 32.2606C0.359005 32.2402 0.350137 32.221 0.335655 32.2065ZM13.2237 27.0006C11.1923 27.2892 7.07396 26.5455 8.32833 30.5306C9.32739 33.8053 5.70859 39.3334 11.1923 40.2436C17.2088 41.2427 22.7369 36.9689 22.9035 32.8173C23.07 28.9099 20.1172 27.0894 13.2681 27.0006H13.2237ZM8.65025 15.2894C9.02767 16.9878 7.19607 19.7741 10.5596 20.1848C13.4235 20.5178 18.6519 16.3662 18.4521 14.0017C18.2079 10.8825 15.7991 10.3496 13.1793 9.97222C8.86116 9.39499 8.15072 11.6706 8.65025 15.2894Z" fill="#010101"/>
<path d="M365.244 30.0365C365.246 30.0329 365.247 30.0289 365.247 30.0249C365.247 22.8448 365.369 15.7091 365.202 8.52909C365.158 5.99815 365.124 3.46721 368.111 3.334C370.93 3.2119 371.385 5.95375 371.385 8.02956C371.463 20.0293 371.385 32.0291 371.385 44.0289C371.385 46.1047 370.508 47.7254 368.432 47.9363C366.645 48.1028 365.569 47.2703 364.447 45.2832C359.849 37.1945 354.739 29.4145 349.774 21.5679C349.582 21.264 349.234 21.0928 348.877 21.1378C348.384 21.2001 348.007 21.6203 348.008 22.1173C348.011 29.2954 348.05 36.4739 348.007 43.6626C348.007 45.7384 348.007 48.5246 345.099 48.6023C342.068 48.6467 340.825 46.2823 340.903 43.5404C341.314 31.1632 342.402 18.7972 341.813 6.38668C341.735 4.88809 342.435 3.73362 343.889 3.40061C345.843 2.90108 347.375 3.56712 348.585 5.26552C352.237 10.3718 354.901 16.0553 357.842 21.5834C359.487 24.6791 361.569 27.3896 363.695 30.0779C363.823 30.2407 364.031 30.3196 364.236 30.2899C364.558 30.2434 364.886 30.204 365.235 30.1446C365.268 30.1389 365.281 30.0982 365.257 30.0744L365.249 30.0664C365.241 30.0585 365.239 30.0465 365.244 30.0365Z" fill="#010101"/>
<path d="M33.9433 22.7267C33.9402 22.7267 33.9379 22.7239 33.9384 22.7209C35.4709 12.5556 39.4235 4.90987 51.7873 3.13411C59.924 1.96855 69.6371 9.52807 73.4224 17.9978C79.1947 30.8302 66.2403 47.4367 53.9963 48.347C49.5561 48.68 45.4044 48.2692 41.9188 44.4839C36.525 38.5906 33.5279 31.9428 33.9483 22.732C33.9485 22.7292 33.9462 22.7267 33.9433 22.7267ZM41.5303 25.1689C41.5303 26.5009 41.3638 27.8663 41.5303 29.154C42.6071 36.214 47.5912 42.9742 53.8631 42.1528C59.4689 41.409 66.5289 33.4721 67.6501 26.6674C68.4826 21.6389 64.1645 14.59 58.6364 12.0146C49.9224 7.94068 45.1047 10.1497 42.1075 19.3632C41.4859 21.3613 41.4859 23.2262 41.5303 25.2132V25.1689Z" fill="#010101"/>
<path d="M170.527 27.3668C170.529 27.3668 170.531 27.3653 170.531 27.3635C170.576 10.3488 179.334 4.74354 191.866 1.95747C196.928 0.836306 202.867 2.00188 206.73 6.85285C208.184 8.68445 209.849 10.838 207.806 13.0359C205.808 15.2338 203.943 13.2468 202.156 12.1256C194.763 7.43008 187.381 9.26169 181.975 14.701C177.413 19.3078 177.324 27.611 181.431 33.4721C185.872 39.7884 196.961 39.5331 201.235 33.1391C202.067 31.8958 201.612 30.9856 201.157 29.9421C200.413 28.2437 200.491 26.29 202.034 25.5463C204.032 24.5472 206.352 24.0144 208.717 25.1689C210.748 26.1679 211.126 27.5777 210.837 29.6091C210.004 35.881 205.564 39.3666 200.702 42.3082C193.687 46.5487 186.46 46.6264 179.367 42.2638C173.151 38.4524 171.071 32.4515 170.567 27.3514C170.566 27.3398 170.551 27.3349 170.543 27.3431L170.525 27.3612C170.523 27.3633 170.524 27.3668 170.527 27.3668Z" fill="#010101"/>
<path d="M156.334 46.1394C156.333 46.1385 156.332 46.1379 156.331 46.1378C152.18 45.7607 148.151 46.2159 144.167 47.6365C141.969 48.4247 139.305 47.8807 137.728 46.138C135.775 43.9844 137.972 42.5302 139.227 40.743C140.137 39.411 140.182 37.213 140.015 35.4702C139.438 28.4102 139.893 21.3947 140.426 14.3347C140.592 12.381 140.548 10.516 139.349 8.65113C137.229 5.37645 139.138 3.83347 142.302 3.30064C148.696 2.22388 155.09 3.17853 161.484 3.46714C164.436 3.58925 164.603 5.99809 164.847 7.61878C165.136 9.31718 162.849 9.739 161.528 9.7723C158.253 9.89441 154.968 9.36157 151.693 9.60578C147.785 9.8944 146.664 12.9249 147.086 19.6963C147.375 24.303 150.694 22.0163 152.603 22.1495C155.511 22.316 158.453 21.1948 161.484 21.9053C163.515 22.3604 164.892 23.2374 164.436 25.6018C164.059 27.5555 163.393 28.8765 160.906 28.7988C157.465 28.6767 153.969 29.1762 150.527 29.043C146.498 28.9209 146.92 31.5739 147.042 34.0272C147.164 36.5137 146.376 39.633 150.783 39.3776C154.723 39.1667 158.675 39.422 162.616 39.3776C165.025 39.3332 166.934 39.8328 167.178 42.6523C167.422 45.5607 165.147 45.8049 163.238 46.0602C160.955 46.304 158.64 46.1054 156.357 46.1046C156.35 46.1046 156.344 46.1105 156.344 46.1176V46.1354C156.344 46.1404 156.338 46.143 156.334 46.1394Z" fill="#010101"/>
<path d="M396.095 40.1437C396.095 40.1498 396.1 40.1548 396.106 40.1548H402.034C404.521 40.1548 404.987 42.2306 405.309 43.8513C405.642 45.5164 404.021 46.6709 402.567 46.7597C395.507 47.2592 388.447 47.6366 381.354 47.8031C379.522 47.8475 377.369 46.7264 377.912 44.5617C380.443 34.3936 378.989 24.181 378.867 13.9684C378.867 13.1359 378.701 12.3033 378.656 11.5152C378.157 1.96866 378.823 1.34703 388.325 1.51354C391.766 1.55795 395.263 1.05842 398.704 0.803104C400.902 0.636595 402.733 1.09171 403.189 3.58935C403.732 6.49772 401.49 6.78633 399.536 7.07495C395.796 7.61888 392.066 8.31822 388.325 8.36262C386.005 8.36262 385.339 9.15076 385.539 11.1822C385.783 13.8019 386.083 16.4106 386.371 18.9859C386.615 21.4391 388.525 21.1394 390.145 21.0617C392.932 20.8952 395.707 20.4845 398.537 20.3513C400.28 20.2736 401.568 20.8952 402.023 23.0043C402.523 25.3688 400.946 25.9127 399.492 26.5343C396.75 27.7332 393.764 27.489 390.856 27.4446C385.294 27.4002 386.371 31.4297 386.293 34.7488C386.216 38.0235 386.704 40.7653 391.155 40.1881C392.761 39.9791 394.444 40.1843 396.051 40.188C396.075 40.1881 396.095 40.1682 396.095 40.1437Z" fill="#010101"/>
<path d="M320.822 2.16839C323.475 2.16839 326.139 2.37931 328.748 2.09069C331.234 1.80208 332.156 3.54486 332.566 5.07674C333.022 6.74184 331.445 7.69651 329.869 8.31814C326.628 9.60581 323.308 9.15068 320.067 8.93977C317.081 8.72886 316.326 9.89443 316.326 12.5142C316.326 21.7277 316.248 21.7277 325.462 20.4844C326.128 20.4067 326.794 20.4067 327.46 20.3179C329.658 19.9849 331.778 20.5288 332.233 22.7711C332.777 25.4242 330.535 26.5454 328.37 27.0449C325.462 27.7109 322.52 28.5435 319.612 28.5768C316.826 28.5768 316.415 29.8644 316.337 32.1068C315.96 39.411 315.927 39.3777 323.397 38.8782C325.018 38.756 326.672 39.1224 328.293 39.2556C330.946 39.4665 333.643 40.299 333.488 43.3628C333.332 46.4266 330.08 46.3932 328.004 46.3488C323.231 46.3488 318.535 46.3045 313.762 46.6375C308.733 46.9705 307.612 45.0168 308.278 40.077C309.566 30.2752 309.155 20.3956 309.188 10.5161C309.188 9.93883 308.733 9.31718 308.4 8.77325C306.202 5.07675 307.068 3.12304 311.431 2.75672C314.46 2.51953 317.521 2.7012 320.583 2.71184C320.733 2.71237 320.855 2.59056 320.855 2.44036V2.21277C320.855 2.18826 320.835 2.16839 320.811 2.16839H320.822Z" fill="#010101"/>
<path d="M440.564 45.7301C440.564 45.7285 440.563 45.7271 440.562 45.7267C438.032 45.1051 435.869 44.1944 436.912 41.0762C440.942 29.0764 445.093 17.1655 449.156 5.16568C449.733 3.42288 450.821 2.25732 452.764 2.37943C454.673 2.50153 455.506 3.7892 456.127 5.4987C459.99 15.9666 464.808 26.0904 468.127 36.8025C468.793 38.956 469.459 41.165 469.87 43.4073C470.325 45.9827 468.371 46.7264 466.429 47.3924C464.309 48.1029 463.309 46.9817 462.821 45.1501C462.577 44.1955 462.488 43.2408 462.322 42.2418C461.533 36.3917 460.035 35.1041 454.063 34.8931C453.064 34.8931 452.031 34.8932 451.11 34.6045C447.458 33.4834 445.504 34.7266 444.927 38.5897C444.638 40.3325 443.806 42.0309 443.062 43.6959C442.608 44.7368 441.867 45.6893 440.618 45.694C440.612 45.694 440.606 45.6964 440.602 45.7006L440.57 45.7325C440.568 45.7347 440.564 45.7332 440.564 45.7301ZM452.432 17.4541C452.437 17.4541 452.44 17.459 452.438 17.4635C451.363 20.1129 450.409 22.5633 449.456 25.0136C448.79 26.712 449.123 28.0885 451.199 28.1329C452.986 28.1773 455.228 28.4659 456.472 27.5889C457.715 26.6787 456.594 24.4697 455.972 23.0599C455.143 21.2019 455.305 18.6828 452.43 17.4676C452.423 17.4647 452.424 17.4541 452.432 17.4541Z" fill="#010101"/>
<path d="M246.709 43.3184C246.712 43.3184 246.714 43.3206 246.715 43.3236C246.791 44.1113 246.5 45.1841 245.182 45.5607C243.939 45.8937 242.529 46.3044 241.441 45.2721C240.531 44.3618 239.41 43.3628 239.033 42.1972C237.201 36.3805 233.682 34.227 227.41 34.4712C223.969 34.5933 222.593 35.2149 221.893 38.2898C221.516 39.9105 220.983 41.4424 220.395 43.0187C219.651 45.0501 218.319 46.7929 215.954 45.7605C214.123 44.9724 213.09 43.3517 213.923 40.8985C216.165 34.1715 218.03 27.3224 220.395 20.6398C221.926 16.3217 223.669 12.0479 224.79 7.60768C225.368 5.28765 226.367 3.04533 229.064 2.87882C231.928 2.71231 233.094 5.03235 233.627 7.36348C235.747 16.3772 238.777 25.0468 242.341 33.5609C243.673 36.7579 246.581 39.1668 246.703 43.3628V43.3242C246.703 43.321 246.706 43.3184 246.709 43.3184ZM229.144 19.8721C229.145 19.8711 229.143 19.8698 229.142 19.8706C227.532 21.0359 227.365 22.73 226.866 24.1809C226.533 25.2577 225.035 26.7119 226.866 27.5444C228.11 28.1216 229.852 28.3325 231.14 27.9218C233.094 27.3002 231.517 25.7239 231.384 24.6027C231.174 22.8619 230.553 21.2429 229.191 19.8785C229.188 19.8755 229.184 19.8739 229.18 19.8739H229.144C229.143 19.8739 229.143 19.8727 229.144 19.8721Z" fill="#010101"/>
<path d="M285.662 32.1089C285.665 32.1075 285.667 32.1051 285.668 32.1022C289.197 22.8463 292.105 14.9994 295.135 7.15256C295.59 5.95369 296.301 4.74372 297.166 3.83347C298.077 2.95652 299.32 2.13507 300.774 2.87882C302.306 3.62256 302.684 4.91023 302.561 6.57532C302.395 9.02856 300.819 10.8158 299.986 12.9693C296.212 22.9376 292.427 32.9393 289.563 43.2407C289.152 44.7726 288.364 46.0602 286.61 46.149C284.578 46.2711 283.08 45.2388 282.369 43.3628C279.217 34.9374 276.02 26.4676 272.989 17.9979C272.035 15.3448 271.036 12.7695 269.792 10.2385C268.627 7.8297 268.005 4.79922 271.324 3.46715C274.765 2.10177 275.232 5.13225 276.264 7.37457C279.838 14.9662 282.247 22.9796 285.642 32.0693C285.644 32.072 285.644 32.075 285.644 32.0779V32.0978C285.644 32.107 285.654 32.113 285.662 32.1089Z" fill="#010101"/>
<path d="M426.899 26.2901C426.899 31.2299 426.944 36.1696 426.899 41.1094C426.855 43.7625 426.111 46.3822 422.792 45.9715C419.762 45.6385 419.307 43.4405 419.384 40.4878C419.762 31.5629 419.595 22.638 419.839 13.7131C419.962 9.80567 418.174 8.93982 414.689 9.27284C411.825 9.51706 407.385 11.1378 407.007 6.65311C406.63 2.04636 411.492 3.41172 414.189 2.79008C420.505 1.38031 426.977 1.79103 433.371 1.42471C436.069 1.2582 439.021 2.04635 438.977 5.57635C438.977 9.48377 435.946 9.18404 433.205 8.98423C426.566 8.48471 426.433 8.60682 426.855 15.4226C426.933 17.2542 427.099 19.0303 427.144 20.8619C427.187 22.6528 427.146 24.3906 427.144 26.1791C427.144 26.2465 427.089 26.3012 427.022 26.3012H426.911C426.904 26.3012 426.899 26.2962 426.899 26.2901Z" fill="#010101"/>
<path d="M84.301 2.74573C84.301 2.75217 84.3056 2.75771 84.3119 2.75893C89.8698 3.83223 95.5163 2.8016 101.118 3.37845C102.861 3.54496 104.104 3.71148 104.56 5.95381C105.104 8.60685 102.695 8.10733 101.818 9.19519C101.574 9.5282 100.863 9.65031 100.408 9.6059C93.4368 8.77336 93.3924 13.4245 93.4368 18.2866C93.4368 25.4243 93.3147 32.5287 93.3591 39.6664C93.3591 42.4526 93.5256 45.5164 90.1177 45.9382C86.2991 46.349 86.2547 42.6969 86.0438 40.288C85.3333 31.5296 85.4665 22.7268 86.8763 14.0906C87.4203 10.7271 86.8763 9.4394 83.3907 9.93893C81.9365 10.1498 80.438 10.061 78.9505 10.0166C77.0412 10.0166 75.0098 9.56151 74.7544 7.4857C74.4658 5.24337 76.1198 3.87799 78.3622 3.54497C80.2871 3.26061 82.2443 3.05168 84.2127 2.84386C84.2629 2.83856 84.301 2.79621 84.301 2.74573Z" fill="#010101"/>
<path d="M120.334 3.68666C120.334 3.69931 120.345 3.70877 120.357 3.70595C121.983 3.334 124.955 3.3362 127.893 3.78912C129.891 4.12214 132.544 4.45516 132.289 7.36352C132.045 9.89446 129.669 11.06 127.56 10.5605C124.696 9.89445 124.53 11.1044 124.408 13.2579C123.864 21.8498 122.909 30.4084 123.497 39.0447C123.542 39.8772 123.42 40.7098 123.253 41.5312C122.842 43.9845 122.421 46.8817 119.179 46.6819C115.571 46.471 116.06 43.4405 116.193 40.9984C116.648 32.7729 115.949 24.514 117.436 16.3328C118.18 12.0591 117.059 9.65024 112.041 10.1831C109.799 10.4273 106.813 10.3496 106.724 7.197C106.647 3.87792 109.422 3.58931 112.075 3.66701C114.391 3.74458 116.673 3.66729 120.314 3.66701C120.325 3.66701 120.334 3.67581 120.334 3.68666Z" fill="#010101"/>
</svg>
