<svg width="295" height="51" viewBox="0 0 295 51" fill="none" xmlns="http://www.w3.org/2000/svg">
<path d="M235.306 27.9178C235.312 27.9068 235.328 27.911 235.328 27.9233C235.269 33.7072 234.128 38.6593 234.622 43.7255C234.728 44.7152 234.958 45.3956 235.611 46.1997C237.069 47.914 236.292 49.8404 233.968 50.2115C232.148 50.4943 230.301 50.3971 228.427 50.6798C226.475 50.9891 225.282 48.833 226.607 47.322C228.277 45.4221 227.959 43.4428 227.933 41.2867C227.853 33.3957 227.933 25.4871 227.853 17.6049C227.853 15.2103 227.667 12.8421 227.491 10.4474C227.438 9.84652 227.252 9.20146 226.996 8.6536C225.326 5.11017 225.379 5.26923 229.231 3.78471C237.379 0.638928 244.563 2.68898 251.358 7.47834C254.009 9.35167 253.779 12.4798 254.248 15.1042C254.583 16.9775 254.115 19.1425 253.443 21.166C252.268 24.7801 249.926 26.2647 246.392 26.6623C243.246 26.9981 243.193 27.2632 244.907 29.8081C248.292 34.783 252.401 39.1482 256.024 43.9376C256.077 44.0012 256.137 44.0592 256.198 44.1161C256.382 44.2857 256.528 44.4882 256.67 44.6938C257.603 46.0451 259.142 47.3961 258.109 49.0362C256.996 50.8035 254.698 50.777 252.692 50.6798C251.888 50.6268 250.898 50.3971 250.819 49.3809C250.377 44.565 246.683 41.5959 244.05 38.1586C241.525 34.8557 239.184 31.2615 235.309 27.9319C235.305 27.9284 235.304 27.9226 235.306 27.9178V27.9178ZM238.66 7.67275C237.67 7.72577 235.461 7.01885 235.558 9.05123C235.797 13.602 234.984 18.0821 235.17 22.6152C235.17 23.2426 235.17 23.9407 236.053 23.9672C238.757 24.0732 241.496 23.9672 243.706 22.1469C246.595 19.8052 247.664 15.3516 246.516 11.7375C245.314 7.96436 242.195 7.80529 238.678 7.67275H238.651H238.66Z" fill="#010101"/>
<path d="M20.9295 24.0114C20.9295 24.0165 20.9333 24.0207 20.9383 24.0214C22.8864 24.2617 24.2097 25.1975 25.4626 26.521C29.2358 30.5327 31.657 34.8538 30.0664 40.6505C29.0237 44.4767 23.121 48.9568 17.8633 49.3191C13.6483 49.6283 9.43327 49.6814 5.20944 49.6814C2.24039 49.6814 1.62183 48.4354 2.03714 45.4399C2.2934 43.54 1.79856 41.5341 1.79856 39.5813C1.79856 31.5666 1.95762 23.5519 1.93111 15.5549C1.93111 13.2928 1.5158 11.0749 0.605641 8.91876C-1.01143 5.14559 0.685167 3.1132 4.79412 3.03367C6.97673 2.98065 9.16818 2.20304 11.4038 2.20304C16.582 2.15002 21.2388 3.24575 24.2874 8.0086C26.8146 11.9938 27.389 19.3016 22.308 22.8185C21.8201 23.1496 21.4096 23.6094 20.9493 24.0203C20.9416 24.0272 20.9295 24.0217 20.9295 24.0114V24.0114V24.0114ZM8.67333 39.6697C8.39056 44.8213 8.39057 44.8743 12.4995 44.5916C13.931 44.4855 15.389 44.2823 16.794 43.9642C21.0886 43.001 23.6423 39.9524 23.5893 35.976C23.5098 31.0806 21.716 28.898 16.8206 27.8553C15.4156 27.546 13.984 27.2279 12.5525 27.1307C9.55698 26.8921 9.11516 27.2898 8.80588 30.2323C8.41876 33.7076 8.59228 37.2267 8.69846 39.6731C8.69895 39.6846 8.68511 39.6903 8.67701 39.6822V39.6822C8.67465 39.6798 8.67333 39.6766 8.67333 39.6733V39.6697ZM9.16815 14.1588C9.16818 14.2027 9.13257 14.2383 9.08865 14.2383V14.2383C9.04473 14.2383 9.00912 14.2739 9.00915 14.3178C9.01054 16.2442 9.06142 18.1705 9.00912 20.0969C8.92959 21.8907 10.0783 22.253 11.3773 21.9702C13.6659 21.4489 15.9811 20.8215 18.146 19.9378C19.7896 19.2574 20.8765 17.9054 21.1946 15.9791C22.0782 10.6684 19.0385 6.94822 13.0209 6.61244C8.5938 6.37385 9.27421 5.88784 9.16818 9.89076C9.14215 11.3223 9.16723 12.7282 9.16815 14.1588Z" fill="#010101"/>
<path d="M188.319 7.17094C188.319 7.16549 188.314 7.16145 188.308 7.16268C186.747 7.52408 185.093 7.86281 184.749 5.88782C184.439 4.09402 185.606 3.02482 187.276 2.55648C194.248 0.656644 201.229 -0.439078 208.024 3.02482C212.734 5.44601 216.586 14.9717 213.176 20.6447C212.318 22.0497 211.691 23.6138 210.807 25.0188C210.339 25.7964 209.632 26.6624 208.651 26.6624C205.532 26.6624 206.071 28.4296 207.193 29.9937C210.056 34.0585 212.265 38.5032 215.208 42.515C216.224 43.8935 217.444 44.8036 218.875 45.6166C220.05 46.297 220.908 47.4369 220.545 48.6651C220.13 50.1232 218.619 49.5488 217.426 49.7344C211.859 50.5385 210.109 46.0937 208.006 42.6829C206.734 40.5975 205.532 38.4414 204.127 36.4355C202.59 34.2529 200.902 32.141 199.62 29.8258C198.551 27.8994 196.987 28.3413 195.582 28.5799C194.098 28.8185 194.46 30.4267 194.38 31.3899C194.142 34.8538 194.098 38.3176 194.045 41.7727C194.018 43.3102 194.283 44.7152 195.087 46.1733C196.855 49.3721 195.971 50.6268 192.304 50.6799C191.084 50.6799 189.83 50.8124 188.61 50.8654C186.763 50.9449 185.88 49.7432 186.604 48.3117C188.195 45.2631 187.877 41.9848 187.93 38.8655C188.062 28.4446 188.838 18.05 188.4 7.18043C188.399 7.16001 188.376 7.1483 188.359 7.15964L188.332 7.178C188.326 7.18175 188.319 7.17771 188.319 7.17094V7.17094ZM195.194 19.5127C195.193 19.7604 195.175 20.0104 195.138 20.2553C194.44 24.8561 194.446 23.9507 198.657 23.9937C199.285 23.9937 199.903 23.9937 200.531 23.9407C204.171 23.6049 207.794 21.0247 208.103 18.1352C208.316 16.2353 207.944 14.2295 207.609 12.3296C206.805 7.72581 204.64 5.92318 199.93 5.79946C198.993 5.77296 198.056 5.9055 197.12 5.82597C195.556 5.69343 195.167 6.42684 195.193 7.83184C195.245 11.7204 195.197 15.6006 195.194 19.5127Z" fill="#010101"/>
<path d="M77.1206 15.9525C77.1206 14.6005 77.1736 13.2485 77.1206 11.8877C77.0146 9.88181 77.1206 7.90244 74.6199 6.88625C72.9763 6.20584 73.2149 4.04974 74.9027 3.47537C82.8643 0.744902 90.8613 0.0910035 98.0189 5.24266C101.218 7.55782 103.171 11.2073 103.224 15.6255C103.277 21.1395 100.467 24.6034 95.8097 26.7418C94.069 27.5459 94.2192 28.2528 94.9526 29.4457C97.4003 33.378 99.8745 37.2837 102.269 41.2601C103.338 43.0274 105.026 43.911 106.696 44.9802C107.633 45.5811 109.17 46.076 108.543 47.7637C108.022 49.1687 106.979 49.6901 105.441 49.8226C101.456 50.1054 99.6359 48.992 97.5328 45.0863C94.7229 39.8551 91.6212 34.7565 88.1662 29.9141C86.7877 27.9877 84.9409 29.5783 83.3503 29.2602C82.6964 29.1276 82.8555 30.8242 83.0145 31.6814C83.5624 35.1718 83.4563 38.6798 83.5094 42.1968C83.5094 43.6283 83.2973 45.0333 84.3665 46.2792C84.9939 47.0303 84.7553 48.4176 84.1809 48.4618C81.5035 48.7446 79.3651 51.4574 76.3165 50.1319C74.6994 49.425 74.0544 48.2586 75.3268 47.0833C76.8113 45.7314 76.7848 44.2203 76.7053 42.5767C76.317 33.6892 76.7837 24.7928 77.1458 15.9317C77.1463 15.9202 77.1324 15.9141 77.1243 15.9223V15.9223C77.1219 15.9246 77.1206 15.9278 77.1206 15.9312V15.9525ZM83.7656 14.3619V14.3619C83.6614 14.3619 83.5752 14.4431 83.5684 14.5471C83.4845 15.8131 83.3246 17.1014 83.3415 18.3736C83.368 20.3265 82.122 22.7212 83.2354 24.0997C84.5344 25.7433 86.8761 23.9936 88.7759 23.9936C89.8186 23.9936 90.8348 23.9406 91.851 23.6579C93.8569 23.0835 95.0763 21.8906 95.2619 19.7786C95.4474 17.7197 95.7302 15.6432 95.7037 13.5843C95.6242 9.73159 94.3782 7.77873 91.6919 7.13367C89.8716 6.69184 88.0248 6.50627 86.1957 6.06445C84.5256 5.64913 83.854 6.42675 83.801 7.91128C83.7219 10.055 83.8001 12.2075 83.801 14.3774C83.801 14.3912 83.7842 14.3982 83.7745 14.3884L83.7605 14.3744C83.7558 14.3698 83.7591 14.3619 83.7656 14.3619V14.3619Z" fill="#010101"/>
<path d="M125.483 50.2557C125.465 50.2557 125.447 50.2543 125.43 50.2514C122.761 49.818 120.11 50.4414 117.441 50.4678C116.222 50.4678 114.994 50.3883 114.393 49.3986C113.712 48.2764 114.446 47.216 115.462 46.4826C116.894 45.4399 116.531 43.8051 116.531 42.4708C116.452 31.9819 116.195 21.4931 116.036 11.0042C116.036 9.51964 115.957 8.35322 114.419 7.33703C112.776 6.2148 113.094 4.58006 115.047 3.7671C120.516 1.50497 126.216 0.409246 131.969 2.44163C138.87 4.86282 141.185 8.35322 140.893 15.6875C140.814 18.0026 140.063 20.4238 138.34 22.1381C136.652 23.8524 136.908 24.6918 138.781 26.0703C145.002 30.6741 145.806 40.8007 140.186 46.191C137.553 48.7182 133.807 49.7786 130.113 50.2292C128.575 50.4148 127.011 50.2557 125.483 50.2557V50.2557ZM122.363 36.4355V36.4355C122.319 36.4355 122.284 36.4711 122.284 36.5151C122.283 38.9887 122.258 41.4369 122.284 43.9023C122.284 44.6534 122.045 45.8287 123.273 45.8287C127.877 45.8287 132.72 46.5533 135.945 41.9229C139.612 36.6653 138.808 29.6668 131.465 27.6609C128.964 26.9805 126.516 27.2191 124.051 27.2986C122.832 27.3251 122.257 27.8995 122.31 29.278C122.416 31.6638 122.337 34.0233 122.337 36.409C122.337 36.4236 122.349 36.4355 122.363 36.4355V36.4355ZM122.754 19.2329C122.753 19.232 122.752 19.2324 122.751 19.2336C122.415 20.6114 121.551 22.1741 122.938 23.2427C123.795 23.8966 131.244 22.253 132.075 21.3958C134.602 18.7891 135.273 13.5314 133.586 10.1028C131.739 6.30317 129.318 6.30316 124.891 6.25015C123.645 6.25015 122.628 6.74499 122.681 8.48577C122.814 12.0539 122.708 15.6397 122.708 19.2078C122.708 19.2111 122.71 19.2142 122.713 19.2156L122.752 19.2354C122.754 19.2362 122.755 19.2341 122.754 19.2329V19.2329Z" fill="#010101"/>
<path d="M40.0074 1.68431C40.0074 1.68776 40.0103 1.6905 40.0137 1.69034C41.6816 1.61125 43.3142 1.665 44.8498 2.34455C47.0059 3.33423 47.165 5.23406 45.1061 6.42699C43.8071 7.15158 43.4625 8.01755 43.436 9.39604C43.2239 16.5271 44.1164 23.6581 43.0737 30.7891C42.6584 33.5726 43.3299 36.5682 43.7276 39.4577C44.0369 41.7198 46.6171 43.8317 49.0383 44.0615C50.8851 44.2471 52.7319 44.3001 54.6053 44.0615C57.9631 43.6992 59.7834 42.4709 60.3843 39.1131C61.4005 33.334 62.3106 27.5285 61.7628 21.5992C61.6302 20.1412 61.6302 18.6832 62.0014 17.2517C62.8585 13.7347 61.5596 10.2797 61.6126 6.76278C61.6126 6.01168 60.782 5.61403 60.3401 5.07501C58.9351 3.30772 59.3504 1.99992 61.5596 1.61112C62.9646 1.37253 64.4756 1.42555 65.9071 1.5581C68.9822 1.81436 69.6272 3.14866 67.8334 5.69356C66.561 7.51387 67.0823 9.54627 66.9763 11.4196C66.508 19.231 66.2959 27.0601 66.0662 34.8981C65.9601 38.2029 64.6877 41.1455 63.1766 43.9555C61.2238 47.5961 57.5831 48.409 53.9072 48.6653C50.0015 48.9215 46.2283 48.7978 42.6672 46.2706C39.0266 43.6904 37.6481 40.2353 37.33 36.2501C36.7291 28.6242 36.3933 20.9718 36.6496 13.2929C36.7556 10.3504 36.8351 7.32831 35.165 4.57134C34.4404 3.36958 35.0855 2.12363 36.5965 1.84086C37.686 1.63 38.8453 1.70742 39.9616 1.6562C39.9739 1.65564 39.9859 1.66027 39.9946 1.66899L40.0056 1.68004C40.0068 1.68117 40.0074 1.68271 40.0074 1.68431V1.68431Z" fill="#010101"/>
<path d="M159.695 35.5658C159.694 35.5632 159.69 35.5646 159.691 35.5675C160.156 38.8109 159.794 41.0695 159.715 43.3632C159.662 45.104 160.183 46.0937 162.189 46.0407C166.227 45.8816 170.257 45.8286 174.295 45.8021C175.515 45.8021 176.451 45.2808 177.397 44.5827C178.386 43.8581 179.429 43.54 180.392 44.7682C181.355 46.0142 181.099 47.269 180.083 48.0996C178.413 49.4781 176.566 50.8301 174.224 50.5738C168.242 49.8934 162.278 50.7329 156.295 50.3175C152.469 50.0348 152.213 49.8757 153.07 46.1556C154.033 41.9671 153.203 37.7521 153.203 33.5548C153.229 25.222 152.734 16.9245 153.149 8.59176C153.203 7.46952 153.362 6.53286 152.443 5.47248C150.932 3.7317 151.585 2.30021 153.901 2.11464C157.78 1.83187 161.686 1.28401 165.565 1.75234C169.029 2.16765 172.537 1.23099 175.974 2.11464C178.581 2.79505 179.023 3.51964 178.21 6.02035C177.3 8.80384 175.842 9.27217 173.73 7.19561C172.687 6.17941 171.883 5.97616 170.478 6.25893C168.366 6.67424 166.21 6.47101 164.027 6.02035C161.42 5.499 161.005 6.02035 160.908 8.65362C160.775 12.5593 160.625 16.4651 160.307 20.3619C160.174 22.0055 160.749 22.3678 162.207 22.1557C165.459 21.7404 168.711 22.8626 172.015 22.2353C173.085 22.0232 174.048 22.6241 174.357 23.8258C174.64 24.9746 174.799 26.194 173.836 27.0246C173.032 27.7315 172.148 27.546 171.052 27.1572C167.906 26.0349 164.575 26.4503 161.314 26.8214C159.883 26.9804 159.627 28.0938 159.671 29.3751C159.724 31.7643 159.671 34.127 159.671 35.5595C159.671 35.5651 159.675 35.5695 159.681 35.5695H159.693C159.695 35.5695 159.696 35.5675 159.695 35.5658V35.5658Z" fill="#010101"/>
<path d="M264.055 2.21259C264.055 2.21216 264.056 2.21194 264.057 2.21194C265.206 2.21187 266.345 2.13245 267.467 2.21194C268.925 2.34449 270.303 2.96304 269.861 4.68615C269.084 7.73473 270.171 10.3857 271.32 12.9924C272.468 15.6434 273.299 18.4357 274.934 20.8569C275.87 22.2354 276.78 22.6242 277.982 20.9364C280.978 16.7214 283.735 12.3474 286.023 7.69056C286.28 7.1427 286.545 6.70087 286.412 5.97628C285.891 3.21931 286.253 2.85701 289.09 2.80399C290.026 2.80399 290.963 2.857 291.9 2.72446C293.358 2.53889 294.453 3.13977 294.869 4.41222C295.258 5.56096 294.763 6.75389 293.649 7.35477C289.77 9.51087 288.312 13.4431 286.359 17.0395C284.645 20.2118 283.187 23.5432 280.889 26.3797C280.138 27.3163 279.9 28.3325 280.059 29.552C280.686 34.4739 279.776 39.387 279.803 44.3089C279.803 45.6343 280.607 46.0762 281.154 46.8626C282.4 48.6564 281.835 50.7153 279.749 50.6358C277.487 50.5563 275.216 51.0246 272.981 50.4502C271.337 50.0349 270.772 49.1778 271.443 47.4812C273.343 42.7713 272.822 37.7434 273.237 32.8568C273.732 27.3429 270.401 23.3311 267.926 19.0101C265.691 15.0513 262.722 11.5167 260.769 7.39895C260.327 6.46229 259.806 6.56833 259.125 6.46229C257.923 6.30323 257.252 5.57864 257.225 4.37688C257.172 2.91887 258.215 2.3445 259.408 2.19428C260.889 1.99005 262.394 2.00707 263.892 1.96126C263.987 1.95838 264.065 2.03397 264.065 2.12837V2.16345C264.065 2.16629 264.064 2.16909 264.063 2.17163L264.046 2.20441C264.044 2.20965 264.049 2.21521 264.055 2.21259V2.21259Z" fill="#010101"/>
</svg>
