<svg width="259" height="56" viewBox="0 0 259 56" fill="none" xmlns="http://www.w3.org/2000/svg">
<path d="M203.793 36.81C203.881 27.2795 203.793 18.013 203.169 8.76414C203.133 8.13934 203.045 7.50574 203.081 6.87213C203.204 4.84811 203.239 2.62168 206.073 2.55128C209.795 2.42808 211.819 4.1529 211.872 7.25053C212.118 20.0899 212.347 32.9556 212.655 45.7949C212.69 47.1149 212.277 48.2853 211.837 49.4206C210.64 52.4126 208.422 52.835 206.125 50.5558C200.511 45.0029 195.081 39.2652 189.194 33.994C184.803 30.078 180.676 25.8891 176.443 21.8147C175.906 21.3131 175.395 20.4595 174.612 20.8027C173.952 21.0843 173.635 21.9027 173.706 22.7211C173.829 24.2347 174.058 25.7131 174.023 27.2355C173.952 33.8356 173.706 40.4181 173.803 47.0093C173.803 48.6461 173.389 50.0717 172.606 51.2422C171.409 52.9846 169.385 53.231 167.502 52.6326C165.636 52.0606 165.988 50.3885 166.023 48.8485C166.111 39.23 166.147 29.638 166.111 20.0195C166.111 15.285 165.953 10.5242 165.865 5.78971C165.865 4.6193 165.988 3.45769 167.343 3.07048C168.575 2.75368 169.675 2.53368 170.652 3.92409C175.096 10.1722 181.309 14.845 186.017 20.8555C186.237 21.1371 186.457 21.5155 186.783 21.6739C193.559 24.9827 197.704 31.134 202.649 36.4404C202.772 36.5977 203.085 36.5641 203.805 36.7533C203.813 36.7556 203.82 36.7635 203.82 36.7725V36.7792C203.82 36.7865 203.814 36.7924 203.807 36.7924C203.799 36.7924 203.793 36.7983 203.793 36.8056V36.81Z" fill="#010101"/>
<path d="M27.554 46.8024C27.554 46.8049 27.5561 46.8068 27.5586 46.8065C31.6667 46.3933 35.7569 46.2337 38.9413 42.891C40.4901 41.2893 41.9685 42.6094 43.051 43.8678C44.8462 45.9534 44.9166 48.4702 43.139 49.8606C36.6709 54.9647 29.5692 56.6191 21.3323 54.8767C11.3882 52.791 5.58898 46.7102 1.46174 37.8397C-0.333478 33.9941 -0.0870762 30.5532 0.203327 26.6372C0.55533 21.6211 1.49694 16.9835 4.27776 12.8211C9.73382 4.65457 17.7771 1.27534 27.202 0.800132C31.2412 0.60653 35.1485 1.42495 38.7829 3.44897C43.0158 5.78099 43.5174 8.50022 40.3845 12.0555C38.9061 13.7627 37.6125 13.5339 35.7821 12.6539C30.4492 10.093 24.9932 9.11622 19.2203 11.589C15.9467 12.9795 13.8259 15.2851 12.1274 18.3123C8.37861 24.93 7.1466 31.618 10.9922 38.6229C12.3826 41.1837 14.6883 43.0142 17.0731 44.079C20.3291 45.531 23.7612 47.071 27.5452 46.7982H27.5498C27.5521 46.7982 27.554 46.8001 27.554 46.8024Z" fill="#010101"/>
<path d="M236.02 10.4615C236.02 10.4622 236.019 10.4631 236.019 10.464C235.482 13.8428 235.518 17.0807 235.606 20.3363C235.641 21.7619 235.676 22.6067 237.656 22.4219C240.877 22.1403 244.151 22.4219 247.371 22.2987C249.519 22.2107 251.314 22.7123 251.499 25.0179C251.692 26.9715 250.328 27.922 248.375 28.6084C244.784 29.8404 241.115 28.8284 237.524 29.462C236.292 29.682 235.122 29.5324 235.35 31.1692C235.887 35.1732 235.474 39.2125 235.544 43.2253C235.544 44.8973 236.142 45.3373 237.788 45.2757C243.024 45.1525 248.26 45.1173 253.461 44.5101C256.145 44.1933 257.571 45.8301 258.125 47.9421C258.75 50.2742 258.319 52.6766 255.256 53.0462C249.299 53.7766 243.271 54.1462 237.242 54.0582C235.641 54.0582 234.022 53.7414 232.385 53.7766C228.187 53.8118 226.234 51.3214 226.304 47.1237C226.392 41.9845 225.802 36.8452 226.084 31.7236C226.559 23.9883 226.014 16.2706 226.462 8.53536C226.709 4.14412 228.099 2.3489 232.262 2.3489C238.29 2.3489 244.318 1.9353 250.302 1.37209C251.534 1.24889 253.021 0.993683 253.927 1.97049C255.027 3.1409 257.183 3.80092 256.383 6.13294C255.652 8.24497 254.297 9.47697 252.027 9.75858C246.708 10.4168 241.328 10.331 236.009 10.4877C235.994 10.4882 235.986 10.4696 235.997 10.4587L235.999 10.4565C236.001 10.4548 236.003 10.4538 236.006 10.4538H236.017C236.021 10.4538 236.023 10.4587 236.02 10.4615Z" fill="#010101"/>
<path d="M57.8967 35.578C58.3983 25.1411 58.3983 16.1386 57.8263 7.15375C57.6063 3.45771 58.3015 3.40491 62.1823 2.4897C67.4184 1.29289 72.6193 1.7945 77.8553 1.4249C80.1521 1.2665 82.3345 1.61849 84.473 2.4897C85.925 3.08811 86.9634 3.74812 86.8754 5.76334C86.7874 7.87536 85.969 8.94898 84.0682 9.51218C81.8945 10.137 79.6769 10.4538 77.4153 10.4538H73.6313C66.732 10.6122 66.6968 10.6474 66.0544 17.3531C65.7376 20.7323 66.1776 21.1987 69.7504 21.0139C72.364 20.8907 75.0129 20.6619 77.6353 20.6003C80.7857 20.5123 82.4314 21.7355 82.6514 24.2611C82.8978 27.4468 81.9914 28.7756 78.4889 29.1892C75.2681 29.5676 71.9944 29.6028 68.7736 29.506C66.7232 29.4356 65.7816 30.1044 65.7112 32.1196C65.588 35.9652 65.4296 39.8197 65.3592 43.6653C65.3592 45.4077 66.8112 45.3021 67.8144 45.1789C73.6137 44.5541 79.5889 46.3141 85.2914 43.9821C87.377 43.1285 89.7354 45.2757 90.237 47.951C90.809 50.943 90.017 52.0606 86.9282 52.3422C79.8001 53.0022 72.6985 53.6358 65.5704 54.1022C63.8632 54.2254 62.1031 53.7238 60.3959 53.3718C59.1639 53.1254 58.7591 52.2366 58.4071 50.9694C56.9591 45.3705 58.2065 39.7455 57.908 35.5864C57.9066 35.5666 57.8901 35.5516 57.8703 35.5516C57.8849 35.5516 57.8967 35.5635 57.8967 35.578Z" fill="#010101"/>
<path d="M111.401 13.2143C111.399 13.21 111.393 13.2109 111.393 13.2153C111.634 22.7342 109.563 32.0603 110.486 41.5357C110.732 44.2726 111.621 44.6598 113.83 44.5014C118.151 44.2198 122.437 43.9646 126.757 43.8062C128.746 43.7182 130.797 43.5862 131.844 45.9798C133.041 48.787 132.222 50.8022 129.353 51.7615C124.654 53.2751 119.893 51.6382 115.124 51.8846C112.281 52.043 109.377 51.8846 106.552 52.263C103.244 52.703 102.927 52.043 102.267 48.7958C99.8643 36.8981 102.267 25.018 102.073 13.1555C102.038 10.2866 101.756 7.37379 101.792 4.51376C101.792 2.46334 102.39 0.694526 105.171 1.77694C107.036 2.50734 109.404 0.0345283 110.952 2.54255C112.088 4.37297 111.304 6.48498 111.428 8.4474C111.515 10.0372 111.862 11.6789 111.403 13.1834C111.398 13.2001 111.41 13.217 111.428 13.217H111.404C111.402 13.217 111.401 13.2159 111.401 13.2143Z" fill="#010101"/>
<path d="M150.704 18.2582C150.703 18.259 150.702 18.2601 150.702 18.2613V47.907C150.702 49.1654 150.922 50.3974 149.937 51.471C148.485 53.0198 146.663 53.9614 144.639 53.583C142.272 53.143 142.078 50.7142 142.149 49.0422C142.307 43.8061 141.577 38.5701 141.99 33.3956C142.43 27.9396 141.902 22.5099 141.867 17.0539C141.867 13.393 142.219 9.79379 142.369 6.16815C142.457 4.14413 143.222 2.32252 145.625 2.34892C148.969 2.41932 150.606 3.80093 150.711 6.58176C150.834 10.4391 150.747 14.3226 150.746 18.1803C150.746 18.2192 150.715 18.2507 150.676 18.2507H150.701C150.705 18.2507 150.706 18.2554 150.704 18.2582Z" fill="#010101"/>
</svg>
