<svg width="314" height="51" viewBox="0 0 314 51" fill="none" xmlns="http://www.w3.org/2000/svg">
<path d="M180.578 16.4593C180.578 16.4598 180.578 16.4603 180.578 16.4608V44.45C180.578 47.27 179.538 49.63 176.438 50.02C173.548 50.38 171.338 49.23 171.228 45.88C170.798 32.96 170.368 20.04 170.018 7.11001C169.978 5.25001 170.908 3.00001 172.658 3.36001C176.588 4.15001 181.438 0.470013 184.398 4.75001C190.038 12.89 195.068 21.38 200.428 29.7C201.235 30.9592 203.626 30.3437 203.609 28.8485C203.609 28.8323 203.609 28.8162 203.608 28.8C203.538 22.55 203.248 16.27 203.248 10.02C203.248 6.74002 202.678 2.88002 207.848 2.60002C213.058 2.31002 212.058 6.17001 212.128 9.06001C212.448 21.27 212.668 33.51 212.738 45.72C212.738 46.76 211.778 48.61 211.058 48.68C207.698 49.11 204.558 48.86 201.808 46.04C193.208 37.26 188.068 25.98 180.608 16.48L180.584 16.4552C180.581 16.4524 180.576 16.4557 180.578 16.4593Z" fill="#010101"/>
<path d="M99.6884 21.2801C99.6884 29.0601 99.7584 36.8401 99.6884 44.6601C99.6484 49.2601 96.2984 49.0901 93.0484 49.0501C89.6884 48.9801 89.2284 46.5201 89.0184 44.0501C88.6284 39.4801 89.4084 31.2701 88.0584 30.9101C82.3784 29.4501 75.8184 29.1601 70.1384 30.6201C63.3584 32.3701 66.9284 39.2901 67.3884 43.2201C68.0984 49.4701 64.4284 49.4701 60.8884 49.8201C57.0284 50.2101 57.1384 46.8901 57.0284 44.1801C56.6384 31.5401 56.2784 18.9101 55.8184 6.31008C55.7484 4.06008 57.4284 1.67009 58.4284 2.49009C61.1384 4.70009 67.3184 0.100079 67.2084 6.70008C66.9184 21.4101 73.0584 26.1501 87.5584 20.4401C91.1684 19.0101 89.1284 12.4401 88.6984 8.34008C88.4084 5.41008 88.5184 3.02009 91.6284 3.27009C94.3784 3.48009 99.4484 0.700078 99.2984 7.23008C99.1892 11.8778 99.2969 16.5552 99.2984 21.1936C99.2984 21.2469 99.3416 21.2901 99.395 21.2901H99.7031C99.7182 21.2901 99.7235 21.2701 99.7104 21.2626C99.7006 21.257 99.6884 21.2641 99.6884 21.2754V21.2801Z" fill="#010101"/>
<path d="M160.268 48.1968C160.268 48.1989 160.268 48.2008 160.266 48.2021C159.157 49.0922 158.158 50.52 157.338 50.4501C154.478 50.1301 151.488 49.84 149.768 46.7001C147.908 43.2701 149.448 36.0601 143.058 37.4501C134.778 39.2701 123.498 33.1701 118.678 45.6201C117.108 49.7301 113.148 49.1501 110.358 48.1501C106.828 46.9001 109.358 44.0401 110.218 42.1201C115.398 30.2001 120.428 18.1701 126.138 6.46006C129.638 -0.719939 138.808 -0.499947 141.128 3.78005C148.726 17.7355 153.945 33.0101 160.222 48.1752C160.226 48.1842 160.235 48.1901 160.244 48.1901H160.262C160.265 48.1901 160.268 48.1931 160.268 48.1968ZM132.278 29.992C132.278 29.9907 132.279 29.9895 132.28 29.9886C134.921 26.9919 141.528 32.5993 141.378 28.2101C141.299 25.8826 140.347 23.5881 139.072 21.307C137.048 17.6868 131.14 18.042 129.427 21.8192C128.325 24.2497 127.327 26.7109 126.598 29.2501C126.099 30.9982 130.02 28.9345 132.271 29.9966C132.275 29.9982 132.278 29.9957 132.278 29.992Z" fill="#010101"/>
<path d="M249.717 22.1034C249.718 22.1015 249.72 22.1005 249.722 22.1011C253.153 23.0976 260.318 19.3924 260.068 26.2401C259.888 31.3101 252.568 28.2401 248.928 30.1701C245.928 31.7801 239.928 26.7401 239.648 33.4201C239.038 46.7701 249.358 38.2701 254.458 39.9901C258.988 41.5201 266.668 37.6001 265.418 47.4501C265.308 48.2401 264.708 49.5601 264.308 49.5901C253.918 49.8001 243.068 51.7301 233.288 49.3001C226.328 47.5901 230.008 38.0201 229.578 31.9201C229.078 24.4201 229.328 16.8901 229.578 9.36006C229.828 1.61006 235.718 2.47006 240.818 2.61006C247.278 2.79006 253.738 3.07007 260.198 3.54007C263.058 3.75007 263.948 5.90007 263.628 8.47007C263.308 10.8301 262.098 12.2201 259.378 12.2201C255.028 12.2201 250.668 12.7601 246.318 12.7601C243.428 12.7601 239.888 10.5801 239.568 16.0101C239.248 21.0801 240.608 23.7901 246.278 21.9701C247.167 21.6806 248.235 22.009 249.701 22.0797C249.705 22.0799 249.708 22.0833 249.708 22.0874V22.1014C249.708 22.106 249.715 22.1075 249.717 22.1034Z" fill="#010101"/>
<path d="M23.6184 50.55C12.3384 51.26 4.58841 45.59 1.48841 35.56C-1.87159 24.78 0.278407 13.79 9.76841 6.75004C19.4084 -0.389958 30.0484 0.820042 39.7584 7.75004C42.3984 9.61004 45.2884 12.35 42.3284 15.82C39.7584 18.82 36.9384 18.25 33.5084 15.64C26.8284 10.61 18.3684 10.93 13.3084 16.53C7.45841 22.99 8.55841 31.99 15.3784 37.95C21.1584 43.02 28.0484 42.98 34.0484 36.84C37.1584 33.66 40.5084 35.34 43.1184 37.66C46.1484 40.3 43.1884 42.41 41.5484 43.98C36.5933 48.7553 30.3208 50.297 23.6481 50.5094C23.6372 50.5098 23.6284 50.5188 23.6284 50.5297V50.54C23.6284 50.5456 23.6239 50.55 23.6184 50.55Z" fill="#010101"/>
<path d="M292.348 39.4201C298.278 39.1701 302.808 39.0601 307.308 38.7101C311.308 38.3901 313.698 39.6401 313.558 43.9901C313.418 47.7701 311.878 49.2701 307.668 49.1301C301.068 48.8801 294.358 49.3401 287.788 50.1701C281.828 50.8801 279.578 48.0301 279.368 42.8501C278.908 31.3201 278.798 19.7501 278.298 8.22007C278.048 1.94007 283.118 2.87008 286.298 2.65008C290.368 2.36008 289.408 6.11007 289.298 8.72007C288.978 17.3601 288.688 26.0001 288.228 34.6401C288.019 38.847 289.866 40.1682 292.333 39.4616C292.337 39.4606 292.34 39.4587 292.342 39.4562L292.357 39.4413C292.365 39.4335 292.359 39.4201 292.348 39.4201Z" fill="#010101"/>
</svg>
