<svg width="203" height="63" viewBox="0 0 203 63" fill="none" xmlns="http://www.w3.org/2000/svg">
<path d="M92.0859 40.6206C92.089 40.6176 92.0943 40.6197 92.0943 40.6241C92.0944 45.0605 92.153 49.497 92.0649 53.9334C92.0355 55.4821 93.0647 55.7958 94.0743 56.3447C95.6231 57.1779 96.5052 58.2953 95.7897 60.2165C95.1035 62.0495 93.5842 62.3926 92.1825 61.8535C88.6537 60.4812 85.2818 61.0203 81.753 61.7947C79.6064 62.2554 76.8814 60.8537 78.6262 58.8148C83.439 53.1688 80.518 46.67 81.5766 40.6809C82.0961 37.8481 81.5766 34.7506 81.2629 31.8296C80.9787 28.8791 79.8024 26.3012 76.3325 26.3894C72.8625 26.4776 69.716 28.2224 69.5396 31.859C69.1377 39.8771 69.3631 47.9639 69.3435 56.0114C69.3435 56.2369 69.3141 56.4721 69.3729 56.6976C69.9219 58.707 75.3621 60.7949 71.4608 61.9711C67.1381 63.2846 61.4626 63.314 56.6204 61.2262C56.1891 61.0301 55.7578 59.9911 55.8754 59.452C59.4826 42.8668 56.9634 26.1835 56.9046 9.53951C56.9046 3.57981 63.2074 4.09933 66.5009 2.77605C69.5984 1.54098 69.1377 6.38323 69.1671 8.70634C69.2259 12.9801 68.7064 17.2734 68.5692 21.5373C68.5692 22.1941 67.4517 24.2035 69.8827 23.3997C84.6055 18.4987 92.3491 24.4878 92.0845 40.6809V40.6241C92.0845 40.6228 92.085 40.6216 92.0859 40.6206V40.6206Z" fill="#010101"/>
<path d="M51.1508 12.7055C51.1508 15.058 51.239 16.4303 51.1508 17.7732C51.0038 19.2631 50.1804 20.3511 48.6611 20.606C46.8869 20.8903 46.3085 19.5768 45.8772 18.2241C42.2112 7.36331 38.8883 5.0206 29.0862 6.24586C21.5189 7.21628 13.7262 16.1264 13.0989 24.468C12.4716 32.9469 12.4422 41.1415 17.1374 48.9342C21.2641 55.727 27.4198 57.1582 34.3303 57.0405C40.5743 56.9229 43.9854 52.6884 46.2497 47.356C46.7398 46.2092 47.1907 45.0329 47.622 43.8567C48.2494 42.1903 48.9355 40.3279 51.1508 41.0728C53.2092 41.7884 53.072 43.6214 52.3859 45.3956C52.2976 45.5916 52.2388 45.8269 52.1898 46.0523C50.8175 50.0614 52.3663 56.6288 48.7493 57.9423C40.0156 61.1182 31.0172 64.1275 21.019 60.6967C7.0902 55.9427 0.365937 42.1021 0.0130602 30.0651C-0.418234 15.1658 9.89361 5.9126 21.9012 1.35461C30.1252 -1.77227 38.6335 0.893899 46.5732 5.4813C50.3687 7.67664 51.6876 9.70687 51.2453 12.6354C51.2418 12.6586 51.2217 12.6761 51.1983 12.6761H51.1802C51.164 12.6761 51.1508 12.6892 51.1508 12.7055V12.7055Z" fill="#010101"/>
<path d="M161.44 42.2049C161.449 42.2143 161.454 42.2272 161.454 42.2406C161.563 54.0901 153.655 62.5002 142.399 62.5296C130.391 62.559 121.285 53.443 121.256 41.3864C121.256 31.5549 131.058 22.2428 141.458 22.1938C153.909 22.135 161.309 29.547 161.425 42.1691C161.425 42.1824 161.43 42.1955 161.44 42.2049V42.2049ZM133.993 44.636C133.999 44.6303 134.009 44.6341 134.009 44.6421C134.207 49.9677 135.104 55.395 141.311 56.4229C145.496 57.109 148.672 53.9037 149.652 49.777C151.172 43.386 151.231 36.995 148.388 30.7511C146.839 27.3694 143.948 27.5458 141.193 27.4282C138.762 27.3105 137.008 29.0357 136.469 31.2118C135.411 35.6163 133.748 39.9329 133.978 44.6299C133.978 44.6378 133.988 44.6416 133.993 44.636V44.636Z" fill="#010101"/>
<path d="M184.087 22.382C184.087 22.3864 184.091 22.3899 184.095 22.3899C195.667 22.3341 202.653 28.8422 202.996 39.5535C203.054 41.6119 202.535 43.3371 200.163 43.4547C194.576 43.7684 189.018 43.8566 183.431 44.1703C181.421 44.2879 178.02 42.3667 177.696 45.4838C177.294 49.5516 178.471 54.1096 183.46 55.08C188.332 56.0505 192.968 54.7664 196.438 50.8063C197.585 49.4928 198.761 48.7479 200.163 50.0026C201.682 51.3454 202.251 53.1784 200.712 54.8154C195.409 60.5202 188.734 62.4316 181.402 60.432C174.471 58.5402 168.571 55.0702 167.159 46.9639C165.238 35.9071 168.306 28.9672 177.383 23.8701C179.659 22.5858 182.013 22.0741 184.013 22.3157C184.041 22.3191 184.066 22.3366 184.078 22.3621L184.087 22.3785C184.087 22.3796 184.087 22.3808 184.087 22.382V22.382ZM183.896 38.3132C183.895 38.315 183.896 38.318 183.899 38.3179C187.738 38.0353 191.459 38.9723 191.459 34.4466C191.459 29.918 189.567 26.7127 184.558 27.193C181.235 27.5066 178 29.1142 178.167 33.035C178.314 36.933 180.858 38.8445 183.894 38.3393C183.898 38.3385 183.901 38.3348 183.901 38.3304V38.3151C183.901 38.3127 183.898 38.3115 183.896 38.3132V38.3132Z" fill="#010101"/>
<path d="M114.166 17.8026C114.162 17.8026 114.159 17.8057 114.159 17.8095V51.6984C114.159 54.0803 115.365 56.0211 116.511 57.9717C117.08 58.9715 117.776 59.8341 117.031 61.0986C116.227 62.3925 115.051 62.2455 113.992 61.9318C110.836 60.9908 107.719 61.2751 104.533 61.7848C102.445 62.1279 99.9752 60.9222 101.583 58.9519C104.906 54.8252 104.073 50.2967 103.994 45.8857C103.769 35.7405 103.131 25.6051 102.681 15.4305C102.563 13.1368 102.681 10.9901 100.328 9.38256C99.1224 8.54938 98.7205 6.14786 100.701 5.91261C104.425 5.51072 107.209 3.50129 110.326 1.90354C113.081 0.472427 114.571 2.07997 114.541 5.10883C114.512 9.24342 114.54 13.3686 114.541 17.5306C114.541 17.6646 114.433 17.7732 114.299 17.7732H114.219C114.206 17.7732 114.193 17.7785 114.183 17.7879L114.171 17.8006C114.169 17.8019 114.168 17.8026 114.166 17.8026V17.8026Z" fill="#010101"/>
<path d="M187.578 19.5342C187.296 19.5679 187.015 19.5306 186.734 19.4929C186.419 19.4507 186.114 19.409 185.842 19.2731C184.499 18.6457 183.176 16.5775 184.038 16.2932C189.537 14.4308 182.49 5.95195 189.537 5.83432C192.801 5.77551 196.732 7.1478 197.271 11.4509C197.571 13.9179 190.87 19.1405 187.578 19.5342Z" fill="#010101"/>
</svg>
