<svg width="795" height="246" viewBox="0 0 795 246" fill="none" xmlns="http://www.w3.org/2000/svg">
<path d="M360.212 158.895C360.224 158.883 360.244 158.892 360.244 158.909C360.245 176.263 360.474 193.617 360.129 210.971C360.014 217.029 364.04 218.256 367.99 220.403C374.048 223.662 377.499 228.033 374.7 235.548C372.016 242.719 366.072 244.061 360.589 241.952C346.786 236.584 333.596 238.693 319.793 241.722C311.395 243.524 300.736 238.041 307.561 230.065C326.388 207.98 314.961 182.559 319.102 159.131C321.135 148.05 319.102 135.934 317.875 124.507C316.763 112.966 312.162 102.882 298.589 103.227C285.016 103.572 272.707 110.397 272.017 124.622C270.445 155.987 271.327 187.62 271.25 219.099C271.25 219.981 271.135 220.901 271.365 221.783C273.513 229.644 294.793 237.811 279.532 242.412C262.623 247.55 240.423 247.665 221.481 239.498C219.794 238.731 218.107 234.666 218.567 232.558C232.677 167.681 222.823 102.422 222.593 37.3156C222.593 14.0031 247.248 16.0353 260.131 10.859C272.247 6.02779 270.445 24.9692 270.56 34.0565C270.79 50.774 268.758 67.5682 268.221 84.2473C268.221 86.8163 263.85 94.6766 273.359 91.5324C330.95 72.361 361.241 95.7885 360.206 159.131V158.909C360.206 158.904 360.208 158.899 360.212 158.895V158.895Z" fill="#010101"/>
<path d="M200.086 49.6998C200.086 58.9021 200.431 64.2702 200.086 69.5232C199.511 75.3513 196.29 79.6074 190.347 80.6043C183.407 81.7162 181.145 76.5782 179.458 71.2869C165.117 28.803 152.119 19.639 113.776 24.4319C84.1754 28.2278 53.6928 63.0815 51.2388 95.7113C48.7849 128.878 48.6699 160.933 67.0362 191.415C83.1785 217.987 107.258 223.585 134.29 223.125C158.714 222.665 172.057 206.101 180.915 185.242C182.832 180.756 184.595 176.155 186.283 171.554C188.737 165.035 191.421 157.75 200.086 160.664C208.138 163.463 207.601 170.633 204.917 177.573C204.572 178.34 204.342 179.261 204.15 180.142C198.782 195.825 204.841 221.514 190.692 226.652C156.529 239.075 121.33 250.847 82.2199 237.427C27.7346 218.83 1.43143 164.69 0.0510873 117.605C-1.636 59.3239 38.7007 23.1283 85.6708 5.29881C117.841 -6.93258 151.122 3.49666 182.18 21.4411C197.027 30.0286 202.186 37.9703 200.456 49.4259C200.442 49.5165 200.364 49.5848 200.272 49.5848H200.201C200.138 49.5848 200.086 49.6363 200.086 49.6998V49.6998Z" fill="#010101"/>
<path d="M631.501 165.092C631.538 165.129 631.559 165.18 631.56 165.232C631.982 211.584 601.05 244.481 557.02 244.596C510.05 244.711 474.429 209.053 474.314 161.891C474.314 123.433 512.657 87.007 553.339 86.8153C602.046 86.5854 630.99 115.579 631.443 164.952C631.443 165.005 631.464 165.056 631.501 165.092V165.092ZM524.14 174.602C524.163 174.58 524.2 174.595 524.202 174.626C524.975 195.458 528.486 216.688 552.764 220.709C569.136 223.393 581.56 210.855 585.394 194.712C591.337 169.713 591.567 144.713 580.448 120.289C574.389 107.06 563.078 107.751 552.304 107.29C542.795 106.83 535.931 113.579 533.823 122.091C529.688 139.32 523.182 156.205 524.079 174.578C524.081 174.609 524.119 174.624 524.14 174.602V174.602Z" fill="#010101"/>
<path d="M720.093 87.5514C720.093 87.5685 720.107 87.5824 720.124 87.5823C765.388 87.3642 792.714 112.822 794.056 154.721C794.286 162.773 792.254 169.521 782.975 169.981C761.119 171.208 739.379 171.553 717.524 172.78C709.663 173.24 696.358 165.725 695.093 177.918C693.521 193.831 698.122 211.66 717.639 215.456C736.695 219.252 754.831 214.229 768.405 198.738C772.891 193.601 777.492 190.687 782.975 195.594C788.918 200.847 791.142 208.018 785.122 214.421C764.379 236.736 738.267 244.213 709.587 236.391C682.478 228.991 659.396 215.418 653.874 183.708C646.359 140.457 658.361 113.311 693.866 93.3722C702.771 88.3488 711.979 86.3471 719.801 87.2922C719.912 87.3056 720.007 87.3739 720.057 87.4736L720.089 87.5376C720.091 87.5419 720.093 87.5466 720.093 87.5514V87.5514ZM719.346 149.869C719.339 149.876 719.344 149.888 719.354 149.888C734.375 148.782 748.926 152.447 748.926 134.744C748.926 117.03 741.526 104.492 721.933 106.37C708.935 107.597 696.282 113.886 696.933 129.223C697.508 144.471 707.461 151.948 719.334 149.971C719.351 149.968 719.364 149.954 719.364 149.936V149.877C719.364 149.867 719.353 149.863 719.346 149.869V149.869Z" fill="#010101"/>
<path d="M446.581 69.6383C446.566 69.6383 446.554 69.6504 446.554 69.6654V202.228C446.554 211.545 451.27 219.137 455.757 226.767C457.98 230.678 460.703 234.053 457.789 238.999C454.645 244.06 450.043 243.485 445.902 242.258C433.556 238.577 421.363 239.689 408.901 241.683C400.734 243.025 391.072 238.309 397.36 230.602C410.358 214.459 407.099 196.745 406.793 179.491C405.911 139.806 403.418 100.159 401.655 60.3593C401.194 51.3871 401.655 42.9899 392.452 36.7017C387.736 33.4426 386.164 24.0486 393.909 23.1283C408.48 21.5563 419.369 13.696 431.562 7.44611C442.337 1.84804 448.165 8.13624 448.05 19.9842C447.937 36.1574 448.045 52.2938 448.049 68.5742C448.05 69.0983 447.625 69.5233 447.101 69.5233H446.789C446.737 69.5233 446.687 69.544 446.65 69.5808L446.6 69.6304C446.595 69.6355 446.588 69.6383 446.581 69.6383V69.6383Z" fill="#010101"/>
<path d="M732.509 76.5016C732.226 76.5076 731.954 76.4738 731.674 76.4275C730.013 76.1525 728.37 76.0975 726.956 75.3903C721.703 72.9363 716.527 64.8459 719.901 63.734C741.411 56.4488 713.843 23.2822 741.411 22.8221C754.179 22.592 769.555 27.96 771.664 44.7926C772.877 54.7632 744.852 76.2415 732.509 76.5016Z" fill="#010101"/>
</svg>
