<svg width="184" height="58" viewBox="0 0 184 58" fill="none" xmlns="http://www.w3.org/2000/svg">
<path d="M83.4671 37.5912C83.4699 37.5884 83.4747 37.5903 83.4747 37.5943C83.4748 41.6155 83.5279 45.6367 83.448 49.6579C83.4213 51.0617 84.3542 51.346 85.2694 51.8435C86.6731 52.5987 87.4728 53.6116 86.8242 55.353C86.2022 57.0144 84.8251 57.3254 83.5546 56.8367C80.3561 55.5929 77.2998 56.0815 74.1013 56.7834C72.1556 57.201 69.6856 55.9305 71.2671 54.0825C75.6295 48.9649 72.9818 43.0743 73.9414 37.6458C74.4123 35.0781 73.9414 32.2705 73.6571 29.6229C73.3994 26.9486 72.3332 24.6119 69.1881 24.6919C66.0429 24.7719 63.1909 26.3533 63.031 29.6495C62.6667 36.9172 62.871 44.2471 62.8533 51.5414C62.8533 51.7458 62.8266 51.959 62.8799 52.1634C63.3775 53.9847 68.3085 55.8772 64.7724 56.9433C60.8542 58.1339 55.71 58.1605 51.3209 56.2681C50.93 56.0904 50.5391 55.1486 50.6457 54.66C53.9153 39.6271 51.6319 24.5053 51.5786 9.4191C51.5786 4.0172 57.2915 4.4881 60.2767 3.28866C63.0843 2.16919 62.6667 6.55823 62.6934 8.66391C62.7467 12.5376 62.2758 16.4291 62.1514 20.294C62.1514 20.8892 61.1385 22.7106 63.3419 21.9821C76.6867 17.5397 83.7057 22.9683 83.4658 37.6458V37.5943C83.4658 37.5931 83.4662 37.592 83.4671 37.5912V37.5912Z" fill="#010101"/>
<path d="M46.3633 12.2887C46.3633 14.4211 46.4433 15.6649 46.3633 16.8821C46.23 18.2326 45.4837 19.2188 44.1066 19.4498C42.4985 19.7075 41.9742 18.5169 41.5833 17.2908C38.2604 7.44659 35.2485 5.32315 26.3638 6.43374C19.5049 7.31332 12.4415 15.3895 11.8729 22.9504C11.3043 30.6356 11.2776 38.0633 15.5334 45.1266C19.2739 51.2837 24.8534 52.5808 31.1171 52.4742C36.7767 52.3676 39.8686 48.5294 41.9209 43.6961C42.3652 42.6566 42.7739 41.5905 43.1648 40.5243C43.7334 39.0139 44.3553 37.3258 46.3633 38.0011C48.2291 38.6496 48.1047 40.3111 47.4828 41.9192C47.4028 42.0969 47.3495 42.3101 47.3051 42.5145C46.0612 46.1483 47.465 52.1011 44.1865 53.2916C36.2703 56.1703 28.1141 58.8979 19.0517 55.7882C6.42658 51.4792 0.331687 38.934 0.0118378 28.0235C-0.379089 14.5188 8.96761 6.13167 19.8514 2.00028C27.3056 -0.833935 35.0175 1.58269 42.2141 5.74073C45.6544 7.7306 46.8498 9.57081 46.4489 12.2253C46.4457 12.2463 46.4276 12.2621 46.4064 12.2621H46.3899C46.3752 12.2621 46.3633 12.274 46.3633 12.2887V12.2887Z" fill="#010101"/>
<path d="M146.329 39.0272C146.338 39.0358 146.343 39.0475 146.343 39.0595C146.441 49.8 139.273 57.423 129.071 57.4496C118.187 57.4763 109.933 49.2135 109.907 38.2853C109.907 29.374 118.791 20.9335 128.218 20.8891C139.504 20.8358 146.211 27.554 146.316 38.9948C146.316 39.0069 146.321 39.0187 146.329 39.0272V39.0272ZM121.452 41.2307C121.457 41.2256 121.466 41.2291 121.466 41.2363C121.645 46.0635 122.459 50.9828 128.085 51.9145C131.878 52.5364 134.757 49.6311 135.646 45.8906C137.023 40.0978 137.076 34.305 134.499 28.6454C133.096 25.5802 130.475 25.7401 127.978 25.6335C125.775 25.5269 124.184 27.0906 123.696 29.063C122.738 33.0553 121.23 36.9678 121.438 41.2252C121.438 41.2324 121.447 41.2358 121.452 41.2307V41.2307Z" fill="#010101"/>
<path d="M166.858 21.0596C166.858 21.0636 166.861 21.0668 166.865 21.0668C177.353 21.0162 183.685 26.9152 183.996 36.6239C184.049 38.4897 183.579 40.0534 181.428 40.16C176.364 40.4443 171.327 40.5243 166.262 40.8086C164.441 40.9152 161.358 39.1738 161.065 41.9992C160.7 45.6863 161.767 49.8177 166.289 50.6973C170.705 51.5769 174.907 50.413 178.052 46.8235C179.092 45.633 180.158 44.9578 181.428 46.095C182.806 47.3122 183.321 48.9737 181.926 50.4574C177.119 55.6283 171.069 57.3608 164.423 55.5483C158.142 53.8336 152.793 50.6884 151.514 43.3408C149.772 33.3188 152.553 27.0285 160.78 22.4084C162.844 21.2444 164.977 20.7806 166.79 20.9996C166.816 21.0027 166.838 21.0185 166.849 21.0416L166.857 21.0564C166.857 21.0574 166.858 21.0585 166.858 21.0596V21.0596ZM166.685 35.4998C166.683 35.5014 166.684 35.5041 166.686 35.504C170.167 35.2479 173.539 36.0971 173.539 31.995C173.539 27.8903 171.824 24.985 167.284 25.4203C164.272 25.7046 161.34 27.1617 161.491 30.7156C161.624 34.2488 163.931 35.9813 166.682 35.5234C166.686 35.5227 166.689 35.5193 166.689 35.5153V35.5015C166.689 35.4993 166.686 35.4982 166.685 35.4998V35.4998Z" fill="#010101"/>
<path d="M103.48 16.9088C103.477 16.9088 103.474 16.9116 103.474 16.9151V47.6321C103.474 49.791 104.567 51.5502 105.606 53.3183C106.122 54.2245 106.753 55.0064 106.077 56.1525C105.349 57.3253 104.283 57.192 103.323 56.9077C100.462 56.0548 97.6368 56.3124 94.7493 56.7744C92.8569 57.0854 90.6179 55.9926 92.075 54.2067C95.0869 50.4663 94.3317 46.3616 94.2607 42.3635C94.0563 33.1678 93.4788 23.981 93.0701 14.7587C92.9635 12.6797 93.0701 10.7339 90.9378 9.27685C89.845 8.52165 89.4807 6.3449 91.2754 6.13167C94.6516 5.7674 97.1748 3.94604 100 2.49783C102.497 1.20067 103.847 2.65775 103.821 5.40312C103.794 9.15073 103.82 12.8898 103.821 16.6622C103.821 16.7837 103.722 16.8822 103.601 16.8822H103.528C103.516 16.8822 103.505 16.8869 103.496 16.8955L103.485 16.907C103.484 16.9081 103.482 16.9088 103.48 16.9088V16.9088Z" fill="#010101"/>
<path d="M170.061 18.4733C169.78 18.5103 169.498 18.4734 169.217 18.4355C168.945 18.3989 168.683 18.3591 168.448 18.2416C167.231 17.673 166.031 15.7983 166.813 15.5406C171.797 13.8525 165.409 6.16727 171.797 6.06065C174.756 6.00734 178.319 7.2512 178.807 11.1516C179.078 13.3778 173.059 18.0799 170.061 18.4733Z" fill="#010101"/>
</svg>
