<svg width="217" height="68" viewBox="0 0 217 68" fill="none" xmlns="http://www.w3.org/2000/svg">
<path d="M98.4367 43.422C98.44 43.4187 98.4456 43.4211 98.4456 43.4257C98.4457 48.1681 98.5084 52.9105 98.4142 57.6529C98.3828 59.3084 99.483 59.6437 100.562 60.2305C102.218 61.1212 103.161 62.3157 102.396 64.3694C101.662 66.3288 100.038 66.6955 98.5399 66.1192C94.7678 64.6523 91.1633 65.2286 87.3912 66.0564C85.0965 66.5488 82.1835 65.0505 84.0487 62.871C89.1934 56.8356 86.0709 49.8886 87.2026 43.4864C87.7579 40.4583 87.2026 37.1472 86.8673 34.0247C86.5634 30.8708 85.306 28.115 81.5968 28.2093C77.8875 28.3036 74.524 30.1687 74.3354 34.0561C73.9058 42.6272 74.1468 51.2717 74.1259 59.8742C74.1259 60.1152 74.0944 60.3667 74.1573 60.6077C74.7441 62.7557 80.5594 64.9876 76.3891 66.245C71.7683 67.649 65.7014 67.6805 60.5252 65.4486C60.0642 65.2391 59.6031 64.1284 59.7289 63.5521C63.5848 45.8231 60.892 27.9893 60.8291 10.1974C60.8291 3.82666 67.5665 4.38201 71.0872 2.96746C74.3983 1.64722 73.9058 6.82342 73.9373 9.30674C74.0001 13.8752 73.4448 18.4646 73.2981 23.0226C73.2981 23.7247 72.1036 25.8727 74.7022 25.0135C90.4403 19.7744 98.7181 26.1765 98.4351 43.4864V43.4257C98.4351 43.4244 98.4357 43.423 98.4367 43.422V43.422Z" fill="#010101"/>
<path d="M54.6784 13.5817C54.6784 16.0965 54.7727 17.5634 54.6784 18.9989C54.5213 20.5916 53.6411 21.7547 52.017 22.0271C50.1205 22.331 49.5022 20.9269 49.0412 19.4809C45.1224 7.87112 41.5703 5.36685 31.0921 6.67661C23.003 7.71395 14.6729 17.2386 14.0023 26.1555C13.3317 35.2191 13.3002 43.9788 18.3193 52.3089C22.7306 59.5703 29.3108 61.1001 36.6979 60.9744C43.3725 60.8486 47.0189 56.3221 49.4394 50.622C49.9633 49.396 50.4453 48.1386 50.9063 46.8813C51.5769 45.1 52.3104 43.1091 54.6784 43.9055C56.8788 44.6704 56.7321 46.6298 55.9987 48.5263C55.9044 48.7359 55.8415 48.9874 55.7891 49.2284C54.3222 53.5139 55.9777 60.5343 52.1113 61.9383C42.7753 65.3333 33.1563 68.5501 22.4686 64.8827C7.57917 59.8008 0.391174 45.0057 0.0139609 32.1385C-0.447077 16.2117 10.5759 6.32037 23.4117 1.44803C32.2028 -1.8945 41.2978 0.955548 49.7851 5.85932C53.8424 8.20606 55.2522 10.3763 54.7794 13.5068C54.7757 13.5316 54.7543 13.5503 54.7292 13.5503H54.7099C54.6925 13.5503 54.6784 13.5643 54.6784 13.5817V13.5817Z" fill="#010101"/>
<path d="M172.573 45.1155C172.583 45.1256 172.589 45.1394 172.589 45.1536C172.705 57.8204 164.252 66.8105 152.219 66.842C139.384 66.8734 129.65 57.1287 129.618 44.2406C129.618 33.731 140.096 23.7768 151.214 23.7244C164.524 23.6615 172.433 31.5846 172.557 45.0772C172.557 45.0915 172.563 45.1054 172.573 45.1155V45.1155ZM143.234 47.7142C143.24 47.7082 143.251 47.7122 143.251 47.7208C143.462 53.4137 144.422 59.2153 151.056 60.3141C155.531 61.0475 158.925 57.6212 159.973 53.2099C161.597 46.3781 161.66 39.5464 158.622 32.8718C156.966 29.2568 153.875 29.4454 150.931 29.3197C148.332 29.194 146.456 31.0381 145.88 33.3643C144.75 38.0725 142.972 42.6868 143.218 47.7077C143.218 47.7162 143.228 47.7202 143.234 47.7142V47.7142Z" fill="#010101"/>
<path d="M196.783 23.9256C196.783 23.9303 196.787 23.9341 196.792 23.934C209.161 23.8744 216.629 30.8314 216.995 42.2813C217.058 44.4817 216.503 46.3259 213.967 46.4516C207.995 46.7869 202.054 46.8812 196.081 47.2165C193.933 47.3423 190.297 45.2885 189.951 48.6206C189.522 52.969 190.779 57.8414 196.112 58.8787C201.32 59.916 206.276 58.5434 209.985 54.3102C211.211 52.9061 212.469 52.1098 213.967 53.451C215.591 54.8865 216.199 56.8459 214.554 58.5958C208.885 64.6941 201.75 66.7373 193.912 64.5998C186.504 62.5775 180.196 58.8682 178.687 50.2028C176.634 38.3834 179.913 30.9649 189.616 25.5163C192.05 24.1435 194.566 23.5965 196.703 23.8548C196.734 23.8584 196.76 23.8771 196.773 23.9043L196.782 23.9218C196.783 23.923 196.783 23.9243 196.783 23.9256V23.9256ZM196.579 40.9555C196.577 40.9574 196.579 40.9607 196.581 40.9605C200.686 40.6585 204.663 41.66 204.663 36.8222C204.663 31.9813 202.64 28.5549 197.286 29.0684C193.734 29.4037 190.276 31.1221 190.454 35.3133C190.611 39.4802 193.331 41.5235 196.576 40.9834C196.58 40.9826 196.584 40.9786 196.584 40.9739V40.9576C196.584 40.955 196.581 40.9537 196.579 40.9555V40.9555Z" fill="#010101"/>
<path d="M122.039 19.0304C122.035 19.0304 122.032 19.0337 122.032 19.0378V55.2638C122.032 57.81 123.321 59.8847 124.547 61.9698C125.154 63.0386 125.898 63.9607 125.102 65.3124C124.243 66.6955 122.985 66.5383 121.854 66.203C118.48 65.1971 115.148 65.501 111.742 66.0458C109.511 66.4126 106.87 65.1238 108.588 63.0176C112.141 58.6063 111.25 53.7655 111.166 49.0503C110.925 38.2054 110.244 27.371 109.762 16.4947C109.636 14.0428 109.762 11.7481 107.247 10.0297C105.958 9.13903 105.529 6.5719 107.645 6.32042C111.627 5.89082 114.603 3.7428 117.935 2.03486C120.879 0.505054 122.472 2.22346 122.441 5.46121C122.41 9.88094 122.439 14.2906 122.441 18.7396C122.441 18.8829 122.324 18.999 122.181 18.999H122.096C122.082 18.999 122.068 19.0046 122.058 19.0147L122.045 19.0283C122.043 19.0296 122.041 19.0304 122.039 19.0304V19.0304Z" fill="#010101"/>
<path d="M200.486 20.8848C200.204 20.9165 199.922 20.8789 199.641 20.8412C199.294 20.7947 198.958 20.7519 198.659 20.6023C197.223 19.9317 195.809 17.7208 196.731 17.417C202.609 15.4261 195.075 6.36253 202.609 6.23679C206.098 6.17392 210.3 7.64085 210.876 12.2408C211.198 14.8851 203.994 20.4912 200.486 20.8848Z" fill="#010101"/>
</svg>
