<svg width="166" height="50" viewBox="0 0 166 50" fill="none" xmlns="http://www.w3.org/2000/svg">
<path d="M4.10641 6.00447C4.10641 5.99969 4.10219 5.99597 4.09743 5.99651C3.70651 6.04043 3.41221 6.04083 3.11791 6.09434C1.4914 6.41785 0.134476 5.79779 0.00866841 4.2162C-0.135112 2.39199 1.53633 1.77194 3.04602 1.72701C6.45182 1.60121 9.85762 1.70005 13.2634 1.72701C17.8015 1.77194 22.3665 1.85282 26.9136 1.95167C33.6712 2.09545 38.6856 5.4024 43.008 10.3898C49.1816 17.5249 49.8645 25.6125 47.2495 34.0776C45.2725 40.4489 40.4649 44.4927 33.9948 46.272C24.0739 49.0128 13.9104 48.195 3.80986 48.3478C2.35408 48.3478 1.16789 47.6109 1.04208 46.1731C0.916277 44.5646 2.17436 44.1961 3.63014 44.0524C8.02442 43.5851 8.15023 43.5132 7.82672 39.047C7.06289 28.6319 7.43132 18.2438 7.68294 7.82869C7.75433 4.86585 5.229 6.67108 4.12915 5.99205C4.11932 5.98598 4.10641 5.99292 4.10641 6.00447V6.00447V6.00447ZM20.5603 6.43581C20.066 6.43581 19.446 6.53466 18.8798 6.43581C16.2648 5.94157 15.528 6.93006 15.6987 9.57203C15.9413 13.3732 15.7975 17.2193 15.6538 21.0475C15.4111 27.5356 15.2314 34.0326 15.7257 40.5207C15.9503 43.5851 16.813 44.3669 19.7695 43.7558C21.2253 43.4593 22.5822 43.4593 24.0649 43.4593C26.9765 43.4593 29.915 42.8392 32.6019 41.7788C36.6457 40.1703 37.8858 36.2523 39.3146 32.5949C41.0939 28.0568 41.2646 23.339 39.737 18.747C38.3531 14.5504 36.1604 10.8211 31.8381 8.75427C30.7507 8.23307 29.9869 6.85817 28.6299 6.87614C25.9696 6.87614 23.3629 6.01902 20.614 6.43176C20.5962 6.43442 20.5782 6.43581 20.5603 6.43581V6.43581Z" fill="#010101"/>
<path d="M146.223 26.798C146.224 26.7985 146.225 26.7992 146.226 26.7999C149.676 29.3877 151.706 32.4246 153.674 35.5874C156.145 39.5144 159.299 42.8213 163.595 44.7893C164.754 45.3285 166.21 45.6789 165.743 47.3773C165.302 48.9589 163.721 49.1566 162.579 48.8062C158.257 47.4942 153.395 47.4492 150.088 43.6211C147.815 41.0061 145.991 38.1664 145.002 34.8325C144.238 32.3433 142.828 30.4113 140.707 28.8117C138.433 27.1133 136.169 28.2905 133.895 28.3175C133.077 28.3175 133.176 28.9555 133.176 29.6025C133.176 34.2664 133.176 38.9303 133.006 43.5672C132.961 44.8792 133.626 44.7803 134.416 44.7264C135.701 44.6545 136.986 44.4299 138.191 45.0499C139.008 45.4723 139.799 45.9665 139.7 46.9999C139.628 47.9345 138.838 48.1322 138.047 48.4108C136.151 49.0488 134.12 49.3004 132.269 49.1297C129.6 48.8871 127.012 49.2555 124.37 49.2735C123.435 49.2735 122.644 49.0039 121.8 48.8062C120.865 48.5815 120.146 47.8716 120.191 46.928C120.236 45.8407 121.081 45.2296 122.213 45.1488C122.806 45.1218 123.399 45.0499 123.965 45.1757C125.718 45.5711 125.843 44.7084 125.843 43.2527C125.772 33.5744 125.178 23.9322 125.547 14.254C125.619 12.1062 125.673 9.95851 125.673 7.78383C125.673 6.27414 125.152 5.36653 123.327 5.80686C122.51 6.00455 121.575 5.77989 120.712 5.56422C119.751 5.32159 119.23 4.50384 119.328 3.54231C119.454 2.52686 119.948 1.69114 121.207 1.69114C123.381 1.69114 125.529 1.64621 127.695 1.61925C133.967 1.54736 140.231 1.54736 146.503 2.14046C151.14 2.58078 156.621 6.57967 157.808 10.4078C159.704 16.5275 155.166 24.2287 148.453 26.2776C147.919 26.4468 147.331 26.5013 146.262 26.7122C146.244 26.7157 146.229 26.7283 146.223 26.7454L146.213 26.7727C146.209 26.7824 146.213 26.7933 146.223 26.798V26.798ZM132.938 18.9718C132.931 18.9718 132.925 18.9778 132.925 18.9852C132.926 19.6727 133.023 20.36 132.925 21.0206C132.484 23.3121 133.563 23.9591 135.639 23.7075C138.352 23.366 141.12 23.4829 143.807 22.8448C147.069 22.081 149.783 19.5379 149.783 16.824C149.783 10.7313 147.59 6.28314 140.752 5.96862C139.565 5.92368 138.406 5.79788 137.22 5.74396C133.671 5.61815 132.781 6.2382 133.248 9.644C133.67 12.8026 132.954 15.8537 132.952 18.9583C132.952 18.9657 132.946 18.9718 132.938 18.9718V18.9718Z" fill="#010101"/>
<path d="M119.351 26.5292C119.348 26.5292 119.346 26.5311 119.346 26.5335C119.075 36.6784 112.209 49.6509 95.8293 49.8485C81.7119 50.0193 72.8514 42.4708 70.9823 26.7718C70.1465 19.6906 72.1415 13.2025 76.9312 7.8467C80.31 4.07246 84.9559 1.9517 89.7905 1.18786C107.779 -1.69645 119.299 10.8367 119.355 26.5246C119.355 26.5271 119.353 26.5292 119.351 26.5292V26.5292ZM109.798 27.0414C109.801 27.0414 109.803 27.0394 109.803 27.0369C109.804 26.643 109.875 26.2491 109.875 25.8552C109.83 21.0655 109.039 16.4555 106.811 12.1871C104.196 7.1278 100.17 4.88122 94.3735 5.10588C88.4785 5.33054 84.4257 8.01743 81.5861 12.9509C79.5102 16.5813 79.4653 20.6791 78.6745 24.6241C76.8503 33.6822 82.1252 41.9945 90.8419 44.8881C93.8523 45.9036 96.3415 45.0858 99.1093 44.933C102.461 44.7623 104.905 43.2077 106.415 40.2422C108.509 36.0995 109.866 31.7502 109.794 27.0683V27.0459C109.794 27.0434 109.796 27.0414 109.798 27.0414V27.0414Z" fill="#010101"/>
<path d="M63.2091 15.9343C63.2091 24.3455 63.3529 32.7656 63.1103 41.1588C63.0384 43.7019 63.5506 44.3669 66.0488 44.0973C69.3827 43.7289 70.6138 45.2116 69.6253 47.7996C68.9603 49.525 67.5315 49.7946 66.2914 49.2824C64.4672 48.4916 62.7598 48.5635 60.8907 48.8151C57.7814 49.2375 54.6722 48.2759 51.5359 48.5186C50.6193 48.5905 49.5859 47.557 49.6578 46.5955C49.7567 45.3104 51.0687 44.2501 52.1021 44.4208C55.9752 45.0409 55.3371 42.4977 55.3371 40.2781C55.3102 29.2969 55.0406 18.3157 55.7056 7.3614C55.7775 6.14826 55.1664 6.03144 54.3487 5.95057C53.3871 5.87868 52.3986 5.87868 51.4371 5.82476C50.224 5.77983 49.2894 5.35748 49.2624 3.94663C49.2624 2.56275 50.3498 1.79891 51.3562 1.89776C56.6132 2.43694 61.8971 1.96964 67.1541 2.22125C68.6638 2.29315 69.176 3.28164 69.1311 4.63857C69.0592 6.39089 67.6214 6.88514 66.4172 6.61556C63.8292 6.02246 63.5775 6.95702 63.8022 9.23055C63.9961 11.4071 63.6196 13.6355 63.4863 15.8395C63.4819 15.9129 63.4212 15.9703 63.3477 15.9703H63.2361C63.2212 15.9703 63.2091 15.9582 63.2091 15.9433V15.9433V15.9343Z" fill="#010101"/>
</svg>
