<svg width="181" height="50" viewBox="0 0 181 50" fill="none" xmlns="http://www.w3.org/2000/svg">
<path d="M139.552 1.34884C143.496 1.1237 146.828 0.844521 150.151 1.47491C157.401 2.84377 161.417 8.04001 163.327 14.416C166.713 25.682 165.668 36.4617 157.275 45.6204C155.906 47.1244 153.889 47.6827 152.142 48.0069C145.099 49.3578 137.949 50.1413 130.78 49.0246C129.024 48.7454 127.628 47.6737 127.448 45.6204C126.764 37.2542 126.124 28.915 126.251 20.5218C126.323 15.1544 126.305 9.76909 126.251 4.37472C126.251 2.61863 126.809 1.96121 128.637 1.65502C132.473 1.01563 136.292 1.1237 139.543 1.34884H139.552ZM135.959 34.2734C135.963 34.2734 135.966 34.2779 135.965 34.2823C134.6 39.7963 136.222 42.0811 140.903 41.721C145.586 41.3608 149.953 41.3158 153.132 36.4077C156.744 30.8152 156.104 25.0426 155.852 19.1619C155.645 14.8122 154.024 11.282 149.494 9.39986C146.414 8.10305 143.442 8.5083 140.335 8.40924C136.877 8.31018 135.986 10.0843 135.986 12.9391V34.2464C135.986 34.2613 135.974 34.2734 135.959 34.2734V34.2734V34.2734Z" fill="#010101"/>
<path d="M108.766 36.3219C108.761 36.3274 108.751 36.3241 108.75 36.3163C107.834 28.1376 107.942 20.5878 108.068 13.0201C108.122 9.96718 108.167 6.91428 108.194 3.86137C108.194 0.934547 109.392 0.502278 112.265 0.934547C116.434 1.57395 116.894 3.98745 116.894 7.36456C116.894 19.5492 117.272 31.7248 115.957 43.8553C115.777 45.5574 117.407 48.4032 113.949 48.5383C111.175 48.6373 108.609 49.0246 106.852 45.2062C103.755 38.443 99.5759 32.139 95.7936 25.673C95.4647 25.1098 95.1573 24.5356 94.8611 23.9545C92.8371 19.983 88.6341 21.3032 88.6366 25.7607C88.6382 28.6119 88.6363 31.4636 88.6251 34.3184C88.6251 38.1548 88.6251 42.0002 88.3189 45.8096C88.1388 48.178 85.7523 48.124 84.1223 48.4302C82.2131 48.7904 81.3035 47.2054 81.2225 45.6294C80.9433 39.2715 80.43 32.8595 80.8172 26.5105C81.1955 19.8013 81.0964 13.1372 80.6371 6.47301C80.43 3.62724 81.4026 1.4929 83.9692 1.25875C86.842 1.00659 90.3812 0.925541 91.7771 4.43773C95.5144 13.6685 101.035 21.9807 105.258 30.9593C106.022 32.5576 106.454 34.5856 108.723 36.231C108.736 36.2404 108.747 36.2536 108.752 36.2686L108.769 36.312C108.77 36.3154 108.769 36.3193 108.766 36.3219V36.3219Z" fill="#010101"/>
<path d="M39.666 33.8906C39.6644 33.8923 39.6615 33.8911 39.6615 33.8887C39.6615 24.2008 39.6885 14.4859 39.6345 4.80695C39.6345 2.51952 40.445 1.75405 42.7865 1.44785C50.5944 0.376186 58.3212 1.72703 66.084 1.44785C69.0108 1.34879 70.839 1.54691 71.1181 4.87899C71.3973 8.4182 69.236 9.22871 66.3902 9.22871C60.8427 9.22871 55.3043 9.15666 49.7568 9.00357C48.5321 8.97655 48.0998 9.3818 48.0818 10.5075C48.0818 11.1199 47.9287 11.7323 47.9287 12.3086C47.7216 20.3957 47.7216 20.4677 55.6555 20.9C59.4739 21.1071 63.3373 21.0531 67.1467 20.8009C69.1009 20.6748 70.1455 21.3323 70.3797 23.0343C70.6589 24.9705 70.7579 27.1319 68.1193 27.6092C62.2206 28.6538 56.2679 28.978 50.3152 28.5007C48.433 28.3476 47.3433 28.5728 47.3433 30.7161C47.3433 31.6347 46.9831 32.5442 47.1182 33.4358C47.4514 35.8223 45.4611 39.3345 47.3433 40.3251C49.7568 41.6219 53.242 41.1356 56.2679 41.0365C60.6896 40.8835 65.0934 41.3968 69.5692 40.6763C72.0908 40.2711 73.2075 43.0178 73.3335 45.026C73.5136 47.4125 71.5774 48.9705 69.263 49.1416C60.3925 49.781 51.5129 49.1686 42.6424 48.6553C40.1478 48.5022 38.824 47.2865 38.9771 44.5127C39.154 41.0361 39.0355 37.5422 39.0312 34.0735C39.0311 33.97 39.115 33.8861 39.2185 33.8861H39.6642C39.6665 33.8861 39.6677 33.8889 39.666 33.8906V33.8906Z" fill="#010101"/>
<path d="M13.982 0.777022C13.9803 0.778683 13.9815 0.781523 13.9839 0.781523H29.4401C30.89 0.781523 33.0514 0.709475 32.439 2.53762C31.7996 4.41979 34.015 8.13011 29.3591 8.1031C23.4064 8.07608 17.4807 8.50835 11.537 8.60741C9.6818 8.63442 9.19551 9.31886 9.04241 11.102C8.15086 21.0982 8.55611 21.5755 18.4263 21.2243C20.9659 21.1522 23.5144 21.0442 26.027 21.1702C28.6927 21.2963 29.4852 23.0254 29.4581 25.52C29.4581 28.1406 27.9542 28.753 25.7749 28.825C21.1189 28.9781 16.472 29.2303 11.8161 29.3113C9.80789 29.3383 8.94335 29.9687 8.99738 32.1571C9.09644 36.2997 8.94335 40.4693 8.89832 44.6389C8.8713 47.0074 7.97975 48.6284 5.31409 48.4753C2.7745 48.3222 -0.0532712 48.8355 0.000762479 44.6389C0.153858 31.5447 0.0728091 18.4686 0.0728091 5.37439C0.0728091 2.72674 0.964372 1.12374 3.96324 1.20479C7.25313 1.3026 10.5693 1.20726 13.8599 1.20483C13.9298 1.20478 13.9865 1.1481 13.9865 1.07818V0.778886C13.9865 0.776538 13.9836 0.775362 13.982 0.777022V0.777022Z" fill="#010101"/>
<path d="M180.561 20.0976C180.555 20.0942 180.547 20.0999 180.548 20.1075C181.714 29.8161 180.168 37.5382 180.906 45.2873C181.212 48.5383 178.366 48.7455 176.052 48.9526C173.836 49.1597 171.648 49.0787 171.576 45.9267C171.198 32.2202 170.783 18.4866 170.306 4.78005C170.207 1.72714 171.657 0.790563 174.404 1.06974C175.673 1.19582 176.79 1.62808 178.222 1.12377C180.158 0.439341 180.59 1.9883 180.59 3.5913V20.0767C180.59 20.0888 180.581 20.0986 180.569 20.0986H180.566C180.564 20.0986 180.563 20.0983 180.561 20.0976V20.0976Z" fill="#010101"/>
</svg>
