<svg width="436" height="46" viewBox="0 0 436 46" fill="none" xmlns="http://www.w3.org/2000/svg">
<path d="M23.2732 1.79647C23.2712 1.79747 23.2728 1.80039 23.2749 1.7997C29.339 -0.184002 34.5067 5.33532 40.8545 5.56042C41.6885 5.56042 42.9733 6.58598 42.8155 7.87075C42.669 9.44853 41.9815 10.97 40.539 11.7927C38.3864 13.0098 35.9972 13.2465 33.7996 12.2209C28.1872 9.59504 22.3156 10.0233 16.4327 10.1811C13.8068 10.26 11.3387 11.7138 10.4822 14.1481C8.32968 20.1437 7.11253 26.7365 11.3838 32.0221C15.2607 36.8005 21.6169 36.7216 27.387 36.654C29.0324 36.654 30.644 35.6736 32.2894 35.2002C34.8026 34.5353 35.8958 33.0476 35.5126 30.3767C35.0393 26.9619 32.9318 28.7989 31.2864 28.7989C28.9761 28.7989 26.6207 28.7989 24.3104 28.6524C22.1127 28.5059 20.3208 27.5592 20.1518 25.046C20.0053 22.4991 21.9212 20.9664 23.837 21.0114C28.807 21.0903 33.8672 20.2676 38.8147 21.3721C39.288 21.496 39.7163 21.6538 40.1445 21.8454C44.5398 24.1895 43.086 28.3932 43.0409 31.9207C42.9958 35.4143 44.1341 39.7983 39.1641 41.2859C35.0506 42.5031 31.1625 44.2274 26.7672 44.8472C17.9091 46.1433 7.51825 41.9847 3.24697 35.5946C-1.33988 28.6975 -1.05813 15.6019 4.03585 8.89631C8.66777 2.85565 15.1254 0.748183 23.2397 1.79628H23.2848H23.274C23.2737 1.79628 23.2734 1.79635 23.2732 1.79647V1.79647Z" fill="#010101"/>
<path d="M247.541 27.176C247.536 27.176 247.533 27.1724 247.533 27.168V6.631C247.533 4.16289 248.085 2.19067 250.948 1.96527C254.272 1.68352 254.205 4.35449 254.362 6.42815C255.264 17.1683 255.106 27.9086 254.362 38.6487C254.216 40.8013 252.999 42.1424 251.139 42.8524C248.558 43.8329 247.217 41.5564 246.361 40.08C243.175 34.532 238.2 30.8046 233.223 26.9829C229.386 24.0369 222.097 27.0128 222.097 31.8502V34.4C222.097 35.6622 222.221 36.947 221.95 38.1529C221.522 40.3054 220.181 42.0297 217.871 41.9959C215.673 41.9508 214.647 40.2265 214.614 38.1191C214.467 31.9657 214.298 25.7673 214.23 19.6139C214.185 15.4553 213.723 11.2967 214.467 7.14942C214.895 4.68132 216.428 3.18241 218.693 2.68654C220.733 2.25828 221.702 3.77973 223.089 5.23354C228.938 11.2291 233.987 18.0136 241.12 22.6793C243.011 23.9119 245.134 24.9121 246.152 27.2415C246.283 27.5393 246.634 27.6887 246.926 27.5466C247.127 27.4489 247.333 27.3486 247.545 27.243C247.567 27.2322 247.572 27.2034 247.555 27.1864L247.546 27.1783C247.545 27.1768 247.543 27.176 247.541 27.176V27.176Z" fill="#010101"/>
<path d="M157.723 34.3437V5.33502C157.723 2.90073 159.324 1.64978 161.521 1.34549C170.548 0.128346 179.553 1.19898 188.614 1.39056C190.857 1.43564 191.984 3.43042 191.792 5.35757C191.477 7.90456 189.752 9.79789 186.89 9.27948C181.131 8.25392 175.372 9.15551 169.647 8.65963C162.716 8.06233 165.995 13.4381 165.342 16.064C164.508 19.3548 167.382 18.3067 169.376 18.3743C173.726 18.5659 178.122 16.7965 182.348 18.3292C183.926 18.8814 186.856 18.8025 186.383 21.744C185.954 24.5164 183.802 26.0491 181.131 25.8237C177.051 25.5081 173.062 25.9476 169.061 25.9476C165.962 25.9476 164.62 26.5675 165.071 29.678C165.432 32.3039 164.215 35.5608 169.342 35.3242C175.969 35.0424 182.596 36.6878 189.29 36.068C190.981 35.9215 192.468 37.0485 192.615 38.7389C192.761 40.2266 192.299 41.9621 190.609 42.6158C188.884 43.3258 187.16 43.7879 185.165 43.6414C177.333 42.9313 169.489 41.4437 161.521 43.2131C158.895 43.8104 157.87 41.4437 157.599 39.2235C157.365 37.4307 158.243 35.5828 157.742 34.441C157.73 34.4138 157.723 34.3846 157.723 34.355V34.355V34.3437Z" fill="#010101"/>
<path d="M302.688 43.5651C302.688 43.5637 302.686 43.5627 302.685 43.5629C296.69 44.3958 291.203 42.2323 285.918 40.035C277.409 36.5414 273.093 22.3526 277.916 14.4299C285.952 1.14267 303.285 -2.5764 316.211 5.99998C318.285 7.36363 319.818 9.09921 318.837 11.3306C317.744 13.8776 315.039 13.3705 313.112 12.3562C306.181 8.62586 299.07 9.22317 292.184 11.6913C286.763 13.6072 283.946 18.1602 284.498 22.1272C285.557 29.7005 288.612 33.5436 295.08 34.5241C301.268 35.4595 307.714 37.2288 313.586 32.9913C315.039 31.932 316.64 32.2024 317.789 33.5886C318.961 35.0425 319.051 36.6879 317.981 38.3671C316.065 41.4663 312.921 42.4468 309.709 43.0666C307.436 43.5392 305.051 43.3827 302.744 43.4943C302.737 43.4947 302.731 43.4987 302.727 43.5049L302.692 43.5663C302.691 43.5683 302.688 43.5675 302.688 43.5651V43.5651Z" fill="#010101"/>
<path d="M348.23 34.4551C348.232 34.4498 348.241 34.4517 348.241 34.4577C348.24 36.6473 348.196 38.8368 348.241 40.9816C348.286 42.8186 346.877 43.3708 345.66 43.923C344.364 44.5203 343.225 43.923 342.437 42.7509C341.58 41.4549 340.521 40.3166 340.521 38.5924C340.566 28.3931 340.521 18.2164 340.667 8.01718C340.667 5.77448 341.332 3.47542 344.319 3.47542C346.944 3.47542 347.643 5.31241 347.767 7.55511C347.846 8.81734 348.049 10.0232 348.128 11.2854C348.635 17.8783 348.635 17.9459 355.183 18.0248C359.026 18.0699 362.869 17.7093 366.701 17.8783C369.834 18.0023 370.814 16.5823 370.814 13.7197C370.814 10.8572 371.006 8.15241 371.051 5.38002C371.051 3.1035 372.189 1.72858 374.375 1.77366C376.686 1.81874 378.297 3.30637 378.128 5.69559C377.531 16.278 378.41 26.7928 378.962 37.3301C379.109 40.0349 377.7 42.1987 375.119 42.1987C372.538 42.1987 371.242 39.8095 371.039 37.2963C370.803 34.0393 370.803 30.7936 370.679 27.5253C370.634 25.6433 369.777 24.7755 367.782 24.7079C362.26 24.5163 356.727 26.0377 351.126 24.7529C349.086 24.2796 348.117 25.7334 348.229 27.886C348.353 30.0792 348.23 32.2275 348.229 34.4206C348.229 34.4278 348.223 34.4338 348.216 34.4338V34.4338C348.204 34.4338 348.198 34.448 348.207 34.4563L348.215 34.4643C348.22 34.4697 348.229 34.4659 348.229 34.4583V34.4577C348.229 34.4568 348.229 34.4559 348.23 34.4551V34.4551Z" fill="#010101"/>
<path d="M117.298 34.7395C117.298 34.7387 117.298 34.7378 117.298 34.737C119.767 25.0568 126.201 17.3259 129.413 8.15258C130.315 5.5267 131.802 3.0586 135.262 2.85574C137.967 2.70923 138.869 4.21939 138.08 6.30432C135.769 12.5366 133.639 18.8477 129.965 24.4601C127.621 28.0214 126.956 32.2701 125.232 36.0681C123.97 38.8179 123.316 42.999 119.665 42.5708C115.743 42.0974 111.156 41.9059 109.082 36.6879C105.555 27.8298 100.653 19.5126 97.7111 10.384C96.9673 8.1075 95.7051 5.36892 98.0943 3.45304C99.627 2.2359 101.656 2.8332 103.425 3.64463C104.169 4.00527 104.563 4.26447 104.721 5.22241C106.49 15.9947 113.295 24.6265 117.262 34.6997C117.264 34.7028 117.266 34.7056 117.268 34.708L117.304 34.7439C117.306 34.7459 117.304 34.7495 117.301 34.7495V34.7495C117.3 34.7495 117.298 34.748 117.298 34.7462V34.7395Z" fill="#010101"/>
<path d="M413.255 32.1024C413.252 32.1055 413.247 32.1025 413.248 32.0982C414.838 22.4607 406.74 17.6838 401.367 11.3307C401.051 10.9701 400.623 10.7334 400.274 10.4291C398.2 8.54705 394.391 6.98052 397.265 3.49813C400.037 0.0833577 402.685 3.49814 404.86 4.95196C408.613 7.46514 411.487 10.9024 414.079 14.6778C416.198 17.6869 418.542 18.8815 421.292 14.9934C423.76 11.4659 426.589 8.16387 429.294 4.79418C430.702 3.02481 432.393 1.9767 434.5 3.53194C436.54 5.06464 436.27 7.26227 435.052 8.97529C432.303 12.9423 429.609 17.0445 426.239 20.4255C422.363 24.3023 421.731 28.6638 422.25 33.6338C422.329 34.2536 422.329 34.896 422.374 35.5159C422.52 38.8067 423.039 42.9653 418.452 42.9991C414.248 42.9991 413.628 39.0095 413.268 35.5497C413.144 34.6143 413.268 33.6676 413.268 32.18V32.1091C413.268 32.1047 413.264 32.1011 413.26 32.1011H413.258C413.257 32.1011 413.256 32.1016 413.255 32.1024V32.1024Z" fill="#010101"/>
<path d="M75.3949 11.216C75.3961 11.2172 75.3967 11.2188 75.3965 11.2204C74.4951 20.9453 74.2585 29.4194 74.9234 37.9162C75.1601 40.6886 73.988 43.0553 70.8437 42.9313C67.8572 42.8073 66.8091 40.3505 66.764 37.6795C66.6851 29.8019 66.2118 21.8904 66.8091 14.0015C66.9556 12.1645 66.9556 10.2486 66.8091 8.38911C66.4484 4.97434 67.4064 3.09227 71.272 3.01338C75.4305 2.88941 75.9039 5.01941 75.3855 8.31022C75.1939 9.67387 75.3855 11.1277 75.3855 11.2517V11.2199C75.3855 11.215 75.3914 11.2125 75.3949 11.216V11.216Z" fill="#010101"/>
</svg>
