<svg width="328" height="55" viewBox="0 0 328 55" fill="none" xmlns="http://www.w3.org/2000/svg">
<path d="M27.4228 54.887C27.4247 54.8834 27.4217 54.8791 27.4177 54.8795C20.334 55.4836 14.4808 52.1751 8.82446 48.6778C4.84114 46.2139 3.79808 41.475 2.04049 37.5245C-0.45628 31.8986 -0.472705 25.747 0.97279 19.8419C3.56811 9.21417 17.1771 -0.1487 28.2237 0.845078C35.4922 1.50212 42.3008 3.40755 47.475 9.07455C48.9698 10.7089 50.6781 12.2037 50.7192 14.6676C50.7438 16.4006 50.6699 18.2075 48.7563 18.9548C47.0069 19.6365 45.4464 18.9877 44.1734 17.6243C43.2864 16.6798 42.2926 15.8339 41.4631 14.8565C36.7324 9.30451 30.3098 9.84658 24.1582 10.4872C18.4091 11.0785 15.9041 16.0885 14.4915 20.6878C12.7667 26.3302 12.4136 32.2928 13.8016 38.3787C14.8775 43.1094 18.2366 44.9081 21.8503 45.984C27.6652 47.7169 33.4061 46.8135 38.3421 42.8794C39.6891 41.8035 40.6829 40.4155 41.266 38.7893C42.1858 36.2104 39.6152 36.3254 38.5146 35.3234C36.4367 33.4262 36.8474 30.4859 39.3934 29.2294C44.3541 26.7737 49.5858 30.026 50.1032 35.4959C51.1381 46.5999 41.0032 52.7844 32.1002 54.5748C30.5837 54.8781 28.9855 54.7969 27.4278 54.8945C27.4238 54.8948 27.421 54.8906 27.4228 54.887V54.887Z" fill="black"/>
<path d="M183.904 1.00621C185.094 1.22463 186.323 1.31348 187.521 1.1465C192.195 0.494989 196.088 3.01769 200.131 4.5327C204.163 6.0439 207.071 11.3577 206.857 15.5464C206.759 17.4765 206.438 19.3901 204.287 19.85C202.242 20.2935 201.412 18.577 200.558 17.0494C195.778 8.53246 181.463 5.88785 175.048 12.9346C169.948 18.5441 167.287 25.5088 169.11 33.5001C172.05 46.3453 183.048 48.0043 194.135 43.7828C196.583 42.8465 199.211 41.9595 200.139 38.7565C200.657 36.966 202.587 36.6457 204.451 37.196C206.2 37.7134 206.923 38.7729 206.939 40.6372C206.972 43.6186 206.061 45.9511 203.424 47.5526C194.792 52.809 185.668 55.2647 175.508 53.0964C163.09 50.4518 154.811 39.5038 155.797 26.8968C156.01 24.1701 156.117 21.4598 156.75 18.7741C158.54 11.1278 164.462 7.82613 171.007 5.36221C172.428 4.82836 173.324 3.76067 174.629 3.21861C177.684 1.95526 180.691 0.416175 183.904 1.00621Z" fill="black"/>
<path d="M266.369 54.7099C266.364 54.7178 266.355 54.7228 266.346 54.7232C256.586 55.1553 247.484 52.674 240.498 45.9264C233.566 39.2245 231.291 32.6294 235.398 19.8664C237.623 12.9428 241.738 7.57966 247.988 4.19589C251.2 2.45472 255.052 1.40345 258.706 1.05029C267.617 0.196135 275.666 2.72576 282.393 8.83627C283.978 10.2735 284.889 12.1872 285.44 14.224C285.957 16.1705 286.236 18.232 283.953 19.3243C281.884 20.3181 280.381 19.119 279.296 17.5421C277.637 15.1275 275.395 13.3288 273.096 11.6533C264.184 5.16503 250.945 8.35991 247.438 19.5625C246.97 21.0491 246.247 22.4617 245.771 23.9483C241.434 37.3848 251.98 47.4294 265.523 47.0762C268.603 46.9941 271.773 46.9612 274.64 45.3104C276.791 44.0784 278.902 43.0929 279.806 40.3661C280.537 38.1733 282.294 36.5635 284.988 37.8201C287.37 38.9371 287.337 41.0971 286.828 43.1996C285.933 46.8791 283.345 49.2691 280.175 50.9856C278.007 52.1601 275.674 53.0471 273.367 53.9341C271.137 54.7947 268.736 54.502 266.392 54.6967C266.383 54.6975 266.374 54.7023 266.369 54.7099V54.7099Z" fill="black"/>
<path d="M80.5407 27.948C80.5736 23.012 79.4484 18.1006 80.2779 13.1481C80.59 11.3084 79.4238 9.96148 78.2822 8.65561C77.0173 7.21011 76.2125 5.60036 77.1405 3.66208C78.2082 1.41992 80.0644 2.19194 81.8877 2.33156C84.6144 2.53688 87.3576 2.41369 90.1007 2.39726C91.9322 2.38905 93.4927 2.93112 94.3387 4.63943C95.1435 6.27383 94.5604 7.94106 93.3613 8.92663C90.8645 10.9635 90.996 13.6163 91.0452 16.3348C91.152 22.3221 91.5052 28.3258 91.3163 34.3049C91.1027 41.0561 92.154 43.0108 99.9974 45.6225C106.543 47.799 113.155 45.4172 116.719 39.7666C118.699 36.621 118.156 32.8594 118.354 29.5249C118.584 25.673 119.06 21.7636 118.904 17.8624C118.789 15.07 119.405 12.2529 117.081 9.77258C115.865 8.47492 116.267 5.97815 118.025 5.40324C121.031 4.42589 124.283 3.4321 127.487 4.59014C130.057 5.51822 130.607 8.23674 128.973 9.62474C124.481 13.4438 126.378 18.3798 125.901 22.8642C125.302 28.4244 125.754 34.2146 124.382 39.5613C122.493 46.9037 116.916 51.5113 109.516 52.9732C100.088 54.8293 91.8173 51.5113 84.4337 45.795C80.6475 42.8712 80.0151 38.6168 80.163 34.1817C80.2287 32.0956 80.4093 30.0177 80.5407 27.9316V27.948Z" fill="black"/>
<path d="M319.536 54.1269C319.538 54.1286 319.536 54.1314 319.534 54.1315C314.258 54.3349 313.052 52.2484 313.594 47.0352C314.276 40.514 314.218 33.8779 313.947 27.3157C313.742 22.4125 313.487 17.5503 314.111 12.6718C314.35 10.8485 314.53 9.11554 312.436 7.94929C311.023 7.16084 310.243 5.58393 310.843 3.92489C311.426 2.29871 312.962 1.64167 314.596 1.56775C317.709 1.41992 320.83 1.37886 323.951 1.35422C325.864 1.33779 327.096 2.25765 327.704 4.13844C328.353 6.15064 327.975 7.99857 326.168 8.88558C323.745 10.0683 324.14 11.7684 323.967 13.9612C323.409 21.238 323.639 28.523 323.409 35.7997C323.327 38.5264 323.507 41.2614 323.466 43.9881C323.45 45.3022 324.041 46.1071 324.977 46.953C326.176 48.0371 327.77 49.0802 327.105 51.1499C326.472 53.1457 324.558 53.195 323.006 53.6795C321.907 54.0157 320.702 53.9917 319.538 54.1224C319.535 54.1226 319.534 54.1253 319.536 54.1269V54.1269Z" fill="black"/>
</svg>
