<svg width="309" height="57" viewBox="0 0 309 57" fill="none" xmlns="http://www.w3.org/2000/svg">
<path d="M184.651 33.8061C187.679 26.5264 190.721 19.4593 193.564 12.3524C194.388 10.2801 195.663 9.0712 197.722 8.57969C201.747 7.60996 205.772 8.5 209.771 8.71254C210.9 8.76568 212.056 9.89482 211.816 11.3029C211.484 13.2557 212.122 15.8195 209.505 16.6564C207.486 17.294 207.167 18.5029 207.194 20.4025C207.247 28.094 207.194 35.8253 207.14 43.5167C207.14 45.8016 207.034 47.927 210.395 48.0333C212.414 48.0864 212.773 49.8532 212.706 51.7263C212.653 53.8251 212.653 55.9771 210.09 56.3358C205.174 57 200.219 56.9469 195.331 55.8975C193.099 55.4059 192.541 53.4133 192.594 51.5137C192.648 49.5875 194.003 48.6975 195.929 48.6178C199.183 48.4584 200.312 46.8245 200.206 43.437C199.936 35.825 200.114 28.2255 200.126 20.5902C200.127 20.1618 199.797 19.8054 199.37 19.7719C199.014 19.744 198.68 19.9499 198.545 20.2811C195.673 27.3501 192.825 34.4431 189.951 41.5108C189.393 42.8392 188.795 44.1278 188.211 45.4296C187.52 46.9706 186.829 48.578 184.757 48.4053C182.738 48.2459 181.25 47.223 180.479 45.2569C178.274 39.6245 175.71 34.1382 174.05 28.3198C173.19 25.3574 169.539 26.2262 169.334 29.304C169.081 33.0965 168.984 36.7835 169.228 40.488C169.308 41.8164 169.361 43.1581 169.175 44.4333C168.789 46.7182 168.71 48.1529 171.938 47.9403C174.223 47.8075 175.166 50.0923 175.166 52.1912C175.166 54.7285 173.147 56.11 171.088 56.2163C167.063 56.4421 162.984 56.8805 158.919 56.0569C156.462 55.5388 154.403 54.569 154.642 51.5668C154.894 48.6975 156.356 47.13 159.464 47.6746C160.62 47.9005 161.563 47.834 161.616 46.1071C161.815 37.5256 162.054 28.9574 162.387 20.3759C162.493 17.7855 161.868 16.125 158.88 15.9922C157.113 15.9125 155.598 14.9162 155.466 12.99C155.333 10.9443 156.488 9.15092 158.388 8.65941C163.237 7.38415 168.178 8.6594 173.093 8.60627C174.661 8.60627 175.272 10.7848 175.989 12.2992C178.832 18.2903 180.214 24.7862 182.658 30.9102C183.042 31.9046 183.149 33.0844 184.603 33.7757C184.608 33.7781 184.612 33.7823 184.615 33.7874L184.624 33.8061C184.629 33.817 184.645 33.817 184.651 33.8061Z" fill="#010101"/>
<path d="M134.687 45.9949C134.682 45.9976 134.676 45.9939 134.675 45.9879C134.544 43.8132 134.755 41.5332 134.158 39.4915C132.564 33.9786 129.548 32.7565 122.521 33.4738C118.629 33.859 117.115 35.4531 117.699 39.2922C117.951 40.9129 117.752 42.5999 117.699 44.2339C117.646 45.8545 117.898 47.2095 119.718 47.9268C121.817 48.7505 122.056 50.7962 122.003 52.6693C121.95 54.5954 120.157 55.1534 118.722 55.4323C114.365 56.2825 109.981 56.07 105.624 55.2729C103.91 54.9408 102.887 53.8382 103.033 51.9918C103.193 49.9726 103.857 47.9667 106.089 47.9135C109.396 47.8338 110.287 46.0671 110.061 43.2774C109.37 34.9483 109.901 26.6192 109.928 18.2902C109.928 16.9883 109.875 16.271 108.134 16.6296C104.548 17.3736 103.91 14.7034 103.551 12.0466C103.166 9.09758 105.146 8.53966 107.47 8.5131C116.025 8.40682 124.567 6.9987 133.095 8.45995C142.088 10.0275 147.522 19.3529 142.527 26.7122C139.551 31.1225 140.76 33.5801 142.089 37.1668C142.726 38.8804 143.005 40.8332 143.058 42.6796C143.111 45.1372 142.806 47.0634 146.393 47.4486C148.877 47.7276 148.465 50.7829 148.438 52.7755C148.412 54.5954 146.95 55.3128 145.184 55.3659C144.958 55.3659 144.745 55.419 144.519 55.419C138.404 55.6578 135.111 52.5188 134.651 45.9889C134.651 45.9766 134.663 45.9677 134.674 45.9732L134.687 45.9798C134.694 45.9829 134.694 45.9918 134.687 45.9949ZM117.825 20.9868C117.821 20.9868 117.818 20.9899 117.818 20.9936C117.686 27.3367 117.688 27.4959 123.478 27.3631C126.4 27.31 129.323 26.4864 132.272 26.1809C134.065 25.9816 135.473 25.3573 135.114 23.4178C134.676 21.0798 136.137 17.5462 132.218 16.9883C129.216 16.5499 126.148 16.2444 123.039 16.1647C118.916 16.0321 116.923 17.1828 117.826 20.9897C117.827 20.9929 117.832 20.9929 117.832 20.9896C117.832 20.9881 117.831 20.9868 117.829 20.9868H117.825Z" fill="#010101"/>
<path d="M34.0243 22.3212C34.0316 22.3176 34.0364 22.3102 34.0369 22.302C34.2346 19.0012 33.9517 16.6282 30.4228 15.5006C27.5003 14.5574 27.6598 10.984 30.5291 9.32352C35.0457 6.7597 39.7615 8.65931 44.3711 9.01797C45.6729 9.12425 46.5231 10.8645 46.5762 12.4054C46.6294 13.9198 45.6331 15.0489 44.3711 15.381C42.3918 15.939 42.2191 17.2275 42.2456 18.8615C42.3785 28.2134 42.5246 37.592 42.5777 46.9306C42.5777 48.4716 43.4943 48.7505 44.6235 48.9764C45.9519 49.2288 46.4434 50.1852 46.5231 51.3542C46.6028 52.4568 45.9386 53.2804 44.9822 53.6922C39.8545 55.8708 34.6737 55.0472 29.5328 53.6922C28.2575 53.3601 27.8723 51.8989 28.1247 50.6369C28.4302 49.1491 29.6391 48.2989 31.0206 48.352C33.6376 48.4052 34.1158 47.1166 33.9962 44.845C33.8634 41.9757 33.9165 39.1063 33.9962 36.237C34.076 34.3108 33.6641 33.4473 31.4059 33.7529C26.3579 34.4702 21.2834 34.2178 16.2621 33.6466C14.389 33.4208 13.6451 34.1115 14.0038 35.7455C14.5219 38.0835 14.0038 40.355 13.8444 42.6399C13.592 46.1203 13.4326 49.3085 18.1218 49.893C19.2244 50.0258 20.141 50.8893 20.048 52.231C19.9417 53.7453 18.9189 54.8479 17.5639 54.9675C12.516 55.3527 7.46802 55.5786 2.39352 55.6583C0.932273 55.6583 -0.143746 54.5557 0.0156628 53.0147C0.241491 50.969 1.01198 48.817 3.4961 48.9099C6.23261 49.0162 6.28575 47.7542 6.44515 45.5491C7.05622 37.4193 6.08649 29.3027 6.21933 21.1994C6.2459 19.4327 6.16618 18.1043 3.7352 17.8386C0.586881 17.4799 0.533757 14.4777 0.28136 12.1796C0.028963 9.86816 2.12784 9.61576 3.89462 9.20395C8.33149 8.15451 12.6355 9.0047 16.9395 9.89473C19.065 10.3331 19.9417 11.9139 19.8886 14.0925C19.8355 16.1648 18.5071 16.9618 16.7403 17.3205C11.1743 18.5028 14.4554 22.8334 14.0436 25.6496C13.6584 28.2666 16.5277 27.7485 18.0155 27.5492C21.7351 27.0577 25.4679 26.9647 29.214 26.9647C32.4861 26.9647 35.0184 26.0928 33.9916 22.3333C33.9893 22.3251 33.9993 22.3183 34.0053 22.3244C34.0078 22.3269 34.0117 22.3275 34.0149 22.3259L34.0243 22.3212Z" fill="#010101"/>
<path d="M240.092 56.4966C240.088 56.4876 240.079 56.4819 240.068 56.4819C235 56.482 229.957 56.535 224.888 56.4819C222.271 56.4554 220.916 54.9675 220.73 52.324C220.531 49.7868 221.607 48.2989 224.184 48.0465C225.672 47.9137 226.03 47.2229 226.256 45.7351C227.585 36.6621 227.027 27.5094 227.611 18.4099C227.744 16.3907 226.535 16.2047 225.074 16.4571C222.696 16.8955 220.438 17.0682 220.225 13.8401C220.026 10.8645 221.58 8.71251 224.556 8.65937C235.528 8.43355 246.514 8.49995 257.487 8.49995C259.466 8.49995 260.542 9.73538 260.409 11.728C260.21 14.1324 259.825 16.5235 259.533 18.9279C259.28 20.9737 258.231 22.1559 256.052 22.0762C253.821 21.9965 251.642 21.5582 251.496 18.8482C251.363 16.4704 250.446 16.311 248.348 16.5899C245.093 17.0018 241.759 17.0018 238.451 16.922C236.246 16.8689 235.582 17.6925 235.582 19.7914C235.635 28.426 235.117 27.1773 242.675 27.1242C245.08 27.1242 247.856 26.3271 249.623 29.0238C250.367 30.1795 251.084 31.3087 250.234 32.6636C249.49 33.899 248.361 34.457 246.9 34.2843C243.924 33.9522 240.975 34.2843 238.013 34.5898C236.086 34.7891 235.143 35.6924 235.09 37.4592C234.984 40.2222 235.037 42.9455 235.064 45.7086C235.064 47.1698 235.887 47.5285 237.242 47.4488C240.523 47.2495 243.831 46.9307 247.112 47.0635C250.167 47.1698 251.602 46.0141 251.748 43.0119C251.828 41.1389 252.306 39.2658 254.724 39.5979C257.102 39.93 259.772 40.1824 259.745 43.6495C259.719 46.386 259.852 49.1358 259.612 51.8724C259.333 55.1801 257.235 56.5882 253.953 56.5351C249.317 56.4554 244.721 56.5351 240.085 56.5351C240.097 56.5351 240.105 56.5222 240.1 56.5113L240.092 56.4966Z" fill="#010101"/>
<path d="M95.4369 47.5121C95.4356 47.5141 95.4349 47.5164 95.4347 47.5187C95.302 49.6157 95.2356 51.1558 95.0497 52.6693C94.7176 55.18 93.429 55.8442 90.7457 55.8708C83.5989 55.9505 76.4919 55.3527 69.3717 55.4589C65.785 55.5121 62.1983 54.8745 58.6116 55.9505C57.23 56.3623 56.0743 55.2066 55.5828 53.8782C54.9452 52.2177 55.1179 49.8531 56.5526 49.3881C62.9555 47.2361 60.6308 41.8561 60.9097 37.8044C61.3215 31.7071 60.7105 25.5566 60.6042 19.4061C60.5776 17.7456 60.3784 16.4304 58.3725 15.9256C56.4463 15.4607 55.9681 13.7205 56.1673 11.9803C56.3931 10.0541 57.7083 9.08435 59.5813 9.08435C68.1628 9.13749 76.7044 9.21719 85.2859 9.33675C85.7243 9.33675 86.1627 9.36333 86.6143 9.4696C88.8726 9.90797 91.9147 7.95521 93.3493 10.6253C94.8637 13.415 94.4519 16.8289 94.4519 19.9773C94.4519 21.93 93.4291 23.7898 91.0911 23.7234C88.7132 23.6702 87.066 22.3418 87.0926 19.8046C87.0926 17.1611 85.99 16.3507 83.4262 16.6031C80.2513 16.9087 77.0498 16.8555 73.8882 16.271C71.7893 15.8858 70.9392 16.6828 70.8595 18.9146C70.5805 26.5263 71.1384 27.1639 78.9096 26.2739C81.1413 26.0215 83.4262 25.6894 83.5989 28.7315C83.7317 31.468 81.8321 33.0089 79.2683 33.1949C77.3155 33.3277 75.3229 32.9159 73.3701 32.7299C71.6831 32.5705 70.9126 33.3144 70.9126 34.9882C70.9126 37.0871 70.8329 39.186 70.9392 41.2716C71.351 47.8073 71.5502 47.9667 78.086 47.9136C80.0653 47.9136 82.0314 47.6346 84.0107 47.5815C85.9634 47.5284 87.0394 46.7313 87.159 44.6059C87.2121 43.5299 87.5974 42.4539 88.0357 41.431C88.8593 39.558 90.5996 39.0266 92.4195 39.1196C94.1597 39.1993 94.7043 40.6605 94.9036 42.1483C95.1825 44.1011 95.3154 46.0671 95.4615 47.5018C95.4615 47.4938 95.4512 47.4907 95.4468 47.4973L95.4369 47.5121Z" fill="#010101"/>
<path d="M269.11 46.7181C269.103 46.7181 269.097 46.7122 269.097 46.7048C269.098 45.3809 269.177 44.0701 269.097 42.7462C268.871 39.9034 270.226 38.5219 272.91 37.9241C275.553 37.313 277.015 38.668 277.758 40.7934C280.243 47.9402 285.569 49.9993 292.544 49.5078C296.927 49.1757 300.129 46.8111 299.956 43.0783C299.757 38.7211 299.903 36.7684 293.779 35.4931C288.731 34.4702 283.657 33.5138 278.941 31.1359C273.84 28.5455 271.382 23.8563 272.325 17.7323C273.016 13.1759 278.25 8.4335 283.112 7.86228C287.27 7.3442 291.215 8.0217 294.975 9.84161C296.409 10.5324 297.538 11.0239 298.694 8.99143C300.076 6.53389 304.021 7.50362 305.15 10.5058C306.306 13.5346 306.253 16.7892 306.173 19.9375C306.093 22.5544 304.486 24.0954 301.71 24.2946C299.039 24.4939 298.07 23.4179 297.273 20.7345C296.33 17.6393 294.244 15.0489 290.272 14.7434C286.048 14.4113 282.859 15.6202 281.04 19.4858C279.91 21.8902 280.761 23.843 283.218 24.8659C287.19 26.5264 291.321 27.5094 295.546 28.3994C298.389 29.0105 301.391 29.8341 303.795 31.375C310.636 35.7588 310.145 48.3919 303.211 52.6959C295.758 57.3321 288.186 56.7476 280.535 53.2539C278.914 52.51 277.865 51.8192 276.536 53.9446C275.327 55.8974 272.976 55.3527 271.077 54.7417C269.336 54.1837 268.978 52.6694 269.004 51.0221V46.8244C269.004 46.7657 269.052 46.7181 269.11 46.7181Z" fill="#010101"/>
<path d="M242.157 7.58328C242.16 7.58328 242.16 7.57931 242.158 7.57886C239.574 7.14231 236.768 6.7577 234.014 6.17517C232.5 5.84307 231.397 4.82019 231.61 3.11984C231.889 1.22022 233.403 0.609167 235.024 0.808428C238.079 1.1671 241.121 1.4992 244.203 1.3265C246.249 1.22023 248.148 1.60547 248.56 3.86376C249.025 6.45415 246.793 6.78625 245 7.22462C244.176 7.45045 243.26 7.45044 242.157 7.58328Z" fill="#010101"/>
</svg>
