<svg width="231" height="55" viewBox="0 0 231 55" fill="none" xmlns="http://www.w3.org/2000/svg">
<path d="M144.187 39.5109C147.559 30.9777 151.494 23.0898 153.575 14.5657C154.22 11.8303 155.202 9.19494 156.056 6.53229C156.519 5.15099 156.919 3.56068 158.873 3.76969C160.718 3.98779 162.98 3.34257 163.898 5.79621C164.88 8.44068 166.143 11.0125 166.715 13.7387C167.718 18.4898 168.936 23.1815 170.226 28.0072C171.213 31.7009 176.577 32.2169 177.884 28.6241V28.6241C180.192 22.2719 182.146 15.8016 184.391 9.42214C184.945 7.83182 183.927 7.94995 183.1 7.45923C182.146 6.90489 181.292 5.98704 181.719 4.78749C182.082 3.76969 182.855 2.64284 184.054 2.76098C185.954 2.97908 187.553 2.42473 189.307 1.84313C190.352 1.50689 191.851 1.37967 192.615 2.64283C193.351 3.86965 193.042 5.25096 192.342 6.47777C190.588 9.51301 188.316 12.2756 187.489 15.8016C185.009 26.3249 178.956 35.6851 177.275 46.5083C176.357 52.4243 175.339 53.0786 171.414 53.1604C169.36 53.224 168.406 52.4879 167.733 50.4887C164.571 41.1649 160.954 31.9865 158.991 22.3264V22.3264C158.757 21.1809 157.037 21.243 156.627 22.3377C154.665 27.5712 152.794 32.4724 151.049 37.4117C149.631 41.4375 148.468 45.5087 147.241 49.6253C146.568 51.8972 144.996 53.1604 142.824 53.5512C140.771 53.9147 138.59 52.9332 138.835 50.8794C139.48 45.1725 136.381 40.5378 135.091 35.4125C132.846 26.5794 129.838 17.9553 127.148 9.24037C127.021 8.90414 126.876 8.54064 126.812 8.19531C126.476 6.3869 123.677 5.12372 125.222 2.97907C126.721 0.898025 129.42 1.5069 131.574 1.01617C133.419 0.589059 135.472 0.834417 137.399 0.925292C138.817 0.988905 140.007 1.47963 140.561 2.97907C141.152 4.54212 140.471 5.67807 139.207 6.32329C136.69 7.64098 136.872 9.42213 137.517 11.8485C139.906 21.0229 141.996 30.2154 144.203 39.4171C144.205 39.4249 144.204 39.4331 144.201 39.4406L144.182 39.4847C144.18 39.4885 144.183 39.4928 144.187 39.4928V39.4928C144.191 39.4928 144.194 39.4973 144.192 39.5011L144.187 39.5109Z" fill="#010101"/>
<path d="M60.2504 1.83855C60.2488 1.83694 60.25 1.83419 60.2523 1.83424C74.8253 2.11078 84.9367 16.0399 84.6369 29.6965C84.3006 43.4732 69.906 55.2506 59.9461 53.8693C52.6124 52.8515 44.5791 51.9064 39.5173 46.263C35.128 41.383 32.4563 34.5129 32.7653 27.7336C33.5012 11.597 48.0998 1.22897 60.2485 1.84287C60.2508 1.84299 60.252 1.84019 60.2504 1.83855V1.83855ZM42.5435 27.361C42.18 35.7669 45.2425 42.1736 53.0668 46.1085C65.2805 52.2517 75.0677 45.9813 76.0764 33.0952C76.6308 26.0342 75.4312 19.9001 70.6512 14.1932C64.8261 7.22303 52.1762 6.70503 46.3875 13.5752C42.893 17.705 42.7347 22.3969 42.5804 27.334C42.5801 27.344 42.5719 27.3519 42.5619 27.3519H42.5525C42.5475 27.3519 42.5435 27.356 42.5435 27.361V27.361Z" fill="#010101"/>
<path d="M99.8377 15.8497C99.8462 15.8412 99.8607 15.8463 99.8623 15.8582C99.9504 16.5424 99.9865 17.0264 100.04 17.5192C100.404 19.8547 98.9407 23.2625 100.904 24.3257C103.421 25.7434 106.883 24.6892 109.864 24.1985C111.309 23.9532 112.899 22.8808 113.826 24.4166C114.898 26.1705 113.672 28.1607 113.299 30.0054C112.999 31.6594 111.491 32.0865 110.164 31.8502C107.465 31.4231 104.793 32.032 102.13 31.8775C100.195 31.7503 99.8585 32.55 99.8585 34.213C99.8585 37.748 101.113 41.1195 101.049 44.7091C101.022 46.2994 102.612 47.717 104.52 47.9624C106.456 48.2078 108.419 48.2623 110.345 48.3895C114.399 48.6622 117.461 47.0991 119.306 43.4822C120.042 42.0373 121.114 41.3649 122.496 41.9828C123.722 42.5371 123.813 44.0366 123.568 45.1453C122.496 50.3979 120.16 53.9783 113.508 53.8602C109.7 53.7966 105.965 53.733 102.212 53.0969C99.2405 52.6061 96.3871 53.3422 93.5608 54.1419C92.0614 54.569 90.8618 54.0147 89.9349 53.0423C88.9535 51.9427 89.5351 50.7705 90.2712 49.6981C92.3522 46.6629 92.1432 43.1914 91.7706 39.8472C91.0072 32.5772 91.0709 25.3072 91.1526 18.0372C91.2163 13.9024 90.5347 9.81297 88.8444 5.95077C87.5903 3.03367 89.117 1.07076 92.2795 1.53423C99.7676 2.67017 107.256 2.15218 114.735 1.93408C116.271 1.90682 117.834 1.93408 118.297 3.68797C118.788 5.49639 118.697 7.43203 117.134 8.77699C115.88 9.87658 114.771 8.64976 113.544 8.37713C109.464 7.48656 105.229 6.8777 100.994 8.01364C99.6404 8.37714 99.804 9.24046 99.8312 10.2583C99.8948 12.2212 99.8312 14.1568 99.8312 15.9016V15.8797C99.8312 15.8767 99.8288 15.8743 99.8259 15.8743V15.8743C99.8212 15.8743 99.8188 15.8686 99.8221 15.8653L99.8377 15.8497Z" fill="#010101"/>
<path d="M205.965 2.37979C205.97 2.38535 205.978 2.38872 205.986 2.38928C212.451 2.84991 218.436 1.2889 224.539 1.43421C226.902 1.49783 227.82 2.62468 228.674 4.25135C229.265 5.35094 228.674 6.396 228.002 7.32293C227.266 8.27712 226.348 8.02267 225.357 7.62282C220.477 5.65991 215.506 7.65008 210.599 7.46833C209.309 7.40472 209.063 8.42252 209.009 9.49484C208.709 14.2204 208.091 18.9459 208.391 23.6987C208.454 24.462 208.118 25.6616 209.554 25.4162C212.408 24.8891 215.443 26.0887 218.205 24.6165C218.732 24.3439 219.278 23.944 219.923 24.3166C222.804 26.0069 221.459 28.9512 221.64 31.2504C221.768 32.7862 219.678 33.5223 217.896 33.1497C217.069 32.9952 216.27 32.5953 215.443 32.5045C210.099 31.9501 208.691 33.2042 208.536 38.4204C208.473 40.7559 208.445 43.0551 208.291 45.3542C208.164 47.6625 208.936 48.762 211.453 48.5439C213.598 48.3622 215.752 48.6712 217.896 48.6076C221.395 48.4803 224.803 48.3077 227.556 45.4451C229.001 43.9457 230.628 44.7726 230.964 46.7628C231.428 49.4345 227.284 53.9056 224.585 53.7602C216.488 53.2695 208.391 53.3967 200.285 53.7329C198.994 53.7965 197.404 54.16 196.632 52.8696C195.805 51.452 196.968 50.2251 197.886 49.3709C201.721 45.8086 200.585 41.0286 200.83 36.7302C201.357 27.6154 200.703 18.4824 200.239 9.36762C200.176 8.32255 200.176 7.55921 198.922 7.18662C197.477 6.7595 196.841 5.53269 197.204 4.08777C197.631 2.4611 198.985 2.33388 200.421 2.37023C202.384 2.43384 204.32 2.37023 205.91 2.37023H205.942C205.95 2.37023 205.959 2.37367 205.965 2.37979V2.37979Z" fill="#010101"/>
<path d="M23.3415 54.5326C23.3415 54.5376 23.3374 54.5417 23.3324 54.5416C17.7829 54.4769 12.2607 53.3157 6.68406 54.8144C5.2664 55.2142 3.12175 54.7235 2.11303 53.0605C1.15884 51.561 2.2039 50.1434 3.09448 49.0711C5.21187 46.4629 4.47579 43.4277 4.47579 40.6015C4.47579 30.8778 4.20316 21.1451 3.94871 11.4214C3.92145 9.64028 3.85783 7.79551 1.46781 7.15938C0.66811 6.94128 -0.222465 5.99618 0.0501605 4.85115C0.295524 3.8697 1.00435 3.26083 2.1312 3.06999C5.9934 2.45204 9.82834 2.91551 13.6633 3.06999C15.6898 3.16087 17.1983 5.0329 15.4172 6.93219C13.6996 8.77696 13.5179 10.958 13.3361 13.0117C12.5092 23.2261 11.7095 33.4769 12.9999 43.7549C13.0908 44.5818 13.1271 45.5087 12.9363 46.3357C12.3819 48.8166 13.1544 49.0347 15.6989 49.2528C19.7246 49.589 23.4596 49.6163 27.2037 47.9987C28.2215 47.5716 29.2847 47.3535 30.0844 46.5538C31.1568 45.4542 32.329 45.636 33.3923 46.4266C34.6191 47.3172 34.3101 48.4531 33.883 49.7072C32.4381 53.7602 30.1117 54.8598 23.2688 54.5236H23.3325C23.3374 54.5236 23.3415 54.5276 23.3415 54.5326V54.5326Z" fill="#010101"/>
</svg>
