<svg width="460" height="47" viewBox="0 0 460 47" fill="none" xmlns="http://www.w3.org/2000/svg">
<path d="M411.506 25.3076C411.507 25.3087 411.507 25.3102 411.507 25.3118C411.032 34.5747 406.158 41.1801 397.71 43.948C392.273 45.7016 387.001 44.0694 381.763 42.5033C374.847 40.4299 371.02 35.3566 368.98 28.8606C367.26 23.3131 368.318 17.8759 370.778 12.6482C373.127 7.64112 377.616 5.42431 382.027 2.79945C386.869 -0.0901067 391.832 0.61574 396.718 1.81788C402.971 3.38398 407.272 7.76243 409.93 13.343C411.684 17.0928 412.037 21.4272 411.496 25.3424V25.3115C411.496 25.3066 411.502 25.3042 411.506 25.3076ZM376.447 23.4785C376.453 23.4785 376.457 23.4835 376.456 23.4893C376.302 24.9333 375.988 26.9253 377.627 29.2246C381.299 34.4633 385.446 37.6285 392.24 37.1212C397.159 36.7683 401.736 34.4302 403.412 29.6547C405.441 23.7543 404.074 18.284 400.556 13.321C397.589 9.14104 393.332 8.74399 388.523 9.29544C380.408 10.2754 376.46 14.4431 376.491 23.4337C376.491 23.458 376.471 23.4785 376.447 23.4785Z" fill="#010101"/>
<path d="M69.2468 23.7168C69.2529 23.7138 69.2601 23.7185 69.2598 23.7253C68.9029 32.7827 64.844 38.9872 56.2463 42.823C49.993 45.6023 44.0154 44.6648 37.9164 43.6061C34.4423 42.9774 31.7844 40.6393 30.4499 37.1542C30.2183 36.5697 30.0198 35.9851 29.6669 35.4778C24.7811 28.4855 25.7185 21.0631 28.2552 13.6297C28.8838 11.7107 30.1301 10.0784 31.7292 8.74391C33.2512 7.42045 34.8173 6.13008 36.1408 4.59707C37.8172 2.67805 39.8134 1.86191 42.3169 2.06043C43.2103 2.13763 44.1918 2.06044 45.0962 1.82884C60.5366 -1.92097 69.6354 10.3431 69.481 22.3866C69.481 22.8395 69.3703 23.2824 69.2931 23.7345C69.2895 23.7557 69.261 23.7608 69.2503 23.7421L69.243 23.7293C69.2405 23.7248 69.2422 23.7191 69.2468 23.7168ZM46.916 37.5843C51.2944 37.8159 56.6875 35.4006 59.4557 31.8052C62.3894 27.9782 61.6836 23.2468 62.3453 18.8684C62.3894 18.5155 61.9924 18.0522 61.7608 17.6552C60.4704 15.7362 59.1469 13.7841 57.8124 11.9092C56.6765 10.31 55.1214 9.17404 53.1252 9.25124C50.3459 9.37256 47.6108 9.20712 44.8756 8.89831C44.0154 8.77699 42.8022 8.94242 42.1846 9.48284C38.7105 12.6481 34.4423 15.1517 34.1776 20.8205C33.9791 24.5703 34.6519 27.8128 36.0195 31.331C37.8613 36.0624 40.9052 37.7828 45.5925 37.5843H47.0042H46.927H46.916Z" fill="#010101"/>
<path d="M429.275 18.3501C429.262 18.3501 429.25 18.3585 429.245 18.3709C428.97 19.0971 428.625 19.5229 428.701 19.9162C429.76 26.2467 428.701 32.6545 429.131 38.985C429.176 39.724 429.01 40.5511 428.745 41.257C428.084 43.0106 426.826 44.2679 424.841 43.8708C422.966 43.5179 421.83 42.2275 421.797 40.2754V30.934C421.797 23.3131 421.797 15.6921 421.874 8.0712C421.874 6.22938 422.029 4.24419 424.224 3.38394C426.573 2.52369 428.481 3.15233 430.003 5.10444C430.587 5.84337 431.326 6.47202 431.723 7.33227C434.304 12.9239 438.947 16.9494 442.862 21.4382C445.046 23.9748 447.704 26.1695 449.744 28.9047C450.535 29.9553 452.015 28.9787 451.988 27.6639C451.96 26.2868 452.093 24.9526 452.093 23.6329C452.093 18.8243 451.895 14.0158 451.707 9.21821C451.617 6.75252 451.576 6.11822 452.713 4.87949C453.682 3.82398 455.226 3.42968 456.593 3.85819C459.251 4.64124 459.88 5.45737 459.483 8.11532C458.667 13.6628 459.527 19.1772 459.913 24.7248C460.222 29.4561 459.527 34.2206 459.99 39.0292C460.222 41.3342 456.318 43.5179 454.013 42.5804C450.803 41.2901 447.528 39.5365 445.884 36.6028C442.763 31.0553 438.065 26.9857 433.852 22.53C432.535 21.1258 432.136 18.8049 429.363 18.3571C429.334 18.3524 429.304 18.3501 429.275 18.3501Z" fill="#010101"/>
<path d="M80.1238 24.9232C79.4179 18.9015 80.9399 13.1224 79.9694 7.29917C79.6937 5.62278 80.5208 3.93537 81.9215 2.76631C83.5979 1.39874 85.5169 1.70755 86.6087 3.58245C88.0976 6.1632 87.5462 9.05275 87.5903 11.832C87.7116 18.1626 87.4359 24.5372 87.9763 30.8237C88.4064 36.3712 93.6782 38.599 98.7184 36.3381C103.957 33.989 104.619 29.4561 104.817 24.813C105.049 19.1111 106.262 13.4753 105.755 7.69621C105.479 4.53093 106.736 3.04204 108.766 2.68912C111.931 2.13768 114.357 4.178 113.85 7.60797C112.758 14.8319 113.221 22.144 112.527 29.412C112.174 32.8861 110.806 35.6212 108.578 38.1248C104.354 42.8892 96.1156 46.2971 88.6491 43.5179C83.1788 41.4886 80.9509 36.6359 79.9694 31.2097C79.5863 29.0423 79.7355 26.9076 80.1152 24.9995C80.1209 24.9707 80.1238 24.9416 80.1238 24.9122V24.9232Z" fill="#010101"/>
<path d="M269.605 16.2903C269.608 16.2886 269.61 16.2852 269.61 16.2815V6.99028C269.61 4.13381 270.857 2.1817 272.731 2.07141C275.003 1.91701 276.955 3.63752 277.066 6.56016C277.496 16.1773 277.926 25.8275 275.422 35.2792C274.132 40.1981 267.846 44.6538 262.717 44.3891C260.688 44.2678 258.659 44.1133 256.662 44.1906C248.689 44.4994 244.31 37.5071 243.88 31.4853C243.373 24.2173 243.604 16.9052 243.45 9.6372C243.406 7.8395 244.034 6.2734 244.619 4.67422C245.17 3.15224 246.373 2.67801 248.016 2.87653C249.736 3.10814 250.475 4.12278 250.674 5.65579C250.795 6.54912 250.597 7.49761 250.674 8.43506C250.905 15.5045 251.148 22.6181 251.413 29.6987C251.611 35.0476 253.288 37.0108 259.894 37.3196C265.916 37.5953 266.61 36.3821 268.452 31.5405C270.368 26.5079 269.162 21.3984 269.663 16.3656C269.665 16.3517 269.658 16.3383 269.646 16.3314L269.604 16.3078C269.597 16.3039 269.598 16.2939 269.605 16.2903Z" fill="#010101"/>
<path d="M161.825 9.11895C161.83 9.12318 161.827 9.13042 161.821 9.13069C158.637 9.27256 155.779 9.52021 154.029 12.2183C153.707 12.714 153.546 13.3189 153.699 13.8899C154.007 15.0467 154.928 15.8151 156.124 16.4752C158.473 17.7656 160.932 18.7802 163.436 19.5192C170.395 21.5154 171.718 27.5261 171.762 32.1803C171.762 36.0073 171.608 40.0328 167.66 42.4922C166.336 43.3525 165.079 44.1686 163.48 44.3671C162.436 44.4961 161.416 44.7242 160.481 45.1428C159.047 45.7846 157.511 46.4785 155.993 46.0742C152.575 45.1637 149.736 43.2924 147.422 40.3416C145.166 37.4574 144.801 35.348 146.717 32.76C147.507 31.6918 148.905 31.0521 150.091 31.652C152.547 32.8944 153.275 36.3548 155.938 37.7611C156.415 38.0126 156.965 38.1018 157.495 38.0083C158.941 37.7535 160.359 36.8514 161.605 35.6985C165.355 32.3347 164.494 27.7246 159.653 26.357C156.918 25.574 154.381 24.4821 151.877 23.269C146.562 20.6882 144.257 14.9422 146.407 9.54909C147.499 6.81394 149.848 5.17063 152.263 3.72585C158.473 -0.0239574 165.983 1.0679 169.689 6.2294C170.472 7.28817 171.134 8.33591 171.134 9.5932C171.134 11.1593 170.748 12.7585 169.182 13.5746C167.583 14.4349 166.601 13.343 165.542 12.3614C164.406 11.2696 163.193 10.3321 161.825 9.11895Z" fill="#010101"/>
<path d="M215.801 45.3156C211.466 41.3672 209.514 36.0182 208.147 30.7354C207.132 26.7871 205.489 23.1586 204.198 19.3206C203.013 15.7451 201.555 12.2786 200.615 8.57462C200.27 7.21637 200.57 5.73808 201.581 4.76856C203.989 2.4614 205.986 3.01109 207.132 6.78078C209.149 13.3493 211.692 19.7225 214.138 26.1846C215.094 28.7087 217.827 29.0356 218.966 26.5886C221.469 21.1514 223.885 15.648 226.113 10.1005C226.818 8.34689 227.833 6.81387 228.77 5.21469C229.785 3.49419 231.506 3.10818 233.226 4.04563C235.024 4.98309 235.3 6.58227 234.517 8.42409C232.366 13.4312 230.337 18.4272 228.142 23.3902C225.484 29.445 222.672 35.4668 219.969 41.5216C219.189 43.2374 218.605 45.0628 215.813 45.2698C215.8 45.2707 215.79 45.2814 215.79 45.2943C215.79 45.3009 215.792 45.3071 215.797 45.3117L215.801 45.3156Z" fill="#010101"/>
<path d="M346.692 9.7145C346.694 9.7145 346.694 9.71172 346.692 9.71144C344.122 9.32826 342.175 9.28551 340.151 9.7145C338.474 10.0674 337.03 9.40568 336.511 7.64107C336.004 5.72205 336.743 4.20007 338.541 3.41702C340.691 2.47957 343.073 2.12665 345.378 2.12665C350.341 2.12665 355.304 2.51266 360.267 2.83249C361.756 2.90969 363.157 3.49423 363.003 5.33604C362.881 6.90214 362.804 8.57852 360.775 9.08584C360.39 9.18115 360.005 9.27613 359.618 9.36623C356.65 10.0589 353.89 12.5568 353.877 15.6047C353.852 21.3863 353.821 27.0432 353.97 32.6876C354.047 35.0698 353.385 37.2976 353.032 39.5696C352.651 41.931 352.126 42.5917 349.934 42.9667C348.714 43.1754 347.391 42.8645 346.659 41.8661C345.928 40.8685 345.588 39.6785 345.875 38.4005C347.242 32.5442 346.536 26.5997 346.691 20.7323C346.768 17.1815 346.691 13.6196 346.691 9.71603C346.691 9.71518 346.692 9.7145 346.692 9.7145Z" fill="#010101"/>
<path d="M333.544 4.77241C333.544 4.76928 333.54 4.76925 333.539 4.77228C332.451 8.97677 331.895 9.36184 328.427 9.56003C327.184 9.60809 325.929 9.21598 324.669 9.21633C323.145 9.21674 322.252 10.7166 322.161 12.2373C321.793 18.3609 322.639 24.5151 322.571 30.6692C322.571 33.1287 322.769 35.5881 322.692 38.0144C322.692 39.2276 322.692 40.518 321.986 41.6539C321.093 43.1428 320.233 44.6979 318.038 44.2347C316.119 43.8487 315.733 42.3929 315.689 40.7165C315.689 39.7791 315.303 38.8416 315.38 37.9814C316.362 29.7318 314.994 21.4932 315.612 13.2878C315.635 12.9674 315.669 12.6409 315.684 12.3078C315.756 10.7187 314.166 9.83805 312.579 9.74002C311.348 9.66403 310.092 9.57771 308.851 9.46078C307.329 9.30637 306.27 8.64463 306.193 6.84693C306.116 5.04923 306.777 3.48314 308.498 3.37285C315.722 2.86552 322.957 1.96115 330.181 2.7442C331.528 2.89631 332.04 4.26865 333.405 4.82607C333.443 4.84139 333.486 4.83226 333.514 4.8036L333.544 4.7743C333.544 4.7738 333.544 4.77312 333.544 4.77241Z" fill="#010101"/>
<path d="M7.24318 36.7593C7.24445 36.758 7.24629 36.7575 7.24805 36.7579C10.4563 37.4634 13.2678 37.9702 16.2668 37.2315C19.002 36.5697 20.9982 37.6616 21.3842 39.6578C21.7702 41.8084 20.4026 43.6392 17.6344 43.9922C13.9618 44.4223 10.2892 44.7752 6.57246 44.698C2.51385 44.6208 0.594829 42.393 0.627915 38.0917C0.705117 32.0369 0.550714 25.9821 0.396311 19.9162C0.319109 16.1223 1.13524 12.2953 0.12059 8.46827C-0.508054 6.08604 1.44405 4.67434 3.13146 3.65969C4.92916 2.52372 6.80407 3.96851 7.31139 6.51617C8.48045 12.6923 7.86284 18.9016 7.86284 25.1218C7.86284 28.9488 7.47683 32.7428 7.23419 36.7242V36.7556C7.23419 36.7603 7.23986 36.7626 7.24318 36.7593Z" fill="#010101"/>
<path d="M128.187 2.17078C128.195 2.178 128.204 2.18332 128.214 2.18605C132.731 3.43631 132.687 7.07111 132.731 10.1887C132.911 19.8715 132.829 29.5181 132.812 39.4793C132.808 41.4188 131.973 43.7027 130.163 44.3998C129.512 44.6503 128.767 44.6658 127.846 44.1465C125.662 42.9003 125.066 40.8599 124.758 38.3674C123.897 31.0994 125.651 23.9086 125.066 16.6406C124.835 13.7511 124.791 10.8174 124.912 7.88371C125.032 5.09504 126.215 3.72692 128.181 2.25248C128.208 2.23275 128.211 2.19403 128.187 2.17078Z" fill="#010101"/>
<path d="M295.934 9.6373C295.947 9.6373 295.956 9.64849 295.954 9.66084C295.333 13.6344 296.155 17.6191 295.528 21.6367C295.054 24.7248 295.605 28.0444 295.881 31.2097C296.157 34.0221 295.881 36.8013 295.296 39.5365C294.944 41.3342 294.006 42.8562 292.054 43.0106C289.826 43.2091 288.734 41.6871 288.337 39.6137C288.183 38.8748 287.709 38.0476 287.863 37.3859C289.032 32.5001 287.356 27.6584 288.095 22.7285C288.834 17.7214 288.8 12.6482 288.988 7.56389C288.988 6.74775 289.341 6.07498 289.539 5.38016C289.97 3.73687 290.4 1.66345 292.55 1.93917C294.502 2.17078 295.716 3.81408 295.914 5.8875C296.035 7.12698 295.915 8.37737 295.914 9.61697C295.914 9.6282 295.923 9.6373 295.934 9.6373Z" fill="#010101"/>
</svg>
