<svg width="441" height="60" viewBox="0 0 441 60" fill="none" xmlns="http://www.w3.org/2000/svg">
<path d="M239.027 32.8235C239.024 32.8205 239.023 32.816 239.025 32.8122C242.953 24.0196 246.621 16.0054 250.165 7.94614C252.751 2.0865 257.109 -0.00218591 262.585 2.04135C264.357 2.69618 265.441 3.50907 264.357 5.31551C259.965 12.8348 262.077 21.0541 261.817 28.9573C261.738 31.3057 262.122 33.8121 262.088 36.2847C262.088 38.7121 261.625 41.2185 264.865 42.2572C265.983 42.6072 266.875 43.7588 266.559 45.1927C266.209 46.7733 264.978 47.6201 263.556 47.6201C259.898 47.6991 256.228 47.7781 252.638 47.3491C250.673 47.1233 249.702 44.6507 250.899 43.454C254.873 39.4459 252.977 34.704 252.83 30.346V30.346C252.747 26.7712 248.703 26.2302 247.226 29.4867C246.035 32.1124 244.844 34.7393 243.651 37.3685C242.838 39.1863 242.104 41.0717 241.032 42.7314C240.264 43.9282 239.417 45.6217 237.52 45.1588C235.556 44.662 233.512 43.612 233.049 41.5346C232.621 39.6156 232.027 37.7693 231.329 35.9488C229.49 31.1561 222.675 32.3578 223.106 37.4728C223.205 38.6507 223.323 39.8222 223.453 40.9927C223.487 41.4556 223.487 42.0766 223.803 42.3024C226.275 44.312 226.806 46.1185 223.374 47.5862C219.637 49.1668 214.895 47.6991 213.653 44.8878C213.032 43.4991 214.229 43.0024 214.612 42.8443C217.819 41.4556 217.277 38.7572 217.04 36.2508C216.148 27.6476 217.232 19.0896 217.266 10.4864C217.266 8.66872 217.491 7.55099 215.222 7.78808C213.45 7.94614 212.219 7.13325 212.061 5.24778C211.903 3.23811 213.145 1.89457 214.872 1.58973C217.729 1.09296 220.653 0.934893 223.554 0.776829C224.909 0.697798 225.903 1.70264 226.332 2.85425C229.839 12.7892 235.61 21.733 239.044 32.8132C239.047 32.8233 239.034 32.831 239.027 32.8235V32.8235Z" fill="#010101"/>
<path d="M26.9233 33.5467C26.9233 33.5488 26.9258 33.5498 26.9273 33.5483C29.9273 30.4216 30.853 26.6075 32.5571 23.3348C35.1426 18.3219 37.1409 13.0042 39.3877 7.78808C41.7361 2.27844 45.8232 0.189743 51.1522 1.77038C54.2344 2.69618 54.9344 4.70584 52.6199 6.86227C51.4683 7.94614 51.1183 9.01872 51.1183 10.4865C51.1183 17.78 51.3102 25.0622 50.8473 32.3557C50.6215 35.9008 53.3199 38.0685 53.8167 41.2637C54.5054 45.7346 53.6586 47.1685 49.0747 47.3943C47.686 47.4733 46.2973 47.5524 44.9086 47.4733C43.0909 47.3943 41.0925 47.6991 40.2006 45.4298C39.4329 43.4201 40.8554 42.4604 41.9393 41.1508C43.6328 39.1072 42.899 36.4427 42.7861 34.0944V34.0944C42.6168 29.7731 36.6988 28.6956 34.8464 32.6033C34.1077 34.1616 33.3765 35.7082 32.6474 37.2556C31.4507 39.7621 30.141 42.1556 27.9394 43.962C25.4668 46.0056 23.3894 45.4298 22.5765 42.4604C20.5845 35.0976 16.1035 28.829 14.0174 21.5109C13.9233 21.1809 13.6135 20.9575 13.2711 20.9801V20.9801C12.9207 21.0033 12.6387 21.2766 12.6014 21.6257C12.2062 25.319 11.5541 29.0123 11.704 32.7057C11.7831 34.7831 12.1669 36.9508 12.054 39.1072C11.9411 40.9588 11.8621 42.3475 14.4476 42.4604C15.8363 42.5395 16.762 43.612 16.525 45.4298C16.333 47.1685 15.4072 48.0152 13.9056 48.0943C10.6653 48.2523 7.47018 48.1733 4.22988 48.1733C2.26537 48.1733 1.68957 46.4798 1.18151 45.1701C0.560545 43.5104 1.87021 42.5846 3.30408 42.2346C5.31374 41.7379 6.16051 40.4621 5.92341 38.5314C4.99761 29.6573 6.88309 20.8735 6.61212 12.0332C6.53309 9.44774 6.11535 7.91227 3.14601 8.02517C1.13635 8.1042 -0.17332 6.90744 0.0186145 4.94294C0.176678 2.93327 1.75731 2.13167 3.64278 2.19941C6.42018 2.27844 9.19758 2.39135 11.9298 2.69619C14.8201 3.00102 16.0169 4.66068 16.9766 7.55098C19.8287 16.175 23.3675 24.574 26.8286 33.5795C26.836 33.5986 26.8606 33.6039 26.875 33.5894L26.9193 33.5451C26.9208 33.5436 26.9233 33.5446 26.9233 33.5467V33.5467Z" fill="#010101"/>
<path d="M337.256 18.8731C337.252 18.8691 337.254 18.8623 337.26 18.8611C340.069 18.2508 343.495 20.8684 346.313 17.4752C347.081 16.5155 349.124 16.9784 349.903 18.401C350.75 19.9816 350.829 21.8671 349.328 23.0638C346.663 25.1074 346.121 27.8848 345.545 30.967C344.586 36.2509 341.108 38.8702 335.678 39.1863C335.057 39.1863 334.447 39.1524 333.826 39.1863C332.596 39.2992 331.67 39.9202 331.817 41.196C331.929 42.4718 333.126 42.1557 333.973 42.2347C337.021 42.5056 340.07 42.0766 343.073 43.1266C345.963 44.1653 347.781 45.904 348.244 48.9524C348.741 52.1588 347.702 54.3943 344.845 56.2459C338.523 60.2991 332.268 60.491 325.799 56.7088C321.215 54.0104 320.357 50.4653 324.105 46.604C327.379 43.2056 326.149 39.0057 324.997 36.3412C320.371 25.476 324.991 18.185 337.234 18.9076C337.247 18.9083 337.258 18.8979 337.258 18.8847V18.8781C337.258 18.8762 337.258 18.8744 337.256 18.8731V18.8731ZM333.419 32.7299C334.259 32.8166 335.117 32.7568 335.943 32.5791C337.845 32.17 339.945 31.8164 339.945 29.1154C339.945 26.338 337.665 24.7574 335.091 24.7235C332.2 24.7235 329.649 25.7283 329.649 29.4654C329.649 32.368 331.488 32.5308 333.419 32.7299ZM333.86 53.6491C333.859 53.6491 333.858 53.647 333.86 53.6467C336.059 53.1538 338.639 53.5673 340.679 51.8766C341.255 51.4137 342.034 51.0298 341.91 50.1379C341.797 49.1782 340.905 48.8621 340.216 48.9863C337.168 49.483 334.199 48.7153 331.196 48.5234C330.191 48.4895 329.073 48.9072 328.723 50.183C328.339 51.6508 329.683 51.8427 330.383 52.5314C331.334 53.5277 332.563 53.4252 333.86 53.6434C333.864 53.644 333.864 53.6491 333.86 53.6491V53.6491V53.6491Z" fill="#010101"/>
<path d="M168.517 35.5199C168.521 35.5185 168.525 35.5218 168.525 35.5262C168.333 39.3377 167.986 42.225 170.953 44.2669C172.455 45.2718 171.642 47.5411 170.761 47.733C167.487 48.4217 164.134 50.0814 160.769 48.8508C159.268 48.3089 157.958 46.5024 159.877 44.8427C162.305 42.7202 162.192 40.1799 161.842 37.3234C161.492 34.4331 161.616 31.4977 161.571 28.5735C161.571 27.5348 162.147 26.1461 160.95 25.638C158.06 24.4413 158.093 22.2848 159.99 20.7832C162.192 19.0106 165.116 15.9961 168.006 19.2364C169.858 21.28 171.089 20.8961 172.793 19.8913C180.313 15.4994 189.763 22.0138 188.6 29.838C188.216 32.5025 188.95 35.2347 188.171 37.9783C187.674 39.717 188.171 41.5686 189.943 42.8782C191.095 43.6911 191.795 44.9218 190.903 46.4685C190.135 47.7782 189.13 48.433 187.584 48.3991C186.037 48.3653 184.501 48.5572 182.955 48.3991C178.63 48.0153 177.592 45.9266 180.335 42.5395C182.379 40.0331 181.103 37.1766 181.566 34.5573C181.871 32.6267 181.34 30.4364 181.295 28.3138C181.216 24.9154 178.63 23.6058 175.514 24.9606C170.506 27.1152 167.188 30.318 168.567 35.436C168.569 35.4441 168.567 35.4529 168.561 35.4588L168.511 35.5095C168.506 35.5142 168.511 35.522 168.517 35.5199V35.5199Z" fill="#010101"/>
<path d="M82.5946 36.229C82.5986 36.225 82.6056 36.2282 82.6049 36.234C82.3325 38.7691 81.6091 41.4251 84.8084 42.9684C86.0842 43.5894 86.118 45.441 85.2713 46.5926C84.1197 48.2523 81.839 49.099 80.3713 48.0603C76.2052 45.1249 72.6149 47.3265 68.7988 48.5232C64.7117 49.799 60.3198 47.7555 58.5811 43.8152C57.2263 40.812 59.2021 36.1039 62.6682 34.1733C65.8746 32.4007 69.2278 30.933 72.7278 29.8153C73.8117 29.4653 75.7762 29.3524 75.2342 27.275C74.8052 25.6943 73.8455 24.5766 72.0278 24.4637C69.4423 24.3056 67.2069 24.8927 65.5472 27.0492C64.1246 28.8669 62.273 28.7427 60.6924 27.433C58.9989 26.0105 60.0037 24.3847 60.9972 22.9621C63.0069 19.9928 70.2101 17.7573 74.3762 18.8412C79.0052 20.0379 81.4326 23.2331 81.8164 28.4492C82.0084 31.0346 82.3584 33.6201 82.5842 36.2056V36.2247C82.5842 36.2302 82.5907 36.2329 82.5946 36.229V36.229ZM75.6196 35.3249C75.6216 35.3249 75.6221 35.3277 75.6202 35.3284C72.8813 36.3651 70.8402 37.0195 68.9569 37.9443C67.6472 38.5652 67.3423 40.0668 67.2182 41.3765C67.1391 42.0313 68.1101 42.1442 68.6407 41.9975C71.8468 41.1508 74.8836 40.0671 75.6179 35.3265C75.618 35.3256 75.6188 35.3249 75.6196 35.3249V35.3249Z" fill="#010101"/>
<path d="M434.772 31.7462C434.659 33.5639 434.614 35.3703 434.467 37.188C434.242 40.0445 434.659 42.438 438.125 43.0138C440.248 43.3977 441.479 44.7525 440.824 46.988C440.169 49.1444 438.125 49.9234 436.353 49.1105C432.074 47.1799 428.292 47.496 423.776 49.1105C418.571 50.9621 415.409 48.8057 413.784 44.4025C412.124 39.8525 413.75 35.7993 418.029 33.0219C420.038 31.7123 422.195 31.0123 424.397 30.5155C426.869 29.9397 428.1 28.63 428.055 26.0446C428.055 24.4978 427.129 23.8091 425.819 23.5381C423.471 23.0752 422.082 24.1139 421.348 26.4284C420.727 28.472 418.955 29.7816 417.148 28.5058C415.409 27.2752 413.795 25.3446 415.838 22.7252C418.842 18.8301 423.9 16.6737 427.874 17.9043C432.39 19.293 434.467 22.6462 434.467 28.5849V31.6389C434.467 31.7231 434.536 31.7913 434.62 31.7913H434.738C434.757 31.7913 434.772 31.7761 434.772 31.7574V31.7574V31.7462ZM427.909 38.2414C427.958 38.0008 427.936 37.754 427.938 37.5085C427.945 36.8962 428.034 36.2227 427.332 35.8671C425.672 35.0542 419.508 38.9945 419.508 40.88C419.508 41.9638 419.508 43.0364 420.976 43.3525C423.175 43.7924 427.424 40.6127 427.909 38.2414Z" fill="#010101"/>
<path d="M292.205 34.1227C292.201 34.1263 292.199 34.131 292.199 34.136C292.085 37.374 291.242 40.8026 294.672 43.0701C295.868 43.883 295.823 45.4636 294.864 46.3104C293.554 47.462 291.894 49.0539 290.076 47.3491C287.457 44.8765 285.143 45.6556 282.286 46.9201C280.085 47.9249 277.386 47.7668 274.993 47.1459C271.944 46.3781 269.28 44.7975 268.941 41.2072C268.591 37.425 269.833 34.1508 273.186 32.1411C275.727 30.6395 278.628 30.1315 281.552 29.8266C283.63 29.6008 285.752 29.0589 285.414 26.3605C285.109 23.696 283.212 23.1541 280.751 23.2783C278.323 23.3912 276.822 24.7009 275.433 26.4396C274.349 27.7944 272.927 28.4831 271.504 27.1734C270.081 25.8638 269.381 24.238 270.612 22.2396C272.927 18.6154 280.367 15.9961 285.109 17.2606C288.97 18.2993 291.702 22.5783 291.86 27.6363C291.939 29.7589 292.086 31.9153 292.21 34.0379V34.1087C292.21 34.114 292.208 34.119 292.205 34.1227V34.1227ZM277.323 41.2096C278.189 41.2829 279.081 41.3556 279.934 41.19C282.409 40.7094 284.699 39.9069 285.459 36.9847C285.843 35.4831 284.612 35.2911 283.415 35.483C280.288 36.025 276.585 36.025 275.354 39.4572C274.801 41.0105 276.087 41.1052 277.323 41.2096Z" fill="#010101"/>
<path d="M155.638 33.1968C155.641 33.2004 155.643 33.2054 155.644 33.2105C155.719 41.7306 150.199 48.0491 142.219 48.0491C131.844 48.0491 127.339 43.804 126.289 34.354C125.284 25.367 133.458 18.3445 138.742 18.2316C148.957 18.0058 155.515 23.941 155.632 33.1831C155.632 33.1882 155.634 33.1932 155.638 33.1968V33.1968ZM140.861 41.2011C141.178 41.2248 141.494 41.2717 141.807 41.3299C146.881 42.2747 148.518 37.8734 148.858 32.8976C149.163 28.5734 145.426 24.3396 141.373 24.0686C136.552 23.7977 132.927 27.117 132.623 32.0169C132.326 37.5306 135.235 40.7791 140.861 41.2011Z" fill="#010101"/>
<path d="M369.678 37.7975C369.675 37.7975 369.673 37.7949 369.673 37.7918C369.831 31.2804 370.757 26.8448 373.376 22.8718C376.695 17.859 381.663 18.4009 386.529 19.3606C390.153 20.0944 392.355 22.4089 392.897 26.3041C393.394 29.9282 392.276 32.3218 388.539 32.9314C386.303 33.3153 383.989 33.3153 381.708 33.5524C380.094 33.7105 377.384 32.5476 377.655 35.5169C377.881 38.1362 377.655 41.6475 381.934 41.9975C384.169 42.1556 385.592 40.9588 387.297 39.7959C388.911 38.712 391.079 37.0975 392.66 39.762C393.89 41.7717 392.502 43.2733 391 44.662C387.071 48.2862 380.895 49.562 376.582 47.5523C372.337 45.5426 369.56 40.9249 369.684 37.8314V37.8031C369.684 37.8 369.682 37.7975 369.678 37.7975V37.7975ZM378.513 27.5812C378.513 27.5806 378.514 27.5802 378.514 27.5805C380.094 28.3925 381.37 27.9298 382.679 27.546C383.91 27.1621 386.382 28.3928 386.111 26.1573C385.919 24.6105 383.368 24.8025 381.866 24.8476C380.48 24.8814 378.868 25.4217 378.515 27.5811C378.514 27.5821 378.513 27.5822 378.513 27.5812V27.5812Z" fill="#010101"/>
<path d="M104.097 43.4893C104.096 43.4922 104.091 43.4914 104.091 43.4881C103.786 40.9081 103.52 38.9481 105.831 38.1364C108.529 37.2106 109.229 39.288 110.076 41.1396C111.115 43.4202 113.045 44.1089 115.439 43.8831C116.478 43.7702 117.178 43.2283 117.211 42.1444C117.245 39.8638 116.094 38.2831 114.05 37.5154C111.815 36.6686 110.042 35.2009 108.382 33.6541C104.758 30.2219 104.103 25.1752 106.689 22.1268C110.426 17.6897 116.489 16.6849 120.689 19.8462C122.303 21.0768 123.082 22.7365 122.111 24.6332C121.107 26.6429 119.334 26.2477 117.832 25.3219C115.947 24.1252 113.858 23.3913 112.582 25.5477C111.228 27.8622 113.474 29.059 115.055 30.2106C117.528 31.9832 119.955 33.8009 122.145 35.9912C124.381 38.2718 126.119 40.5412 124.426 43.6686C122.608 47.0669 120.305 50.1492 115.789 50.0702C112.39 50.0363 109.274 48.6476 105.876 48.2976C103.065 47.9928 104.329 44.7874 104.104 43.5112C104.103 43.5107 104.103 43.5103 104.103 43.5098V43.4908C104.103 43.4872 104.099 43.4861 104.097 43.4893V43.4893Z" fill="#010101"/>
<path d="M403.941 48.2072C403.945 48.2072 403.947 48.2005 403.943 48.1985C402.552 47.5591 400.298 48.312 399.219 46.5136C398.023 44.4701 399.569 43.0814 400.642 41.3088C402.606 37.9895 401.41 34.0153 400.868 30.4702C399.908 24.0347 401.172 17.667 400.563 11.2655C400.371 9.41386 401.06 8.02516 398.327 8.26225C396.476 8.42031 396.171 6.52356 396.047 5.37195C395.889 4.01712 396.735 2.67358 398.361 2.36874C399.095 2.21068 399.908 2.2897 400.642 2.09777C407.969 0.4381 407.664 0.438116 407.427 8.34129C407.122 18.7961 407.427 29.2395 407.427 39.7282C407.427 40.654 407.732 41.4217 408.195 42.2685C408.85 43.4652 410.939 44.4249 409.618 46.1636C408.305 47.892 406.244 48.1254 403.946 48.239C403.932 48.2397 403.924 48.2221 403.934 48.2118L403.937 48.2085C403.938 48.2076 403.939 48.2072 403.941 48.2072V48.2072Z" fill="#010101"/>
<path d="M307.785 36.9509C307.782 36.9509 307.779 36.9532 307.779 36.9564C307.552 39.0322 306.823 41.2302 310.252 41.5799C311.336 41.6928 312.33 42.9347 312.183 44.3911C312.025 45.9718 310.907 46.8976 309.563 47.2814C306.481 48.2072 303.241 48.8959 300.351 46.8976C298.962 45.9379 299.459 44.3121 299.662 42.6976C300.475 36.567 303.06 30.2783 298.115 24.5767C296.422 22.6122 298.002 20.7155 299.73 20.2526C302.473 19.5187 305.589 17.7461 308.141 21.1445C309.801 23.3461 311.144 20.7945 312.386 20.3316C316.089 18.9429 318.9 19.4058 320.831 23.03C322.412 25.9993 321.215 27.817 317.896 27.659C309.949 27.3091 308.492 28.6632 307.791 36.945C307.791 36.9482 307.788 36.9509 307.785 36.9509V36.9509Z" fill="#010101"/>
<path d="M91.0858 35.7089C90.8939 31.5879 91.2777 28.3476 88.7374 24.8364C86.1971 21.3702 91.0181 21.0203 93.2084 19.9025C96.2567 18.3558 97.4535 20.0945 97.9164 22.759C98.9212 28.3928 97.8374 34.0605 98.2212 39.7282C98.3003 40.6201 97.8712 41.7379 98.2212 42.4266C99.147 44.2443 101.383 46.7056 99.339 47.8685C96.7535 49.291 93.2874 49.7201 90.081 48.9072C88.1503 48.4104 87.3826 46.5927 88.7713 45.4411C92.3814 42.4833 90.603 38.6404 91.0801 35.7985C91.0839 35.7763 91.0858 35.754 91.0858 35.7315V35.7315V35.7089Z" fill="#010101"/>
<path d="M362.228 31.8223C362.23 31.8192 362.234 31.8196 362.235 31.8228C362.661 33.3233 362.458 35.2838 362.311 37.2556C362.153 39.2201 361.815 41.2637 364.818 41.5798C365.473 41.6588 366.24 42.7765 366.511 43.5894C366.974 44.8652 366.399 46.1749 365.157 46.6378C361.758 47.9475 358.258 47.9136 354.939 46.412C353.392 45.7233 353.437 43.9056 354.25 42.7878C357.716 38.0459 354.555 32.604 356.023 27.6702C356.249 26.9363 355.526 26.3605 354.826 25.9315C353.324 24.9718 351.36 24.1589 352.624 21.7315C353.889 19.3041 356.249 18.988 358.563 19.1122C360.844 19.2251 362.108 20.8848 362.221 23.0864C362.379 25.8254 362.222 28.587 362.221 31.8205C362.221 31.8244 362.226 31.8258 362.228 31.8223V31.8223Z" fill="#010101"/>
<path d="M99.3051 7.59623C99.4632 10.7236 97.6454 12.2591 94.868 12.4172C91.9326 12.5752 90.3519 10.7575 90.318 7.86718C90.2842 5.12365 91.9326 3.43012 94.4842 3.28334C97.1775 3.12558 99.2184 4.47506 99.3383 7.59001C99.3387 7.59942 99.3311 7.60751 99.3217 7.60751H99.3164C99.3101 7.60751 99.3051 7.60246 99.3051 7.59623V7.59623Z" fill="#010101"/>
<path d="M362.316 9.83793C362.313 9.8412 362.311 9.84553 362.311 9.85013C362.117 11.6194 361.303 13.0493 358.382 12.9252C354.95 12.7672 354.262 10.4978 354.262 8.02526C354.262 5.55269 355.921 3.36239 358.586 3.5882C361.552 3.85892 362.209 6.5189 362.322 9.82284C362.323 9.82846 362.32 9.83396 362.316 9.83793V9.83793Z" fill="#010101"/>
</svg>
