<svg width="512" height="68" viewBox="0 0 512 68" fill="none" xmlns="http://www.w3.org/2000/svg">
<path d="M277.141 37.1617C277.137 37.1583 277.136 37.153 277.138 37.1486C281.693 26.954 285.946 17.6619 290.055 8.31756C293.053 1.52357 298.106 -0.898168 304.455 1.47122C306.51 2.23047 307.767 3.17298 306.51 5.26746C301.418 13.9858 303.866 23.5157 303.565 32.679C303.473 35.4019 303.918 38.308 303.879 41.1748C303.879 43.9893 303.342 46.8953 307.099 48.0997C308.395 48.5055 309.429 49.8407 309.063 51.5032C308.657 53.3359 307.23 54.3177 305.581 54.3177C301.339 54.4093 297.085 54.5009 292.922 54.0035C290.644 53.7417 289.519 50.8749 290.906 49.4873C295.514 44.8401 293.315 39.3421 293.145 34.2892C293.048 30.1444 288.359 29.5171 286.647 33.2929C285.267 36.3372 283.886 39.383 282.502 42.4315C281.56 44.5391 280.709 46.7252 279.465 48.6495C278.575 50.0371 277.593 52.0006 275.394 51.4639C273.116 50.8879 270.747 49.6705 270.21 47.2619C269.494 44.0517 268.377 41.0168 267.075 37.9943C265.044 33.2802 258.168 34.4203 258.466 39.5448C258.605 41.9332 258.823 44.285 259.083 46.6335C259.122 47.1703 259.122 47.8902 259.489 48.152C262.356 50.4821 262.971 52.5766 258.992 54.2784C254.659 56.1111 249.161 54.4093 247.721 51.1498C247.001 49.5396 248.388 48.9637 248.833 48.7804C252.551 47.1703 251.923 44.0416 251.648 41.1355C250.614 31.1605 251.87 21.2379 251.91 11.2629C251.91 9.15535 252.171 7.85939 249.54 8.13429C247.485 8.31756 246.058 7.37504 245.875 5.18892C245.692 2.85881 247.132 1.30103 249.134 0.947585C252.446 0.371602 255.837 0.188333 259.201 0.0050651C260.772 -0.0865686 261.924 1.0785 262.421 2.41374C266.488 13.9329 273.179 24.3028 277.16 37.1498C277.164 37.1615 277.149 37.1704 277.141 37.1617Z" fill="#010101"/>
<path d="M31.2163 38.0002C31.2163 38.0026 31.2193 38.0038 31.2209 38.002C34.6993 34.3769 35.7727 29.9545 37.7485 26.1599C40.7462 20.3477 43.0632 14.1821 45.6683 8.13427C48.3911 1.74609 53.1299 -0.675658 59.3086 1.15702C62.8823 2.23044 63.6939 4.56055 61.0104 7.06084C59.6751 8.31753 59.2693 9.56114 59.2693 11.2629C59.2693 19.7194 59.4919 28.1628 58.9551 36.6193C58.6933 40.7297 61.822 43.2431 62.398 46.9477C63.1965 52.1315 62.2147 53.794 56.8999 54.0558C55.2898 54.1475 53.6797 54.2391 52.0695 54.1475C49.962 54.0559 47.6449 54.4093 46.6108 51.7781C45.7206 49.448 47.37 48.3353 48.6267 46.8168C50.5903 44.4474 49.7394 41.358 49.6085 38.6352C49.4123 33.6249 42.5506 32.3756 40.4028 36.9064C39.5463 38.7132 38.6985 40.5064 37.8532 42.3005C36.4656 45.2066 34.9471 47.9818 32.3945 50.0763C29.5276 52.4457 27.119 51.7781 26.1765 48.3353C23.8668 39.7984 18.6712 32.5303 16.2525 24.0452C16.1434 23.6626 15.7842 23.4036 15.3872 23.4299C14.9809 23.4567 14.654 23.7735 14.6107 24.1784C14.1525 28.4606 13.3965 32.7428 13.5703 37.0251C13.6619 39.4337 14.107 41.9471 13.9761 44.4474C13.8452 46.5942 13.7535 48.2044 16.7513 48.3353C18.3614 48.4269 19.4348 49.6705 19.1599 51.7781C18.9374 53.794 17.864 54.7758 16.1229 54.8675C12.3659 55.0507 8.66133 54.9591 4.90435 54.9591C2.6266 54.9591 1.95898 52.9955 1.36991 51.477C0.649926 49.5527 2.16843 48.4793 3.83093 48.0735C6.16104 47.4975 7.14283 46.0183 6.86793 43.7798C5.79451 33.4906 7.98062 23.3062 7.66645 13.0563C7.57482 10.0586 7.09047 8.27825 3.64766 8.40916C1.31755 8.50079 -0.200956 7.1132 0.0215827 4.83545C0.20485 2.50534 2.03752 1.57592 4.22364 1.65446C7.44391 1.7461 10.6642 1.877 13.8321 2.23045C17.1833 2.58389 18.5709 4.50819 19.6836 7.85936C22.9905 17.8586 27.0935 27.5967 31.1066 38.0382C31.1151 38.0604 31.1436 38.0665 31.1604 38.0497L31.2118 37.9983C31.2134 37.9966 31.2163 37.9978 31.2163 38.0002Z" fill="#010101"/>
<path d="M391.033 20.9868C391.029 20.9822 391.031 20.9743 391.037 20.9729C394.294 20.2653 398.267 23.3003 401.534 19.366C402.424 18.2533 404.794 18.79 405.697 20.4394C406.679 22.2721 406.771 24.4582 405.029 25.8458C401.94 28.2152 401.312 31.4355 400.644 35.0092C399.531 41.1355 395.5 44.1725 389.203 44.5391C388.483 44.5391 387.776 44.4998 387.056 44.5391C385.629 44.67 384.556 45.39 384.726 46.8692C384.857 48.3484 386.245 47.9819 387.226 48.0735C390.761 48.3877 394.295 47.8903 397.777 49.1077C401.129 50.312 403.236 52.328 403.773 55.8624C404.349 59.5801 403.144 62.172 399.833 64.3189C392.502 69.0184 385.25 69.2409 377.749 64.8556C372.434 61.727 371.439 57.6165 375.785 53.1395C379.582 49.1993 378.155 44.3296 376.819 41.2403C371.456 28.6426 376.812 20.189 391.007 21.0268C391.022 21.0277 391.036 21.0156 391.036 21.0002V20.9926C391.036 20.9904 391.035 20.9883 391.033 20.9868ZM386.788 37.0745C387.628 37.163 388.484 37.1033 389.31 36.922C391.565 36.4265 394.151 36.0894 394.151 32.8623C394.151 29.6421 391.507 27.8094 388.522 27.7701C385.171 27.7701 382.213 28.9352 382.213 33.2681C382.213 36.7358 384.477 36.8309 386.788 37.0745ZM387.095 61.3081C387.094 61.3081 387.093 61.3056 387.095 61.3052C389.645 60.7337 392.637 61.2132 395.002 59.2528C395.67 58.7161 396.573 58.271 396.429 57.2369C396.298 56.1242 395.264 55.7577 394.465 55.9017C390.931 56.4777 387.488 55.5875 384.006 55.365C382.841 55.3257 381.545 55.81 381.139 57.2893C380.694 58.991 382.252 59.2136 383.064 60.0121C384.167 61.1672 385.592 61.0484 387.096 61.3015C387.1 61.3021 387.1 61.3081 387.095 61.3081Z" fill="#010101"/>
<path d="M195.388 40.288C195.393 40.2863 195.398 40.2902 195.397 40.2953C195.175 44.7146 194.772 48.0623 198.212 50.4298C199.953 51.5948 199.011 54.226 197.99 54.4485C194.193 55.2471 190.306 57.1714 186.405 55.7445C184.664 55.1162 183.145 53.0217 185.37 51.0974C188.185 48.6363 188.054 45.691 187.648 42.3791C187.242 39.0279 187.386 35.6244 187.334 32.2339C187.334 31.0296 188.002 29.4195 186.614 28.8304C183.263 27.4428 183.302 24.9425 185.501 23.2015C188.054 21.1462 191.444 17.6511 194.796 21.4081C196.942 23.7774 198.369 23.3324 200.346 22.1673C209.064 17.0751 220.021 24.6283 218.673 33.7001C218.228 36.7894 219.079 39.9573 218.175 43.1383C217.599 45.1543 218.175 47.3011 220.231 48.8196C221.566 49.7621 222.377 51.189 221.343 52.9824C220.453 54.5009 219.288 55.2601 217.495 55.2209C215.701 55.1816 213.921 55.4041 212.127 55.2209C207.114 54.7758 205.909 52.3541 209.09 48.4269C211.46 45.5208 209.981 42.2089 210.517 39.1719C210.871 36.9334 210.256 34.3939 210.203 31.9328C210.112 27.9926 207.114 26.4741 203.501 28.0449C197.694 30.5431 193.847 34.2566 195.446 40.1907C195.449 40.2001 195.446 40.2103 195.439 40.2171L195.38 40.2759C195.375 40.2813 195.38 40.2904 195.388 40.288Z" fill="#010101"/>
<path d="M95.7646 41.1103C95.7694 41.1055 95.7774 41.1093 95.7767 41.116C95.4608 44.0554 94.6221 47.1349 98.3314 48.9243C99.8107 49.6443 99.8499 51.7911 98.8681 53.1263C97.5329 55.0507 94.8886 56.0324 93.1869 54.8281C88.3564 51.4246 84.1937 53.9772 79.7691 55.3648C75.0303 56.844 69.9381 54.4747 67.9221 49.9061C66.3513 46.424 68.6421 40.9652 72.6609 38.7267C76.3786 36.6715 80.2665 34.9698 84.3246 33.6738C85.5813 33.268 87.859 33.1371 87.2307 30.7284C86.7332 28.8958 85.6205 27.5998 83.513 27.4689C80.5152 27.2856 77.9233 27.9663 75.999 30.4666C74.3496 32.5742 72.2027 32.4302 70.3701 30.9117C68.4065 29.2623 69.5715 27.3773 70.7235 25.7279C73.0536 22.285 81.4054 19.6931 86.2358 20.9498C91.6029 22.3374 94.4174 26.042 94.8624 32.0899C95.085 35.0876 95.4908 38.0853 95.7526 41.083V41.1053C95.7526 41.1116 95.7602 41.1147 95.7646 41.1103ZM87.6775 40.062C87.6798 40.062 87.6803 40.0652 87.6782 40.066C84.5025 41.268 82.136 42.0268 79.9523 43.099C78.4338 43.819 78.0804 45.56 77.9364 47.0785C77.8447 47.8378 78.9705 47.9687 79.5858 47.7985C83.3031 46.8168 86.8241 45.5603 87.6755 40.0638C87.6756 40.0628 87.6765 40.062 87.6775 40.062Z" fill="#010101"/>
<path d="M504.099 35.9126C503.968 38.0202 503.915 40.1147 503.745 42.2223C503.483 45.5342 503.968 48.3094 507.987 48.977C510.448 49.4221 511.874 50.9929 511.115 53.5848C510.356 56.0851 507.986 56.9884 505.931 56.0459C500.97 53.8074 496.585 54.1739 491.348 56.0459C485.314 58.1927 481.648 55.6924 479.763 50.5871C477.839 45.3116 479.724 40.6121 484.685 37.3919C487.015 35.8734 489.516 35.0618 492.068 34.4858C494.935 33.8182 496.362 32.2996 496.31 29.3019C496.31 27.5085 495.236 26.71 493.718 26.3958C490.995 25.8591 489.385 27.0634 488.534 29.747C487.814 32.1164 485.759 33.6349 483.664 32.1556C481.648 30.7288 479.776 28.4903 482.146 25.4533C485.628 20.9371 491.492 18.4368 496.1 19.8636C501.336 21.4738 503.745 25.3617 503.745 32.2473V35.7883C503.745 35.8859 503.824 35.965 503.922 35.965H504.059C504.081 35.965 504.099 35.9474 504.099 35.9257V35.9126ZM496.152 43.3859C496.196 43.1444 496.174 42.8982 496.175 42.6526C496.176 41.9274 496.308 41.1144 495.472 40.6907C493.548 39.7482 486.4 44.3168 486.4 46.5029C486.4 47.7596 486.4 49.0032 488.102 49.3697C490.67 49.8833 495.648 46.141 496.152 43.3859Z" fill="#010101"/>
<path d="M338.798 38.668C338.794 38.6722 338.791 38.6776 338.791 38.6834C338.659 42.4378 337.682 46.413 341.658 49.0421C343.046 49.9847 342.993 51.8173 341.881 52.7991C340.362 54.1344 338.438 55.9801 336.33 54.0034C333.293 51.1366 330.61 52.0398 327.298 53.506C324.745 54.671 321.617 54.4878 318.841 53.7678C315.307 52.8777 312.218 51.045 311.825 46.8822C311.419 42.4969 312.859 38.7006 316.747 36.3705C319.692 34.6294 323.057 34.0404 326.447 33.6869C328.856 33.4251 331.317 32.7968 330.924 29.6681C330.571 26.5788 328.371 25.9504 325.518 26.0944C322.703 26.2253 320.962 27.7438 319.352 29.7598C318.095 31.3307 316.446 32.1292 314.796 30.6107C313.147 29.0922 312.335 27.2071 313.762 24.8901C316.446 20.6881 325.073 17.651 330.571 19.1172C335.048 20.3215 338.215 25.2828 338.399 31.1474C338.49 33.6084 338.661 36.1087 338.805 38.5697V38.6518C338.805 38.6579 338.802 38.6637 338.798 38.668ZM321.754 46.9032C322.619 46.9802 323.509 47.0622 324.363 46.9018C327.312 46.3484 330.075 45.4562 330.976 41.9863C331.421 40.2453 329.995 40.0228 328.607 40.2453C324.981 40.8736 320.687 40.8736 319.26 44.8532C318.588 46.7427 320.263 46.7706 321.754 46.9032Z" fill="#010101"/>
<path d="M180.455 37.5945C180.459 37.5987 180.462 37.6045 180.462 37.6104C180.549 47.4891 174.149 54.8151 164.897 54.8151C152.867 54.8151 147.644 49.8931 146.426 38.9363C145.261 28.5163 154.739 20.374 160.865 20.2431C172.708 19.9813 180.313 26.8629 180.448 37.5787C180.448 37.5846 180.451 37.5903 180.455 37.5945ZM163.397 46.8806C163.714 46.9031 164.033 46.9501 164.345 47.0106C170.286 48.1623 172.199 43.0408 172.594 37.2477C172.948 32.234 168.615 27.325 163.915 27.0109C158.325 26.6967 154.123 30.5453 153.77 36.2266C153.425 42.644 156.825 46.4148 163.397 46.8806Z" fill="#010101"/>
<path d="M428.625 42.9289C428.622 42.9289 428.619 42.9258 428.619 42.9222C428.803 35.3726 429.876 30.2297 432.912 25.6232C436.761 19.811 442.521 20.4394 448.163 21.552C452.365 22.4029 454.918 25.0865 455.546 29.6027C456.122 33.8048 454.826 36.58 450.493 37.2869C447.901 37.7319 445.217 37.7319 442.573 38.0068C440.701 38.1901 437.559 36.8418 437.874 40.2846C438.135 43.3216 437.874 47.3928 442.835 47.7986C445.427 47.9818 447.076 46.5942 449.053 45.2459C450.925 43.9892 453.438 42.1173 455.271 45.2066C456.698 47.5367 455.088 49.2778 453.347 50.8879C448.791 55.09 441.631 56.5692 436.63 54.2391C431.708 51.909 428.488 46.555 428.632 42.9682V42.9354C428.632 42.9318 428.629 42.9289 428.625 42.9289ZM438.869 31.0835C438.869 31.0828 438.869 31.0823 438.87 31.0827C440.702 32.0242 442.181 31.4877 443.699 31.0427C445.126 30.5976 447.993 32.0245 447.678 29.4326C447.456 27.6392 444.497 27.8617 442.756 27.914C441.149 27.9533 439.28 28.5797 438.87 31.0834C438.87 31.0845 438.869 31.0846 438.869 31.0835Z" fill="#010101"/>
<path d="M120.696 49.5283C120.694 49.5317 120.689 49.5307 120.689 49.5269C120.336 46.5356 120.026 44.263 122.706 43.3218C125.835 42.2484 126.646 44.6571 127.628 46.8039C128.832 49.4482 131.071 50.2467 133.846 49.9849C135.05 49.854 135.862 49.2256 135.901 47.969C135.941 45.3247 134.605 43.492 132.236 42.6019C129.644 41.6201 127.589 39.9183 125.664 38.1249C121.462 34.1454 120.703 28.2939 123.701 24.7595C128.034 19.6149 135.063 18.4498 139.933 22.1152C141.805 23.542 142.708 25.4663 141.583 27.6656C140.418 29.9957 138.362 29.5375 136.621 28.4641C134.435 27.0765 132.013 26.2256 130.534 28.7259C128.963 31.4094 131.568 32.797 133.401 34.1323C136.268 36.1875 139.082 38.2951 141.622 40.8346C144.214 43.4789 146.23 46.1101 144.266 49.7362C142.159 53.6764 139.488 57.2501 134.252 57.1585C130.312 57.1192 126.699 55.5091 122.758 55.1033C119.499 54.7499 120.964 51.0334 120.703 49.5537C120.703 49.5532 120.703 49.5527 120.703 49.5521V49.53C120.703 49.5259 120.698 49.5246 120.696 49.5283Z" fill="#010101"/>
<path d="M468.351 54.9983C468.356 54.9983 468.358 54.9907 468.353 54.9883C466.741 54.247 464.128 55.1199 462.877 53.0348C461.489 50.6654 463.282 49.0552 464.526 47C466.804 43.1514 465.416 38.5435 464.788 34.4331C463.675 26.9715 465.141 19.5885 464.434 12.1661C464.212 10.0193 465.01 8.40914 461.842 8.68404C459.696 8.86731 459.342 6.6681 459.198 5.33287C459.015 3.76201 459.997 2.20423 461.882 1.85078C462.733 1.66752 463.675 1.75914 464.526 1.5366C473.022 -0.387704 472.668 -0.387686 472.393 8.77569C472.04 20.8975 472.393 33.0062 472.393 45.1673C472.393 46.2408 472.747 47.1309 473.284 48.1127C474.043 49.5003 476.465 50.613 474.933 52.629C473.41 54.6329 471.021 54.9035 468.357 55.0353C468.34 55.0361 468.331 55.0157 468.343 55.0038L468.347 54.9999C468.348 54.9989 468.349 54.9983 468.351 54.9983Z" fill="#010101"/>
<path d="M356.863 41.9472C356.859 41.9472 356.856 41.9499 356.856 41.9536C356.593 44.3603 355.747 46.9088 359.723 47.3143C360.98 47.4452 362.132 48.8851 361.962 50.5738C361.778 52.4065 360.482 53.4799 358.925 53.925C355.351 54.9984 351.594 55.7969 348.243 53.4799C346.633 52.3672 347.209 50.4822 347.444 48.6102C348.387 41.5021 351.385 34.2106 345.651 27.5999C343.687 25.3222 345.52 23.123 347.523 22.5862C350.704 21.7354 354.317 19.6802 357.275 23.6204C359.2 26.1731 360.757 23.2146 362.197 22.6779C366.491 21.0678 369.751 21.6045 371.989 25.8065C373.822 29.2493 372.434 31.3569 368.585 31.1736C359.372 30.7679 357.682 32.338 356.87 41.9404C356.87 41.9441 356.867 41.9472 356.863 41.9472Z" fill="#010101"/>
<path d="M105.61 40.5073C105.387 35.7292 105.832 31.9722 102.887 27.9011C99.9416 23.8823 105.531 23.4765 108.071 22.1805C111.605 20.3871 112.993 22.403 113.53 25.4924C114.695 32.0246 113.438 38.596 113.883 45.1675C113.975 46.2016 113.477 47.4976 113.883 48.2961C114.956 50.4037 117.548 53.2574 115.179 54.6057C112.181 56.2551 108.162 56.7526 104.445 55.8101C102.206 55.2341 101.316 53.1265 102.926 51.7913C107.112 48.3618 105.05 43.9063 105.603 40.6112C105.608 40.5854 105.61 40.5596 105.61 40.5334V40.5073Z" fill="#010101"/>
<path d="M419.987 36.0008C419.989 35.9973 419.994 35.9977 419.995 36.0015C420.488 37.7411 420.253 40.0143 420.084 42.3005C419.9 44.5783 419.508 46.9476 422.99 47.3142C423.749 47.4058 424.639 48.7018 424.953 49.6443C425.49 51.1235 424.822 52.642 423.382 53.1787C419.442 54.6972 415.384 54.658 411.535 52.9169C409.742 52.1184 409.794 50.0108 410.737 48.7149C414.756 43.2168 411.09 36.9072 412.792 31.1867C413.054 30.3358 412.216 29.6681 411.405 29.1707C409.664 28.058 407.386 27.1155 408.852 24.301C410.318 21.4866 413.054 21.12 415.738 21.264C418.382 21.3949 419.848 23.3192 419.979 25.8719C420.162 29.0477 419.979 32.2497 419.979 35.9988C419.979 36.0033 419.985 36.0048 419.987 36.0008Z" fill="#010101"/>
<path d="M115.14 7.91188C115.323 11.538 113.215 13.3183 109.995 13.5015C106.592 13.6848 104.759 11.5772 104.72 8.22604C104.68 5.04504 106.592 3.08147 109.55 2.91129C112.673 2.72837 115.039 4.29303 115.178 7.90467C115.179 7.91558 115.17 7.92497 115.159 7.92497H115.153C115.146 7.92497 115.14 7.91911 115.14 7.91188Z" fill="#010101"/>
<path d="M420.089 10.511C420.086 10.5148 420.083 10.5198 420.083 10.5251C419.858 12.5765 418.914 14.2344 415.528 14.0906C411.549 13.9073 410.75 11.2761 410.75 8.40927C410.75 5.54245 412.674 3.0029 415.764 3.26471C419.203 3.5786 419.964 6.66272 420.096 10.4935C420.097 10.5 420.094 10.5064 420.089 10.511Z" fill="#010101"/>
</svg>
