<svg width="290" height="50" viewBox="0 0 290 50" fill="none" xmlns="http://www.w3.org/2000/svg">
<path d="M84.4876 31.0355C84.4861 31.0325 84.4901 31.0299 84.4924 31.0323C87.5399 34.2119 91.1041 35.0608 94.8523 34.104C97.6478 33.4007 99.8544 34.104 101.551 36.0819C104.153 39.106 107.151 41.5938 110.571 43.6333C111.959 44.4509 113.313 45.6728 112.663 47.475C112.012 49.2771 110.289 49.6815 108.478 49.5408C105.366 49.3386 102.316 48.7233 99.0896 49.6288C96.6281 50.332 94.5358 48.3277 93.1557 46.4025C88.9184 40.495 81.8505 37.4094 77.9473 31.1678C77.4375 30.3502 76.365 30.2096 75.4859 30.4645C74.4398 30.7458 74.809 31.7919 74.7826 32.504C74.6947 35.2995 74.7299 38.1302 74.7299 40.9257C74.7299 42.9301 76.0309 43.7828 77.7012 44.574C78.9144 45.1366 80.611 45.9278 79.9869 47.8266C79.4506 49.4353 77.8946 49.3211 76.5408 49.2947C71.5915 49.1804 66.6158 49.0661 61.6665 48.8991C60.6732 48.8727 59.4864 48.8991 59.1523 47.6596C58.7304 46.1915 59.8556 45.6201 60.8754 45.1717C62.6599 44.4069 63.3896 43.1322 63.4511 41.2158C63.6181 33.7787 63.8467 26.3416 64.128 18.8781C64.2423 15.6518 63.6181 12.5749 62.6599 9.57724C62.0621 7.73993 61.3588 5.929 58.9853 5.64769C57.9655 5.53341 57.3414 4.83014 57.3766 3.78402C57.4029 2.68515 58.282 2.2544 59.2139 2.08737C60.5413 1.83243 61.9039 1.41047 63.2313 1.55112C72.4442 2.48296 81.6395 0.337966 90.8788 1.32255C96.6193 1.92033 102.184 2.73789 105.103 8.6454C108.074 14.6672 107.819 20.5747 103.432 25.7526C99.5906 30.3063 94.1315 31.4051 88.391 31.2645C87.0988 31.2383 85.8065 31.1514 84.5401 31.0641C84.5234 31.0629 84.5076 31.0558 84.4958 31.0439L84.4881 31.0362C84.4879 31.036 84.4877 31.0358 84.4876 31.0355ZM74.809 18.6319C74.809 20.1 74.9496 21.5681 74.7826 23.045C74.5277 25.3042 75.0375 26.0954 77.6397 25.902C81.1472 25.6207 84.5405 24.8295 87.9866 24.2933C93.0502 23.5021 94.3776 19.5198 94.404 13.8936C94.404 8.86518 91.0722 5.61253 86.3427 5.33122C83.6263 5.19056 80.9187 5.21694 78.2023 5.21694C76.6727 5.21694 75.6002 5.63891 75.6265 7.53775C75.7145 11.2651 74.5804 14.9133 74.809 18.6759V18.6495V18.6319Z" fill="#010101"/>
<path d="M185.89 25.7462C185.888 25.75 185.882 25.7486 185.882 25.7444V10.8606C185.882 8.11784 185.091 5.97285 181.9 5.54209C180.766 5.40144 180.01 4.72453 180.151 3.44984C180.265 2.49163 180.968 2.12242 181.821 2.12242C192.054 2.21033 202.313 0.768611 212.493 2.54438C226.998 5.05859 234.971 20.4427 229.116 33.9544C225.354 42.6311 218.347 45.9452 209.556 47.1848C201.02 48.3715 192.484 48.2836 183.94 48.1166C182.551 48.1166 180.687 48.7407 180.265 46.7012C179.843 44.5563 181.707 44.6354 183.122 44.2662C185.698 43.6156 186.234 41.497 186.26 39.2641C186.348 34.778 186.262 30.3005 186.261 25.8145C186.26 25.7463 186.205 25.6909 186.137 25.6909H185.896C185.875 25.6909 185.864 25.7165 185.879 25.7315L185.889 25.7416C185.89 25.7428 185.891 25.7447 185.89 25.7462ZM197.724 22.9569C197.724 27.115 197.61 31.2995 197.724 35.4489C198.005 44.5475 198.067 44.5475 207.051 43.1937C207.499 43.1409 207.957 42.9915 208.378 43.053C211.658 43.475 213.495 41.2421 213.978 38.7806C215.534 30.6139 216.413 22.2712 215.112 13.9902C214.181 8.10905 205.249 3.75753 199.702 5.96405C198.427 6.47393 198.541 7.52005 198.462 8.47826C197.952 13.3133 197.724 18.1483 197.724 22.9833V22.9569Z" fill="#010101"/>
<path d="M5.10127 24.0603C5.09965 24.0619 5.09687 24.0608 5.09687 24.0585C5.09679 19.5684 5.00902 15.0695 5.12325 10.5794C5.176 8.29376 4.61337 6.59711 2.23982 5.85867C1.24644 5.55099 0.121201 5.04111 0.543166 3.7928C0.965131 2.51811 2.09917 1.98187 3.54088 2.1489C11.7956 3.10711 19.9975 4.01257 28.3665 2.9137C33.0345 2.28955 37.7816 3.67852 42.1946 5.40154C46.4934 7.09819 49.1483 13.6562 48.612 20.3286C48.3043 24.1175 44.3396 28.047 40.0496 29.2601C33.7993 31.0447 27.4698 31.915 21.026 31.5194C18.4855 31.3524 17.8349 32.5128 18.0283 34.6578C18.3976 38.4467 17.2899 42.5696 21.6766 45.1717C23.5139 46.2706 22.582 48.7321 20.147 48.8727C14.3274 49.1804 8.47259 49.154 2.61783 49.154C1.45742 49.154 0.411303 48.5035 0.0772477 47.264C-0.291972 45.8486 0.727778 45.0047 1.74753 44.6619C5.39577 43.4751 5.44851 40.5301 5.47488 37.5676C5.50048 33.2073 5.47638 28.8138 5.47495 24.4515C5.47488 24.233 5.29777 24.0559 5.07929 24.0559H5.09945C5.10174 24.0559 5.10289 24.0587 5.10127 24.0603ZM17.7558 17.4451V19.1418C17.8086 27.1415 17.8086 27.3086 25.6677 26.4646C28.806 26.1218 32.3664 26.324 34.8806 23.8625C37.6497 21.1197 38.6431 15.8891 37.2014 12.9178C34.7663 7.88938 32.9026 6.86963 27.083 7.2916C20.8063 7.73994 17.6943 11.142 17.7558 17.4979V17.4451Z" fill="#010101"/>
<path d="M142.912 33.8404C142.912 33.8258 142.901 33.814 142.886 33.814H142.57C136.143 33.7173 131.642 36.5831 129.058 42.4115C128.434 43.8268 127.924 44.9521 130.157 45.2422C131.484 45.4092 132.082 46.4026 131.827 47.73C131.598 48.9696 130.64 49.1717 129.506 49.1981C126.676 49.2245 123.88 49.4003 121.049 49.3651C119.836 49.3651 118.394 49.0838 118.359 47.4135C118.333 45.9718 119.599 45.4883 120.706 45.462C122.887 45.4092 123.731 44.1082 124.61 42.35C129.216 33.3305 132.864 23.8363 138.007 15.0717C139.792 12.0476 135.519 5.82364 131.59 5.46321C130.148 5.32255 127.915 6.20165 127.889 3.81931C127.862 1.3051 130.122 1.41937 131.933 1.41937C136.539 1.41937 141.181 1.44574 145.787 1.44574C148.046 1.44574 149.514 2.43913 150.481 4.58412C155.545 15.775 160.828 26.8604 166.709 37.6644C168.353 40.6621 170.296 43.6598 173.61 45.295C174.542 45.7433 175.588 46.2883 175.193 47.5278C174.85 48.574 173.892 49.1981 172.793 48.9959C167.281 48.0377 161.822 49.7344 156.31 49.1366C155.264 49.0223 154.191 49.1366 153.62 48.1168C152.969 46.9564 153.822 46.2268 154.639 45.5762C155.993 44.5037 156.081 43.3433 155.545 41.6994C153.083 34.2096 152.916 33.981 145.286 33.8667H142.939C142.924 33.8667 142.912 33.8549 142.912 33.8404ZM142.997 29.7174C142.999 29.7174 143 29.7189 143 29.7208V29.8185C143 29.8743 143.046 29.9196 143.101 29.9196H145.717C146.596 29.9196 147.695 30.3679 148.257 29.5504C148.996 28.5042 147.976 27.6867 147.519 26.834C146.244 24.4604 144.943 22.0605 143.704 19.6782C143.282 18.887 143.053 17.8145 142.06 17.7002C140.961 17.5595 140.618 18.6936 140.249 19.4232C139.036 21.7089 137.963 24.056 136.855 26.4032C135.159 30.0251 135.185 29.9899 139.291 29.7701C140.52 29.6829 141.759 29.7688 142.988 29.7701C143.002 29.7701 143.011 29.7559 143.005 29.7438L142.994 29.7223C142.993 29.72 142.994 29.7174 142.997 29.7174Z" fill="#010101"/>
<path d="M253.73 1.42068C253.731 1.4197 253.731 1.41894 253.733 1.41857C259.551 -0.646136 262.61 2.43941 265.687 7.81017C270.126 15.5814 275.295 22.9306 279.62 30.8248C281.15 33.594 282.53 36.4247 283.919 39.2466C284.965 41.3652 286.635 42.8069 288.64 43.9409C289.598 44.4772 290.196 45.242 289.879 46.4551C289.598 47.4485 288.921 48.0375 287.901 47.9232C283.04 47.387 278.258 48.4595 273.423 48.6616C272.007 48.7144 270.592 48.7144 269.889 47.3078C269.071 45.6991 270.398 45.1628 271.533 44.5651C272.667 43.9673 272.376 43.2376 271.735 42.3849C270.012 40.152 268.341 37.8576 266.733 35.5719C266.056 34.6137 265.177 34.4379 264.104 34.3852C259.726 34.2181 255.34 34.8687 250.927 34.4379C247.226 34.0687 247.111 37.8048 245.81 39.8971C244.852 41.4531 242.391 44.1958 247.023 44.7321C247.727 44.82 248.096 45.576 248.07 46.2881C248.07 47.1672 247.586 47.8441 246.768 48.0726C243.208 49.0045 239.586 48.6353 236 48.3012C235.261 48.2133 234.505 47.5364 234.672 46.6046C234.839 45.6727 235.49 44.8552 236.422 44.7409C239.419 44.3453 240.237 41.9981 241.397 39.7652C245.072 32.5303 248.834 25.3481 252.65 18.1659C255.929 12.0298 252.597 5.67397 245.784 5.21684C244.456 5.12893 243.182 4.9619 243.067 3.32678C242.98 1.74442 244.369 1.51586 245.415 1.46311C248.015 1.32253 250.616 1.41027 253.717 1.41037C253.72 1.41037 253.722 1.41262 253.722 1.4154V1.41879C253.722 1.42326 253.728 1.42467 253.73 1.42068ZM257.634 30.372C257.634 30.3696 257.636 30.3676 257.638 30.3675C258.317 30.341 259.756 30.2532 261.221 30.1391C262.777 30.0249 263.111 29.2073 262.434 27.8535C261.388 25.7349 260.394 23.6163 259.296 21.524C258.9 20.7328 258.39 19.8274 257.432 19.7131C256.219 19.5724 256.219 20.7856 255.823 21.5504C255.146 22.8515 254.496 24.1525 253.845 25.4536C252.184 28.7326 253.458 30.3765 257.66 30.3765H257.639C257.636 30.3765 257.634 30.3745 257.634 30.372Z" fill="#010101"/>
</svg>
