<svg width="449" height="46" viewBox="0 0 449 46" fill="none" xmlns="http://www.w3.org/2000/svg">
<path d="M104.165 14.896C104.165 14.8947 104.163 14.8945 104.163 14.8959C102.801 22.5037 103.346 29.5797 103.307 36.6038C103.307 39.3968 103.619 43.0211 99.735 42.9042C96.2795 42.7873 94.4089 39.6825 94.6427 36.266C95.3832 25.8866 96.0847 15.5592 94.5258 5.21876C94.292 3.58195 95.617 2.54273 96.968 2.23096C101.242 1.13976 105.594 1.91918 107.503 5.95922C109.39 10.0342 111.974 13.6859 114.577 17.4002C116.602 20.2899 122.082 19.0049 122.273 15.4813V15.4813C122.39 13.6106 122.273 11.753 122.273 9.88236C122.235 1.7633 122.351 2.58169 129.925 1.45152C138.434 0.204435 146.826 2.3089 155.256 0.905924C157.205 0.594152 159.257 0.905917 161.284 1.0618C162.999 1.17872 164.817 1.37357 164.973 3.73784C165.129 6.21903 163.57 7.34921 161.479 7.93379C159.686 8.44041 157.828 9.25881 156.075 9.14189C150.008 8.63526 150.788 12.4804 151.021 16.3256C151.45 23.8601 151.021 31.4466 152.463 38.9811C153.009 41.813 150.554 42.8652 147.878 42.8263C144.578 42.8263 141.889 42.1248 142.123 37.9678C142.552 29.6539 142.474 21.34 142.123 12.9871C141.889 7.62201 138.667 8.8691 135.823 8.94704C132.835 9.02499 129.6 8.55732 129.951 13.6496C130.535 21.6517 130.458 29.7318 130.652 37.7729C130.73 40.3321 129.366 42.0078 127.08 42.6314C123.975 43.4498 121.832 41.5402 119.974 39.3708C113.795 32.1535 110.652 22.9905 104.257 14.9537C104.248 14.9418 104.236 14.9322 104.222 14.9254L104.165 14.897C104.165 14.8968 104.165 14.8964 104.165 14.896V14.896Z" fill="#010101"/>
<path d="M388.501 16.0529V34.98C388.501 36.2271 388.579 37.4612 388.384 38.7083C388.033 41.0725 387.37 43.4888 384.461 43.7616C381.59 44.0344 380.615 41.5142 380.498 39.5267C380.148 34.1616 380.382 28.7965 380.382 23.4444V8.10268C380.382 5.89429 379.212 2.85452 382.213 2.03612C385.435 1.13978 389.28 0.63314 391.501 4.14057C394.879 9.50565 397.88 15.0526 401.023 20.5346C402.27 22.678 403.544 24.7305 404.752 26.8739C405.219 27.6923 405.492 28.7836 406.661 28.5497C407.675 28.3549 407.402 27.3026 407.402 26.6011C407.402 20.3787 407.519 14.2082 407.168 8.02474C406.934 3.98469 406.272 2.3479 412.377 2.26996C422.484 2.15304 432.616 3.51705 442.723 2.26996C445.087 1.95819 447.036 2.15304 448.439 4.21853C448.984 5.03693 449.257 5.93328 448.673 6.81663C447.27 9.06399 444.983 9.1809 442.879 8.72624C438.254 7.71298 437.124 9.42771 436.812 13.9744C436.267 22.2104 436.111 30.4074 436.15 38.6044C436.15 41.2804 435.721 43.6577 432.46 44.0084C428.849 44.3592 429.317 41.5662 428.927 39.3448C427.29 30.7191 428.576 22.0155 428.148 13.3508C427.992 10.402 427.407 7.98577 424.069 8.96006C421.315 9.77846 416.339 7.20633 416.339 13.2339V36.2791C416.339 39.7735 415.365 42.3846 411.481 43.6187C407.558 44.9047 406.661 42.0598 404.986 40.0073C399.234 32.9439 396.285 23.9728 388.486 16.1163C388.48 16.11 388.48 16.0997 388.486 16.0934L388.507 16.0723C388.509 16.0699 388.508 16.0659 388.504 16.0659V16.0659C388.502 16.0659 388.501 16.0642 388.501 16.0621V16.0529Z" fill="#010101"/>
<path d="M301.425 21.327C301.425 16.0789 301.503 10.7917 301.425 5.55658C301.386 3.19231 302.166 1.04887 304.686 1.71138C309.388 2.95847 313.857 1.32166 318.443 1.36063C323.379 1.39961 328.861 -0.276163 332.434 4.81611C336.669 10.8437 337.448 17.0921 332.745 23.2756C331.381 25.1073 332.434 26.6142 333.096 27.9782C334.889 31.5505 335.201 35.3957 336.006 39.163C336.513 41.5272 335.46 43.6317 332.901 44.0604C330.498 44.4501 328.277 43.9435 327.926 40.7608C327.575 37.5392 327.069 34.3045 326.562 31.1219C326.133 28.212 324.691 27.2377 321.509 27.2767C310.285 27.4715 310.246 27.2767 309.661 38.3056C309.544 40.9037 308.804 43.1641 305.933 43.242C303.023 43.32 301.386 41.2934 301.308 38.4615C301.192 32.7717 301.269 27.0561 301.269 21.366C301.269 21.323 301.304 21.2881 301.347 21.2881H301.386C301.408 21.2881 301.425 21.3055 301.425 21.327V21.327ZM315.502 7.92909C315.499 7.92605 315.502 7.92083 315.506 7.9208C316.029 7.91788 315.373 7.72747 314.832 7.92084C313.156 8.58335 310.363 6.47889 309.739 9.44072C308.999 13.0521 308.765 16.8973 310.83 20.2099C311.961 21.9636 324.665 20.9503 325.873 19.1966C326.302 18.612 326.419 17.7936 326.536 17.0272C327.509 9.88915 325.06 7.58742 315.573 7.85512C315.557 7.85557 315.541 7.86491 315.534 7.87937L315.51 7.92784C315.509 7.93079 315.505 7.93143 315.502 7.92909V7.92909Z" fill="#010101"/>
<path d="M359.012 44.0474C359.012 44.0546 359.006 44.0603 358.999 44.0602C342.229 43.7895 343.93 47.2775 344.203 30.3035C344.32 22.8859 344.125 15.4164 343.735 8.03776C343.502 3.95875 345.567 2.20503 349.023 1.89326C357.181 1.19178 365.339 1.38664 373.419 2.63373C375.133 2.90653 376.407 3.72492 376.368 5.62153C376.329 8.14168 374.198 8.84318 372.444 8.57038C367.118 7.75197 362.026 9.42775 356.83 9.38878C353.998 9.38878 352.673 10.2851 353.024 13.5068C353.335 16.1828 352.673 18.9498 356.869 18.5601C360.402 18.2093 363.975 18.0145 367.521 18.0534C370.08 18.0534 372.886 18.7939 372.535 22.1325C372.224 24.9644 370.21 25.549 367.365 25.0423C365.001 24.6136 362.429 25.3151 359.987 25.2372C353.465 25.0423 351.361 27.7573 353.115 34.2136C353.855 37.0066 355.908 36.1622 357.622 36.0453C362.052 35.7335 366.56 34.4864 370.912 36.357C372.782 37.1754 375.419 37.6821 374.64 40.6699C373.938 43.307 371.73 44.0474 369.197 44.0864H359.051C359.03 44.0864 359.012 44.069 359.012 44.0474V44.0474V44.0474Z" fill="#010101"/>
<path d="M53.5668 1.82836C62.0366 1.78939 62.5432 8.58342 64.5178 12.9352C68.285 21.1712 70.7792 29.9918 73.728 38.5785C74.4295 40.644 75.4428 43.0862 72.5979 44.1384C70.0387 45.0737 67.8174 44.0605 66.4144 41.4624C65.2063 39.254 65.4011 35.5517 62.6082 35.123C58.0615 34.4605 53.3589 34.7723 48.7343 34.8502C47.0975 34.8502 47.0585 36.6039 46.7857 37.6821C46.0063 40.7089 43.4082 41.995 41.3038 43.7487C40.1346 44.723 38.6667 44.4892 37.4196 43.5928C36.0556 42.6185 35.8997 41.2285 36.4063 39.8645C40.4854 28.4069 44.5644 16.9753 48.7603 5.55665C49.6956 2.99752 51.7481 1.71145 53.5798 1.82836H53.5408H53.5668ZM53.1771 28.1543C53.1771 28.1431 53.1867 28.134 53.1978 28.1339C60.7122 28.0552 61.0603 27.5052 58.8539 21.6778C58.4642 20.6646 58.3473 19.5734 57.8796 18.6121C56.9443 16.7414 56.9443 13.4808 54.7359 13.4808C52.5275 13.4808 53.1381 16.7025 52.3717 18.4562C51.6702 20.0151 51.2025 21.6389 50.579 23.2367C49.0631 27.0718 50.7649 28.3612 53.1582 28.1746C53.1687 28.1738 53.1771 28.1649 53.1771 28.1543V28.1543Z" fill="#010101"/>
<path d="M17.2064 44.5581C17.2064 44.5632 17.2026 44.5674 17.1976 44.568C11.4075 45.2671 6.37042 43.941 2.63106 39.2019C0.682485 36.7597 -1.64281 33.7199 1.65677 31.0828C4.68356 28.6796 7.95716 30.9659 9.58097 33.4471C12.257 37.5651 16.1412 37.643 20.1163 37.8769C22.3636 37.9938 24.585 37.1754 25.2085 34.7721C25.8321 32.4079 25.0916 30.2644 22.9612 28.6276C19.0381 25.6398 14.3745 24.4707 9.86676 22.9118C1.94256 20.1578 -0.863378 14.0133 2.56611 6.47883C2.87788 5.77735 3.22863 5.03689 3.77423 4.49129C8.47679 -0.445099 25.8061 1.23068 29.6513 6.85557C31.2491 9.18087 32.6781 11.6361 29.8851 13.7665C27.2481 15.832 25.5723 13.2209 24.1693 11.5581C21.4933 8.37545 18.2976 6.85557 14.3355 8.37545C12.0492 9.23283 9.08734 10.8956 9.78882 13.5067C10.6072 16.5725 14.2186 17.4688 17.0505 18.4821C18.9211 19.1446 21.0126 19.0277 22.9612 19.5343C30.4567 21.4049 34.4967 26.3283 34.0291 32.8625C33.5225 39.4617 28.5081 43.8525 20.8178 44.3591C19.6252 44.4361 18.4073 44.475 17.2141 44.5135C17.1964 44.5141 17.1879 44.5355 17.2005 44.548L17.2035 44.551C17.2053 44.5529 17.2064 44.5555 17.2064 44.5581V44.5581Z" fill="#010101"/>
<path d="M236.694 1.89666C236.694 1.90171 236.698 1.90555 236.703 1.90483C240.736 1.32458 242.411 3.15653 243.683 7.19335C246.709 16.9102 249.476 26.7051 253.75 35.9803C254.802 38.2666 256.582 41.6961 253.244 42.7353C250.568 43.5537 246.787 42.9302 244.891 39.3968C243.916 37.5651 244.189 34.4214 241.591 34.2266C237.473 33.9148 233.16 33.8368 229.237 34.8501C227.522 35.2788 226.561 38.6173 225.314 40.6828C224.106 42.6704 222.638 44.4501 220.105 43.125C217.819 41.9169 217.78 39.5527 218.39 37.3703C219.286 34.2655 220.3 31.1868 221.495 28.16C224.561 20.2748 227.639 12.3895 230.9 4.56926C231.872 2.24952 233.839 1.00285 236.635 1.84815C236.648 1.85208 236.66 1.85928 236.669 1.8689L236.691 1.8908C236.693 1.89235 236.694 1.89446 236.694 1.89666V1.89666ZM239.24 23.5783C238.051 19.5657 232.982 19.1468 232.299 23.2758C232.143 24.2164 232.036 25.1458 231.952 26.0685C231.64 29.7968 235.018 27.6664 236.733 27.9781C238.214 28.212 240.695 28.9135 239.876 25.8347C239.676 25.0807 239.463 24.3313 239.24 23.5783Z" fill="#010101"/>
<path d="M267.585 17.6767C267.585 21.9896 267.507 26.3414 267.585 30.6542C267.702 36.7597 272.638 36.9156 276.6 36.9546C280.329 36.9936 283.823 35.2399 284.72 30.8491C286.239 23.5095 285.343 16.001 286.045 8.58338C286.356 5.36174 286.785 2.36092 290.591 2.32195C294.397 2.28298 293.189 5.62153 293.579 7.92085C294.943 15.3774 293.579 22.769 292.8 30.1086C291.942 37.9938 286.694 43.7876 280.212 45.1126C274.418 46.3207 264.831 41.3454 261.129 36.1362C256.504 29.6799 258.687 22.3793 257.751 15.5073C257.323 12.3636 258.063 9.05102 258.102 5.82938C258.102 2.95848 259.661 1.63345 262.181 2.25699C264.545 2.84157 267.585 3.19232 267.39 7.03751C267.238 10.4933 267.384 13.9863 267.39 17.4559C267.39 17.585 267.495 17.6897 267.624 17.6897V17.6897H267.598C267.591 17.6897 267.585 17.6839 267.585 17.6767V17.6767Z" fill="#010101"/>
<path d="M203.81 44.1209C203.817 44.1276 203.812 44.139 203.803 44.1394C197.749 44.4118 193.13 44.6841 188.525 44.8398C185.927 44.9177 183.978 43.9824 183.744 40.9946C182.887 29.4201 182.536 17.8326 182.848 6.21907C182.926 3.93274 182.575 1.00989 185.953 1.08783C188.98 1.16577 191.786 2.218 191.864 6.21907C192.058 14.4161 192.487 22.6131 192.565 30.7711C192.604 34.4214 192.955 36.8766 197.696 35.9413C201.619 35.1619 205.659 35.6296 209.622 36.37C211.765 36.7987 214.09 37.0715 213.506 40.2931C213.038 42.9692 211.674 44.528 208.842 44.4111C206.701 44.3342 204.585 44.1813 203.818 44.1024C203.808 44.1014 203.803 44.1137 203.81 44.1209V44.1209Z" fill="#010101"/>
<path d="M88.7576 26.5218C88.7914 26.7649 88.81 27.0102 88.8102 27.2557C88.8143 31.4456 88.8857 35.6356 88.81 39.8255C88.771 41.9689 87.9527 44.3332 85.4715 43.8655C83.1851 43.4369 79.6777 43.3979 79.3659 39.9814C78.3137 28.6017 78.3527 17.1311 79.0542 5.71247C79.249 2.76363 80.9248 1.47757 84.0685 1.78934C87.1342 2.10111 89.1997 3.03644 89.0049 6.49191C88.6221 13.1649 87.8258 19.8128 88.7576 26.5218Z" fill="#010101"/>
</svg>
