<svg width="327" height="55" viewBox="0 0 327 55" fill="none" xmlns="http://www.w3.org/2000/svg">
<path d="M178.432 33.6757C179.38 26.7325 178.36 20.768 178.432 14.8344V9.2098C178.432 7.86031 178.638 6.61383 176.681 6.27389C175.362 6.03695 174.826 4.65656 174.991 3.441C175.197 1.89578 176.403 1.24679 177.886 1.18498C179.977 1.05106 182.099 0.917146 184.19 0.783228C186.282 0.680213 188.136 1.49403 188.538 3.51311C188.908 5.53219 187.456 6.67564 185.334 6.64474C184.118 6.64474 184.015 7.1495 183.984 8.39598C183.85 18.172 184.623 27.9069 185.066 37.6417C185.231 41.0824 185.272 44.554 185.066 47.9843C184.932 49.9725 184.19 52.1976 181.801 52.4655C179.369 52.7333 178.731 50.6112 177.752 48.726C174.013 41.3811 170.17 34.0671 166.163 26.8561C164.287 23.5021 162.166 20.2562 160.037 16.9577C158.834 15.0938 156.93 15.0149 157.129 17.2243V17.2243C157.87 26.5883 156.15 35.9626 157.335 45.3266C157.469 46.5009 157.335 47.8195 158.849 48.2625C158.983 48.2934 159.148 48.3346 159.22 48.4273C160.332 49.9107 160.394 51.322 158.88 52.5684C156.861 54.2167 149.31 54.021 148.269 52.1667C147.188 50.2815 147.796 48.726 149.918 48.0873C151.566 47.6135 151.638 46.6761 151.638 45.1514C151.638 33.8302 151.741 22.5089 151.844 11.1568C151.844 9.50854 152.081 7.85001 149.722 7.55127C148.311 7.34524 147.631 6.30479 147.868 4.9244C148.105 3.441 149.011 2.40055 150.567 2.35934C153.935 2.28723 157.273 2.28724 160.641 2.46236C162.125 2.53447 162.66 3.91486 163.299 5.16133C168.116 14.3831 173.025 23.5432 178.417 33.6792C178.421 33.6863 178.432 33.6837 178.432 33.6757V33.6757Z" fill="#010101"/>
<path d="M257.791 14.6843C257.789 14.6806 257.784 14.6819 257.784 14.6861V46.0784C257.784 46.8922 258.155 47.5927 258.495 48.3344C259.772 51.3012 258.968 52.4756 255.796 52.7125C254.714 52.7846 253.643 52.7434 252.592 52.9186C250.439 53.2585 249.223 52.0738 248.585 50.3226C247.977 48.6332 249.058 47.3249 250.542 46.954C252.324 46.5111 252.056 45.3058 252.025 44.1932C251.819 36.5805 252.499 28.9266 251.624 21.3447C251.284 18.3779 252.365 15.5141 251.696 12.5885C251.191 10.3634 251.562 7.80865 248.76 6.69609C246.772 5.88228 247.915 4.03832 247.884 2.79185C247.884 1.67929 249.574 1.6484 250.583 1.67931C253.519 1.78232 256.414 1.94714 259.339 2.25619C261.327 2.46221 262.677 3.36874 263.45 5.49083C266.818 14.8239 272.113 23.1784 276.656 31.9449C276.796 32.2177 277.026 32.4621 277.253 32.707C277.449 32.918 277.74 33.0223 278.025 32.9837V32.9837C278.401 32.9327 278.675 32.6146 278.675 32.2353C278.684 26.253 278.802 20.2721 278.603 14.3294C278.531 11.4348 280.189 7.99408 275.739 6.17073C274.225 5.53204 275.028 2.80216 277.058 2.40041C279.788 1.86473 282.62 1.86474 285.412 1.79263C286.659 1.79263 287.699 2.56522 288.214 3.81169C288.75 5.05817 288.008 6.33555 287.205 6.57248C282.62 7.89106 284.207 11.6923 284.176 14.4222C283.97 25.5786 284.207 36.6938 284.176 47.8503C284.176 49.1688 283.506 50.508 282.023 50.9819C279.901 51.6515 278.417 50.2093 277.202 48.9628C276.12 47.8503 275.585 46.202 274.874 44.7495C270.125 35.3134 264.026 26.5881 259.679 16.9151C259.415 16.3452 258.848 15.9462 257.732 14.7348C257.717 14.7179 257.728 14.69 257.751 14.69H257.788C257.791 14.69 257.792 14.6869 257.791 14.6843V14.6843Z" fill="#010101"/>
<path d="M123.681 17.9019C123.68 17.9033 123.68 17.9048 123.68 17.9062V21.0666C123.68 22.6839 122.773 24.9399 125.637 24.909C127.697 24.909 130.417 25.8155 130.726 22.1791C130.891 20.2218 132.312 19.5214 134.167 19.7171C136.124 19.9231 135.99 21.4374 135.949 22.7457C135.846 26.0834 135.784 29.421 135.506 32.7484C135.403 33.9948 135.063 35.7152 133.415 35.777C131.725 35.8491 130.716 34.5305 130.716 32.8411C130.747 28.9678 127.914 30.5542 126.101 30.3791C123.711 30.1421 123.577 31.4195 123.505 33.5416C123.402 37.5179 123.165 41.4943 123.103 45.5015C123.103 47.6236 123.845 47.9327 125.256 47.6236C127.955 47.1188 130.613 47.4588 133.281 47.4897C136.783 47.4897 140.152 47.5927 140.564 42.8026C140.698 41.3501 141.944 40.8453 143.222 40.8865C144.705 40.9174 145.179 42.03 145.447 43.3176C146.59 48.8083 144.036 52.8155 138.504 53.0525C131.025 53.3924 123.546 53.2894 116.067 53.1555C112.699 53.0834 111.926 51.1364 113.976 48.3035C115.83 45.7797 114.924 42.7408 115.058 40.1139C115.531 30.6778 115.222 21.1799 115.161 11.7129C115.161 9.7247 115.233 7.73653 112.225 7.5305C110.741 7.42749 109.66 6.0162 110.134 4.26496C110.577 2.61673 111.854 1.83381 113.471 1.87502C121.857 2.03984 130.283 2.51371 138.679 2.03985C140.193 1.93683 141.337 2.78155 141.841 4.05893C143.057 7.12875 142.954 10.3634 142.552 13.5568C142.387 14.8342 141.275 15.339 140.224 15.4729C139.05 15.6068 138.37 14.7003 137.834 13.6495C135.135 8.32371 130.695 6.33554 125.235 7.89106C124.092 8.231 123.721 8.79758 123.752 9.87922V17.8812C123.752 17.8938 123.742 17.904 123.729 17.904H123.672C123.66 17.904 123.657 17.8876 123.668 17.8828V17.8828C123.676 17.8791 123.685 17.8874 123.682 17.8965L123.681 17.9019Z" fill="#010101"/>
<path d="M290.712 25.4448C290.709 25.4448 290.707 25.4424 290.707 25.4397C291.078 20.1156 291.748 14.8328 294.148 10.0133C300.081 -1.91579 313.494 -1.44192 321.004 6.57258C327.607 13.6497 327.473 21.2933 326.525 29.5859C325.546 38.2082 322.889 45.9652 315.338 51.291C313.587 52.5375 311.835 53.7222 309.847 53.2483C303.347 51.734 296.909 50.0858 293.88 42.9366C291.491 37.3136 290.275 31.5465 290.717 25.4499C290.717 25.4471 290.715 25.4448 290.712 25.4448V25.4448ZM318.887 22.9986C318.883 22.9951 318.882 22.9902 318.882 22.9852C319.352 18.6713 316.923 14.131 315.111 9.41577C314.205 7.02584 311.001 5.81027 310.094 6.25323C307.529 7.39668 303.893 5.88239 302.306 9.32306C297.321 20.1086 297.691 31.0281 301.431 42.0095C302.471 45.0381 307.498 48.077 310.022 47.7679C312.412 47.5001 317.099 42.679 317.707 40.1552C318.952 34.8354 318.82 29.454 318.922 23.0254C318.923 23.0133 318.913 23.0033 318.901 23.0033H318.899C318.894 23.0033 318.89 23.0016 318.887 22.9986V22.9986Z" fill="#010101"/>
<path d="M211.365 21.4473C211.361 21.4437 211.355 21.4462 211.355 21.4513C211.355 29.0286 211.427 36.6058 211.324 44.1831C211.324 46.4082 211.932 47.8195 214.26 48.0255C215.908 48.1594 216.722 49.1072 216.825 50.5906C216.959 52.3109 215.507 53.0526 214.26 53.1865C210.49 53.6295 206.678 53.8973 202.867 54.0004C200.879 54.0313 198.921 53.0938 198.726 50.9717C198.561 49.0866 200.343 48.2728 202.032 48.1697C203.784 48.0667 203.887 47.0881 203.887 45.7798C203.815 34.2525 203.681 22.7665 203.722 11.2392C203.722 7.87061 202.208 7.09801 199.076 6.92288C195.604 6.71685 195.676 8.5402 195.264 10.9713C194.924 13.0625 195.841 16.8638 192.267 16.5341C188.692 16.2045 189.939 12.6917 189.908 10.3017C189.908 9.08618 189.805 7.87061 189.774 6.69625C189.671 2.64779 190.783 1.50433 194.924 1.60735C203.681 1.77217 212.416 2.0091 221.173 2.18422C224.304 2.25633 225.921 3.43069 226.56 6.79925C227.034 9.3231 227.034 11.8573 227.467 14.3502C227.735 15.9366 226.756 17.1522 225.551 17.5127C223.861 17.9866 222.852 16.6371 222.285 15.1846C221.842 14.0721 221.677 12.8565 221.471 11.6821C220.997 8.95226 219.885 7.60277 216.691 7.73669C212.004 7.94272 211.633 7.94273 211.541 12.3517C211.469 15.4003 211.54 18.4386 211.541 21.5173C211.541 21.5529 211.512 21.5818 211.476 21.5818V21.5818C211.452 21.5818 211.431 21.5688 211.419 21.5479L211.366 21.4486C211.366 21.4481 211.365 21.4477 211.365 21.4473V21.4473Z" fill="#010101"/>
<path d="M48.939 36.5044C48.9352 36.5006 48.9301 36.4991 48.925 36.5007C48.4343 36.6486 46.1693 35.335 45.6673 37.4047C44.8226 40.8041 42.3605 44.0388 43.9778 47.8194C45.3891 51.1571 44.4826 52.8774 40.9801 53.0731C39.6615 53.1452 38.2811 53.0731 37.0038 52.7744C34.6138 52.2696 33.6043 49.7458 35.4586 48.3242C37.5807 46.7069 37.6116 44.5539 38.2915 42.4627C40.7535 34.716 43.3494 26.959 45.7703 19.2124C47.0477 15.1639 48.0984 11.0227 49.1388 6.91247C49.5818 5.22304 50.3132 3.74994 52.1366 3.64693C54.0938 3.54391 54.5265 5.19215 55.1034 6.80947C59.5845 19.645 61.9126 33.1296 66.5276 45.9342C67.0633 47.4486 67.4342 48.932 69.4223 49.4058C71.0088 49.7767 71.2045 51.4661 71.0087 52.7435C70.7718 54.2269 69.3605 54.8656 67.9389 54.8038C65.3121 54.6698 62.6852 54.402 60.0171 54.6389C57.7611 54.845 56.1747 52.2799 57.5242 50.4566C59.0694 48.3963 58.7707 47.0159 57.5963 45.0998C56.9267 44.0182 56.5147 42.576 56.422 41.2883C56.1237 37.0817 53.8024 35.7298 48.9661 36.5355C48.9543 36.5375 48.9431 36.5284 48.9431 36.5165V36.5142C48.9431 36.5105 48.9416 36.507 48.939 36.5044V36.5044ZM53.1461 30.6367C53.128 30.6367 53.1122 30.6241 53.108 30.6065C52.7362 29.0389 52.6637 27.4918 52.448 26.0138C52.149 23.9651 50.2617 23.8557 49.5097 25.7847V25.7847C47.5524 30.6675 47.5936 30.6676 53.1461 30.6367V30.6367Z" fill="#010101"/>
<path d="M21.2079 35.4578C21.205 35.4578 21.2033 35.4546 21.2047 35.4521C24.4677 29.8914 25.5491 24.4747 27.0938 19.2846C27.7634 16.9977 28.7111 14.7726 29.288 12.4444C29.7619 10.5902 31.4101 8.39598 28.2476 7.19072C27.9797 7.0877 27.8046 6.52113 27.7428 6.15028C27.5059 4.8729 27.7428 3.68825 29.0614 3.08046C31.6573 1.9061 34.4181 1.06138 37.045 2.74051C38.1266 3.45131 38.7653 5.02743 37.8897 6.31511C35.1907 10.3224 34.9229 15.1434 33.4086 19.5215C30.1018 29.2255 26.9084 38.9603 23.2308 48.5303C22.623 50.1167 21.9122 51.662 19.9961 51.631C17.9358 51.5589 17.8019 49.7459 17.2663 48.1904C12.816 35.7256 9.71532 22.8798 6.28495 10.1472C5.84199 8.5299 5.06938 7.95303 3.48296 7.92213C1.49479 7.85002 -0.153442 6.70655 0.0113802 4.82139C0.176203 2.83322 2.16438 2.12243 4.05984 2.43147C7.26358 2.93624 10.3643 0.742031 13.5577 2.29755C15.8859 3.4101 17.9358 4.52265 15.206 7.22162C13.2487 9.17889 14.866 11.1259 15.2781 12.8874C17.0249 20.2136 19.0381 27.4372 21.1951 35.4682C21.1977 35.4777 21.2117 35.476 21.2117 35.4662V35.4616C21.2117 35.4595 21.21 35.4578 21.2079 35.4578V35.4578Z" fill="#010101"/>
<path d="M94.496 47.5413C94.496 47.5471 94.5004 47.552 94.5062 47.5524C95.4097 47.6237 96.3537 47.6241 97.2568 47.7164C100.79 48.0873 103.087 46.7378 103.891 43.1014C104.097 42.2258 104.663 41.412 105.137 40.6085C105.776 39.568 106.755 39.1251 107.898 39.5989C109.114 40.1037 109.855 41.1132 109.443 42.4627C107.249 50.2815 105.91 53.784 97.3804 53.3513C91.3128 53.0526 85.1835 53.6912 79.0851 53.8561C77.4677 53.887 76.1492 53.1865 75.7165 51.5692C75.4178 50.3948 75.5826 48.7672 77.0351 48.6024C80.2388 48.2006 79.425 45.6665 79.425 43.9873C79.425 37.6829 79.3941 31.3475 78.7554 25.1151C78.3125 20.84 78.7863 16.5238 78.1167 12.2384C77.7768 10.1472 77.6429 8.29291 75.8298 6.61378C73.9756 4.92435 74.4803 2.87438 77.2102 2.19448C80.1461 1.45278 83.0717 1.98845 85.9355 2.59624C87.6249 2.96709 88.3975 4.34747 88.0885 5.96479C86.1724 16.2044 87.5528 26.5161 87.0481 36.7969C86.9759 38.5482 87.1202 40.2994 87.0481 42.0507C86.9382 45.8484 88.7478 47.7027 92.4769 47.6134H94.393C94.4499 47.6134 94.496 47.5673 94.496 47.5104V47.5104V47.5413V47.5413Z" fill="#010101"/>
<path d="M236.728 2.42118C236.728 2.42688 236.732 2.4315 236.738 2.43149C238.352 2.43106 239.966 2.3287 241.549 2.4315C243.135 2.56541 244.413 3.41013 244.68 5.02746C244.917 6.47996 244.413 7.78823 242.723 7.99425C240.467 8.293 240.9 9.98243 240.9 11.3628C240.828 18.8417 240.9 26.3617 240.828 33.8714C240.797 37.8478 241.837 41.8241 241.168 45.8314C240.962 47.0057 241.168 48.0256 242.62 48.2213C244.268 48.4582 244.907 49.3957 244.773 50.9821C244.608 52.8672 242.888 53.5471 241.641 53.6089C238.644 53.7119 235.574 53.4441 232.576 52.9703C231.361 52.8054 230.011 51.9298 229.743 50.4773C229.403 48.757 230.856 47.9844 232.071 47.7165C234.194 47.2427 233.689 46.0992 233.761 44.5128C234.204 34.1393 233.967 23.7554 233.895 13.3819C233.895 10.5799 234.132 7.78824 230.392 6.94352C229.383 6.70659 228.435 5.80005 228.806 4.48147C229.177 3.16289 229.815 1.95762 231.505 2.01943C233.122 2.04797 234.713 2.0238 236.326 2.01993C236.548 2.0194 236.728 2.1993 236.728 2.42118V2.42118V2.42118Z" fill="#010101"/>
</svg>
